G04 #@! TF.GenerationSoftware,KiCad,Pcbnew,8.0.5*
G04 #@! TF.CreationDate,2024-10-21T12:31:17+08:00*
G04 #@! TF.ProjectId,totem_0_3_usb_c,746f7465-6d5f-4305-9f33-5f7573625f63,0.3*
G04 #@! TF.SameCoordinates,Original*
G04 #@! TF.FileFunction,Paste,Top*
G04 #@! TF.FilePolarity,Positive*
%FSLAX46Y46*%
G04 Gerber Fmt 4.6, Leading zero omitted, Abs format (unit mm)*
G04 Created by KiCad (PCBNEW 8.0.5) date 2024-10-21 12:31:17*
%MOMM*%
%LPD*%
G01*
G04 APERTURE LIST*
G04 Aperture macros list*
%AMRoundRect*
0 Rectangle with rounded corners*
0 $1 Rounding radius*
0 $2 $3 $4 $5 $6 $7 $8 $9 X,Y pos of 4 corners*
0 Add a 4 corners polygon primitive as box body*
4,1,4,$2,$3,$4,$5,$6,$7,$8,$9,$2,$3,0*
0 Add four circle primitives for the rounded corners*
1,1,$1+$1,$2,$3*
1,1,$1+$1,$4,$5*
1,1,$1+$1,$6,$7*
1,1,$1+$1,$8,$9*
0 Add four rect primitives between the rounded corners*
20,1,$1+$1,$2,$3,$4,$5,0*
20,1,$1+$1,$4,$5,$6,$7,0*
20,1,$1+$1,$6,$7,$8,$9,0*
20,1,$1+$1,$8,$9,$2,$3,0*%
%AMRotRect*
0 Rectangle, with rotation*
0 The origin of the aperture is its center*
0 $1 length*
0 $2 width*
0 $3 Rotation angle, in degrees counterclockwise*
0 Add horizontal line*
21,1,$1,$2,0,0,$3*%
G04 Aperture macros list end*
%ADD10R,1.500000X1.800000*%
%ADD11RoundRect,0.150000X-0.425000X0.150000X-0.425000X-0.150000X0.425000X-0.150000X0.425000X0.150000X0*%
%ADD12RoundRect,0.075000X-0.500000X0.075000X-0.500000X-0.075000X0.500000X-0.075000X0.500000X0.075000X0*%
%ADD13O,2.100000X1.000000*%
%ADD14O,1.800000X1.000000*%
%ADD15R,0.700000X1.000000*%
%ADD16R,1.000000X2.800000*%
%ADD17RotRect,1.800000X1.500000X170.000000*%
%ADD18RotRect,1.800000X1.500000X10.000000*%
%ADD19RoundRect,0.150000X0.425000X-0.150000X0.425000X0.150000X-0.425000X0.150000X-0.425000X-0.150000X0*%
%ADD20RoundRect,0.075000X0.500000X-0.075000X0.500000X0.075000X-0.500000X0.075000X-0.500000X-0.075000X0*%
G04 APERTURE END LIST*
D10*
X162872435Y-67194348D03*
X162872435Y-70594348D03*
X137127565Y-74393348D03*
X137127565Y-77793348D03*
X166422435Y-103194348D03*
X166422435Y-106594348D03*
X159322435Y-81597348D03*
X159322435Y-84997348D03*
X162872435Y-88796348D03*
X162872435Y-92196348D03*
D11*
X162974000Y-56400000D03*
X162974000Y-57200000D03*
D12*
X162974000Y-58350000D03*
X162974000Y-59350000D03*
X162974000Y-59850000D03*
X162974000Y-60850000D03*
D11*
X162974000Y-62000000D03*
X162974000Y-62800000D03*
X162974000Y-62800000D03*
X162974000Y-62000000D03*
D12*
X162974000Y-61350000D03*
X162974000Y-60350000D03*
X162974000Y-58850000D03*
X162974000Y-57850000D03*
D11*
X162974000Y-57200000D03*
X162974000Y-56400000D03*
D13*
X162399000Y-55280000D03*
D14*
X158219000Y-55280000D03*
D13*
X162399000Y-63920000D03*
D14*
X158219000Y-63920000D03*
D10*
X166422435Y-67194348D03*
X166422435Y-70594348D03*
X140677565Y-67194348D03*
X140677565Y-70594348D03*
D15*
X67500000Y-53200000D03*
X64500000Y-53200000D03*
X63000000Y-53200000D03*
D16*
X69100000Y-51300000D03*
X61150000Y-51300000D03*
D17*
X267674173Y-98795202D03*
X264325827Y-98204798D03*
D10*
X162872435Y-81597348D03*
X162872435Y-84997348D03*
X137127565Y-103194348D03*
X137127565Y-106594348D03*
D15*
X237300000Y-53200000D03*
X234300000Y-53200000D03*
X232800000Y-53200000D03*
D16*
X238900000Y-51300000D03*
X230950000Y-51300000D03*
D10*
X137127565Y-88796348D03*
X137127565Y-92196348D03*
X137127565Y-81597348D03*
X137127565Y-84997348D03*
X159322435Y-103194348D03*
X159322435Y-106594348D03*
X162872435Y-103194348D03*
X162872435Y-106594348D03*
X133577565Y-74393348D03*
X133577565Y-77793348D03*
X159322435Y-67194348D03*
X159322435Y-70594348D03*
X162872435Y-95995348D03*
X162872435Y-99395348D03*
X159322435Y-88796348D03*
X159322435Y-92196348D03*
X166422435Y-95995348D03*
X166422435Y-99395348D03*
X133577565Y-88796348D03*
X133577565Y-92196348D03*
D18*
X32325827Y-98795202D03*
X35674173Y-98204798D03*
D10*
X140677565Y-81592348D03*
X140677565Y-84992348D03*
X133577565Y-81597348D03*
X133577565Y-84997348D03*
X159322435Y-95995348D03*
X159322435Y-99395348D03*
X140677565Y-95995348D03*
X140677565Y-99395348D03*
X140677565Y-88796348D03*
X140677565Y-92196348D03*
X133577565Y-103194348D03*
X133577565Y-106594348D03*
X137127565Y-67194348D03*
X137127565Y-70594348D03*
X133577565Y-67194348D03*
X133577565Y-70594348D03*
X137127565Y-95995348D03*
X137127565Y-99395348D03*
X166422435Y-81597348D03*
X166422435Y-84997348D03*
X140677565Y-103194348D03*
X140677565Y-106594348D03*
X159322435Y-74393348D03*
X159322435Y-77793348D03*
D19*
X136929000Y-62800000D03*
X136929000Y-62000000D03*
D20*
X136929000Y-60850000D03*
X136929000Y-59850000D03*
X136929000Y-59350000D03*
X136929000Y-58350000D03*
D19*
X136929000Y-57200000D03*
X136929000Y-56400000D03*
X136929000Y-56400000D03*
X136929000Y-57200000D03*
D20*
X136929000Y-57850000D03*
X136929000Y-58850000D03*
X136929000Y-60350000D03*
X136929000Y-61350000D03*
D19*
X136929000Y-62000000D03*
X136929000Y-62800000D03*
D13*
X137504000Y-63920000D03*
D14*
X141684000Y-63920000D03*
D13*
X137504000Y-55280000D03*
D14*
X141684000Y-55280000D03*
D10*
X140677565Y-74393348D03*
X140677565Y-77793348D03*
X166422435Y-74393348D03*
X166422435Y-77793348D03*
X166422435Y-88796348D03*
X166422435Y-92196348D03*
X133577565Y-95995348D03*
X133577565Y-99395348D03*
X162872435Y-74393348D03*
X162872435Y-77793348D03*
M02*
