%TF.GenerationSoftware,KiCad,Pcbnew,8.0.5*%
%TF.CreationDate,2024-10-21T12:31:24+08:00*%
%TF.ProjectId,totem_0_3_usb_c,746f7465-6d5f-4305-9f33-5f7573625f63,0.3*%
%TF.SameCoordinates,Original*%
%TF.FileFunction,Drillmap*%
%TF.FilePolarity,Positive*%
%FSLAX45Y45*%
G04 Gerber Fmt 4.5, Leading zero omitted, Abs format (unit mm)*
G04 Created by KiCad (PCBNEW 8.0.5) date 2024-10-21 12:31:24*
%MOMM*%
%LPD*%
G01*
G04 APERTURE LIST*
%ADD10C,0.010000*%
%ADD11C,0.100000*%
%ADD12C,0.080000*%
%ADD13C,0.120000*%
%ADD14C,0.200000*%
%ADD15C,0.101600*%
%ADD16C,0.125000*%
%ADD17C,0.127000*%
%ADD18C,0.130000*%
%ADD19C,0.320000*%
G04 APERTURE END LIST*
D10*
X14860090Y-12465554D02*
X14326690Y-12157579D01*
X2387278Y-11924041D02*
X3063200Y-11804802D01*
X15397256Y-6988435D02*
X14607756Y-6988434D01*
X15661796Y-12157579D02*
X15128396Y-12465554D01*
X7589688Y-4579561D02*
X7589688Y-4965500D01*
X3163036Y-12459204D02*
X8886150Y-12459204D01*
X20550231Y-4579561D02*
X20550231Y-4965500D01*
X9439655Y-4965500D02*
X9439655Y-4579561D01*
X9410021Y-4549928D02*
X7619321Y-4549928D01*
X15647256Y-6988434D02*
X15662500Y-6988400D01*
X14327041Y-10628435D02*
X14354757Y-10628435D01*
X7619321Y-4549928D02*
X7617809Y-4549967D01*
X7616314Y-4550082D01*
X7614840Y-4550273D01*
X7613389Y-4550536D01*
X7611962Y-4550869D01*
X7610561Y-4551272D01*
X7609188Y-4551741D01*
X7607845Y-4552276D01*
X7606534Y-4552874D01*
X7605258Y-4553532D01*
X7604017Y-4554250D01*
X7602814Y-4555025D01*
X7601651Y-4555856D01*
X7600529Y-4556739D01*
X7599451Y-4557675D01*
X7598419Y-4558659D01*
X7597435Y-4559691D01*
X7596500Y-4560769D01*
X7595616Y-4561891D01*
X7594785Y-4563054D01*
X7594010Y-4564257D01*
X7593293Y-4565497D01*
X7592634Y-4566774D01*
X7592036Y-4568085D01*
X7591502Y-4569428D01*
X7591032Y-4570801D01*
X7590630Y-4572202D01*
X7590296Y-4573629D01*
X7590033Y-4575080D01*
X7589843Y-4576554D01*
X7589727Y-4578048D01*
X7589688Y-4579561D01*
X18442390Y-12845496D02*
X18523741Y-12824055D01*
X18602615Y-12803953D01*
X18679092Y-12785147D01*
X18753251Y-12767595D01*
X18825172Y-12751253D01*
X18894936Y-12736077D01*
X18962622Y-12722026D01*
X19028310Y-12709054D01*
X19092080Y-12697120D01*
X19154011Y-12686179D01*
X19214184Y-12676189D01*
X19272678Y-12667107D01*
X19329573Y-12658889D01*
X19384949Y-12651492D01*
X19438886Y-12644873D01*
X19491463Y-12638989D01*
X19542761Y-12633796D01*
X19592860Y-12629251D01*
X19641838Y-12625312D01*
X19689777Y-12621934D01*
X19736755Y-12619074D01*
X19782854Y-12616690D01*
X19828151Y-12614739D01*
X19872728Y-12613176D01*
X19916664Y-12611958D01*
X19960040Y-12611044D01*
X20002934Y-12610388D01*
X20045427Y-12609949D01*
X20087598Y-12609682D01*
X20129528Y-12609546D01*
X20171296Y-12609495D01*
X20212982Y-12609488D01*
X16003285Y-13981088D02*
X16013211Y-13975356D01*
X16024626Y-13968764D01*
X16037472Y-13961347D01*
X16051691Y-13953137D01*
X16067225Y-13944170D01*
X16084013Y-13934479D01*
X16101999Y-13924096D01*
X16121124Y-13913057D01*
X16141328Y-13901395D01*
X16162554Y-13889143D01*
X16184743Y-13876335D01*
X16207837Y-13863005D01*
X16231776Y-13849187D01*
X16256503Y-13834915D01*
X16281959Y-13820221D01*
X16308085Y-13805140D01*
X16334823Y-13789706D01*
X16362114Y-13773952D01*
X16389900Y-13757912D01*
X16418123Y-13741620D01*
X16446723Y-13725109D01*
X16475642Y-13708413D01*
X16504822Y-13691566D01*
X16534205Y-13674601D01*
X16563731Y-13657553D01*
X16593342Y-13640455D01*
X16622979Y-13623341D01*
X16652585Y-13606244D01*
X16682100Y-13589198D01*
X16711467Y-13572237D01*
X16740626Y-13555395D01*
X16769519Y-13538705D01*
X15647256Y-6388435D02*
X15662495Y-6388435D01*
X27928937Y-10234941D02*
X27929162Y-10233423D01*
X27929311Y-10231913D01*
X27929383Y-10230414D01*
X27929382Y-10228927D01*
X27929307Y-10227455D01*
X27929162Y-10225999D01*
X27928946Y-10224562D01*
X27928661Y-10223145D01*
X27928310Y-10221751D01*
X27927892Y-10220382D01*
X27927411Y-10219040D01*
X27926866Y-10217727D01*
X27926260Y-10216444D01*
X27925593Y-10215195D01*
X27924869Y-10213981D01*
X27924086Y-10212804D01*
X27923248Y-10211666D01*
X27922356Y-10210570D01*
X27921411Y-10209517D01*
X27920414Y-10208510D01*
X27919367Y-10207550D01*
X27918271Y-10206640D01*
X27917128Y-10205781D01*
X27915939Y-10204977D01*
X27914706Y-10204228D01*
X27913430Y-10203537D01*
X27912112Y-10202906D01*
X27910754Y-10202336D01*
X27909357Y-10201831D01*
X27907923Y-10201393D01*
X27906453Y-10201022D01*
X27904948Y-10200722D01*
X14327390Y-6388435D02*
X14327390Y-6384065D01*
X14327390Y-6372500D01*
X14327390Y-6354220D01*
X14327390Y-6329708D01*
X14327390Y-6299443D01*
X14327390Y-6263907D01*
X14327390Y-6223581D01*
X14327390Y-6178945D01*
X14327390Y-6130481D01*
X14327390Y-6078669D01*
X14327390Y-6023991D01*
X14327390Y-5966928D01*
X14327390Y-5907959D01*
X14327390Y-5847567D01*
X14327390Y-5786233D01*
X14327390Y-5724436D01*
X14327390Y-5662659D01*
X14327390Y-5601381D01*
X14327390Y-5541085D01*
X14327390Y-5482251D01*
X14327390Y-5425359D01*
X14327390Y-5370892D01*
X14327390Y-5319329D01*
X14327390Y-5271152D01*
X14327390Y-5226842D01*
X14327390Y-5186879D01*
X14327390Y-5151745D01*
X14327390Y-5121920D01*
X14327390Y-5097886D01*
X14327390Y-5080123D01*
X14327390Y-5069113D01*
X14327390Y-5065336D01*
X14326690Y-12157579D02*
X14326690Y-11228009D01*
X15644256Y-10628435D02*
X15662500Y-10628435D01*
X8915784Y-12609488D02*
X8926484Y-12609488D01*
X8938709Y-12609488D01*
X8952411Y-12609488D01*
X8967541Y-12609488D01*
X8984052Y-12609488D01*
X9001895Y-12609488D01*
X9021021Y-12609488D01*
X9041383Y-12609488D01*
X9062933Y-12609488D01*
X9085622Y-12609488D01*
X9109403Y-12609488D01*
X9134226Y-12609488D01*
X9160044Y-12609488D01*
X9186809Y-12609488D01*
X9214472Y-12609488D01*
X9242985Y-12609488D01*
X9272300Y-12609488D01*
X9302369Y-12609488D01*
X9333144Y-12609488D01*
X9364576Y-12609488D01*
X9396617Y-12609488D01*
X9429220Y-12609488D01*
X9462335Y-12609488D01*
X9495915Y-12609488D01*
X9529912Y-12609488D01*
X9564277Y-12609488D01*
X9598962Y-12609488D01*
X9633919Y-12609488D01*
X9669100Y-12609488D01*
X9704456Y-12609488D01*
X9739940Y-12609488D01*
X9775503Y-12609488D01*
X27635425Y-11900052D02*
X27928937Y-10234941D01*
X21102336Y-12579855D02*
X21102336Y-12459204D01*
X15117460Y-12505771D02*
X15963068Y-13970152D01*
X26925285Y-12359369D02*
X26925285Y-11804802D01*
X9775503Y-12609488D02*
X9817189Y-12609495D01*
X9858957Y-12609546D01*
X9900887Y-12609682D01*
X9943059Y-12609949D01*
X9985551Y-12610388D01*
X10028446Y-12611044D01*
X10071821Y-12611958D01*
X10115757Y-12613176D01*
X10160334Y-12614739D01*
X10205632Y-12616690D01*
X10251730Y-12619074D01*
X10298708Y-12621934D01*
X10346647Y-12625312D01*
X10395625Y-12629251D01*
X10445724Y-12633796D01*
X10497022Y-12638989D01*
X10549599Y-12644873D01*
X10603536Y-12651492D01*
X10658912Y-12658889D01*
X10715807Y-12667107D01*
X10774301Y-12676189D01*
X10834474Y-12686179D01*
X10896405Y-12697120D01*
X10960175Y-12709054D01*
X11025863Y-12722026D01*
X11093549Y-12736077D01*
X11163312Y-12751253D01*
X11235234Y-12767595D01*
X11309393Y-12785147D01*
X11385870Y-12803953D01*
X11464744Y-12824055D01*
X11546095Y-12845496D01*
X26925285Y-11804802D02*
X27601207Y-11924041D01*
X22370566Y-4549928D02*
X20579865Y-4549928D01*
X8886150Y-12459204D02*
X8886150Y-12579855D01*
X8886150Y-12579855D02*
X8886188Y-12581368D01*
X8886301Y-12582862D01*
X8886487Y-12584336D01*
X8886744Y-12585787D01*
X8887070Y-12587214D01*
X8887464Y-12588615D01*
X8887924Y-12589988D01*
X8888449Y-12591331D01*
X8889036Y-12592642D01*
X8889684Y-12593918D01*
X8890391Y-12595159D01*
X8891155Y-12596362D01*
X8891974Y-12597525D01*
X8892848Y-12598647D01*
X8893773Y-12599725D01*
X8894749Y-12600757D01*
X8895774Y-12601741D01*
X8896845Y-12602676D01*
X8897961Y-12603560D01*
X8899121Y-12604391D01*
X8900322Y-12605166D01*
X8901564Y-12605884D01*
X8902843Y-12606542D01*
X8904159Y-12607140D01*
X8905509Y-12607674D01*
X8906892Y-12608144D01*
X8908306Y-12608547D01*
X8909750Y-12608880D01*
X8911221Y-12609143D01*
X8912718Y-12609333D01*
X8914240Y-12609449D01*
X8915784Y-12609488D01*
X14327041Y-6988435D02*
X14327041Y-10628435D01*
X26826151Y-4965500D02*
X22400200Y-4965500D01*
X15644256Y-11228434D02*
X15661796Y-11228009D01*
X20550231Y-4965500D02*
X15762331Y-4965500D01*
X3063200Y-10027861D02*
X2083536Y-10200722D01*
X16769519Y-13538705D02*
X16806641Y-13517273D01*
X16843853Y-13495840D01*
X16881242Y-13474405D01*
X16918898Y-13452965D01*
X16956910Y-13431520D01*
X16995365Y-13410068D01*
X17034355Y-13388608D01*
X17073966Y-13367139D01*
X17114288Y-13345658D01*
X17155411Y-13324166D01*
X17197422Y-13302660D01*
X17240411Y-13281139D01*
X17284466Y-13259602D01*
X17329677Y-13238047D01*
X17376133Y-13216473D01*
X17423921Y-13194879D01*
X17473132Y-13173263D01*
X17523854Y-13151624D01*
X17576176Y-13129960D01*
X17630186Y-13108271D01*
X17685974Y-13086555D01*
X17743629Y-13064810D01*
X17803239Y-13043035D01*
X17864893Y-13021229D01*
X17928681Y-12999391D01*
X17994691Y-12977519D01*
X18063011Y-12955611D01*
X18133732Y-12933667D01*
X18206941Y-12911685D01*
X18282728Y-12889663D01*
X18361182Y-12867601D01*
X18442390Y-12845496D01*
X3163036Y-4965500D02*
X3157877Y-4965630D01*
X3152788Y-4966017D01*
X3147775Y-4966653D01*
X3142844Y-4967533D01*
X3138003Y-4968650D01*
X3133256Y-4969997D01*
X3128610Y-4971570D01*
X3124071Y-4973360D01*
X3119645Y-4975363D01*
X3115338Y-4977571D01*
X3111157Y-4979978D01*
X3107108Y-4982578D01*
X3103196Y-4985365D01*
X3099428Y-4988332D01*
X3095810Y-4991472D01*
X3092348Y-4994781D01*
X3089049Y-4998250D01*
X3085918Y-5001875D01*
X3082961Y-5005648D01*
X3080185Y-5009563D01*
X3077596Y-5013614D01*
X3075200Y-5017795D01*
X3073003Y-5022099D01*
X3071011Y-5026520D01*
X3069230Y-5031051D01*
X3067667Y-5035687D01*
X3066328Y-5040421D01*
X3065218Y-5045246D01*
X3064344Y-5050156D01*
X3063713Y-5055146D01*
X3063329Y-5060208D01*
X3063200Y-5065336D01*
X14227555Y-4965500D02*
X9439655Y-4965500D01*
X2353058Y-11900052D02*
X2353359Y-11901557D01*
X2353729Y-11903027D01*
X2354168Y-11904461D01*
X2354673Y-11905858D01*
X2355242Y-11907216D01*
X2355874Y-11908534D01*
X2356565Y-11909810D01*
X2357314Y-11911044D01*
X2358118Y-11912232D01*
X2358977Y-11913375D01*
X2359887Y-11914471D01*
X2360847Y-11915518D01*
X2361854Y-11916515D01*
X2362907Y-11917460D01*
X2364003Y-11918353D01*
X2365141Y-11919191D01*
X2366318Y-11919973D01*
X2367532Y-11920698D01*
X2368781Y-11921364D01*
X2370063Y-11921970D01*
X2371376Y-11922515D01*
X2372719Y-11922997D01*
X2374088Y-11923414D01*
X2375482Y-11923766D01*
X2376898Y-11924050D01*
X2378336Y-11924266D01*
X2379791Y-11924412D01*
X2381264Y-11924486D01*
X2382751Y-11924488D01*
X2384250Y-11924415D01*
X2385760Y-11924267D01*
X2387278Y-11924041D01*
D11*
X14607756Y-6388435D02*
X15397257Y-6388435D01*
D10*
X26925987Y-10027862D02*
X26925987Y-5065336D01*
X14327390Y-6388435D02*
X14357757Y-6388435D01*
X27601207Y-11924041D02*
X27602725Y-11924267D01*
X27604234Y-11924415D01*
X27605734Y-11924488D01*
X27607221Y-11924486D01*
X27608693Y-11924412D01*
X27610149Y-11924266D01*
X27611586Y-11924050D01*
X27613003Y-11923765D01*
X27614397Y-11923414D01*
X27615766Y-11922996D01*
X27617108Y-11922514D01*
X27618422Y-11921970D01*
X27619704Y-11921363D01*
X27620953Y-11920697D01*
X27622167Y-11919972D01*
X27623344Y-11919190D01*
X27624481Y-11918352D01*
X27625578Y-11917460D01*
X27626630Y-11916515D01*
X27627638Y-11915518D01*
X27628597Y-11914471D01*
X27629508Y-11913375D01*
X27630366Y-11912232D01*
X27631171Y-11911043D01*
X27631920Y-11909810D01*
X27632611Y-11908534D01*
X27633242Y-11907216D01*
X27633811Y-11905858D01*
X27634316Y-11904461D01*
X27634754Y-11903027D01*
X27635125Y-11901557D01*
X27635425Y-11900052D01*
X20579865Y-4549928D02*
X20578353Y-4549967D01*
X20576858Y-4550082D01*
X20575384Y-4550273D01*
X20573933Y-4550536D01*
X20572505Y-4550869D01*
X20571104Y-4551272D01*
X20569731Y-4551741D01*
X20568389Y-4552276D01*
X20567078Y-4552874D01*
X20565801Y-4553532D01*
X20564560Y-4554250D01*
X20563357Y-4555025D01*
X20562194Y-4555856D01*
X20561073Y-4556739D01*
X20559995Y-4557675D01*
X20558963Y-4558659D01*
X20557978Y-4559691D01*
X20557043Y-4560769D01*
X20556159Y-4561891D01*
X20555329Y-4563054D01*
X20554553Y-4564257D01*
X20553836Y-4565497D01*
X20553177Y-4566774D01*
X20552579Y-4568085D01*
X20552045Y-4569428D01*
X20551575Y-4570801D01*
X20551173Y-4572202D01*
X20550839Y-4573629D01*
X20550576Y-4575080D01*
X20550386Y-4576554D01*
X20550270Y-4578048D01*
X20550231Y-4579561D01*
X14025418Y-13970152D02*
X14871026Y-12505771D01*
X2083536Y-10200722D02*
X2082031Y-10201022D01*
X2080561Y-10201393D01*
X2079127Y-10201831D01*
X2077730Y-10202336D01*
X2076372Y-10202906D01*
X2075054Y-10203537D01*
X2073778Y-10204228D01*
X2072545Y-10204977D01*
X2071356Y-10205781D01*
X2070213Y-10206640D01*
X2069117Y-10207550D01*
X2068070Y-10208510D01*
X2067073Y-10209517D01*
X2066128Y-10210570D01*
X2065236Y-10211666D01*
X2064398Y-10212804D01*
X2063616Y-10213981D01*
X2062891Y-10215195D01*
X2062224Y-10216444D01*
X2061618Y-10217727D01*
X2061074Y-10219040D01*
X2060592Y-10220382D01*
X2060174Y-10221751D01*
X2059823Y-10223145D01*
X2059538Y-10224562D01*
X2059322Y-10225999D01*
X2059176Y-10227455D01*
X2059102Y-10228927D01*
X2059100Y-10230414D01*
X2059173Y-10231913D01*
X2059322Y-10233423D01*
X2059547Y-10234941D01*
X2059547Y-10234941D02*
X2353058Y-11900052D01*
X7589688Y-4965500D02*
X3163036Y-4965500D01*
D11*
X14604756Y-10628435D02*
X15394257Y-10628435D01*
D10*
X14327390Y-5065336D02*
X14327260Y-5060177D01*
X14326874Y-5055088D01*
X14326237Y-5050075D01*
X14325358Y-5045144D01*
X14324241Y-5040303D01*
X14322893Y-5035556D01*
X14321320Y-5030910D01*
X14319530Y-5026371D01*
X14317527Y-5021945D01*
X14315319Y-5017638D01*
X14312912Y-5013457D01*
X14310312Y-5009408D01*
X14307526Y-5005496D01*
X14304559Y-5001728D01*
X14301418Y-4998110D01*
X14298110Y-4994648D01*
X14294640Y-4991349D01*
X14291016Y-4988218D01*
X14287243Y-4985261D01*
X14283328Y-4982485D01*
X14279276Y-4979896D01*
X14275096Y-4977500D01*
X14270792Y-4975303D01*
X14266371Y-4973311D01*
X14261839Y-4971530D01*
X14257204Y-4969967D01*
X14252470Y-4968628D01*
X14247645Y-4967518D01*
X14242734Y-4966644D01*
X14237745Y-4966013D01*
X14232683Y-4965629D01*
X14227555Y-4965500D01*
X15662495Y-5065336D02*
X15662495Y-6388435D01*
X13218967Y-13538705D02*
X13247859Y-13555395D01*
X13277015Y-13572237D01*
X13306377Y-13589198D01*
X13335886Y-13606244D01*
X13365485Y-13623340D01*
X13395114Y-13640455D01*
X13424716Y-13657553D01*
X13454232Y-13674601D01*
X13483603Y-13691565D01*
X13512772Y-13708412D01*
X13541681Y-13725108D01*
X13570270Y-13741619D01*
X13598482Y-13757912D01*
X13626257Y-13773952D01*
X13653539Y-13789706D01*
X13680268Y-13805140D01*
X13706387Y-13820221D01*
X13731836Y-13834914D01*
X13756558Y-13849187D01*
X13780494Y-13863005D01*
X13803586Y-13876335D01*
X13825775Y-13889143D01*
X13847004Y-13901395D01*
X13867213Y-13913057D01*
X13886345Y-13924096D01*
X13904341Y-13934478D01*
X13921143Y-13944170D01*
X13936693Y-13953137D01*
X13950932Y-13961346D01*
X13963802Y-13968764D01*
X13975244Y-13975356D01*
X13985201Y-13981088D01*
X15762331Y-4965500D02*
X15757171Y-4965630D01*
X15752082Y-4966017D01*
X15747069Y-4966653D01*
X15742139Y-4967533D01*
X15737297Y-4968650D01*
X15732551Y-4969997D01*
X15727904Y-4971570D01*
X15723365Y-4973360D01*
X15718940Y-4975363D01*
X15714633Y-4977571D01*
X15710452Y-4979978D01*
X15706403Y-4982578D01*
X15702491Y-4985365D01*
X15698723Y-4988332D01*
X15695105Y-4991472D01*
X15691643Y-4994781D01*
X15688344Y-4998250D01*
X15685213Y-5001875D01*
X15682256Y-5005648D01*
X15679480Y-5009563D01*
X15676891Y-5013614D01*
X15674495Y-5017795D01*
X15672298Y-5022099D01*
X15670306Y-5026520D01*
X15668525Y-5031051D01*
X15666962Y-5035687D01*
X15665623Y-5040421D01*
X15664513Y-5045246D01*
X15663640Y-5050156D01*
X15663008Y-5055146D01*
X15662624Y-5060208D01*
X15662495Y-5065336D01*
X3063200Y-5065336D02*
X3063200Y-10027861D01*
X21072701Y-12609488D02*
X21074214Y-12609449D01*
X21075709Y-12609333D01*
X21077183Y-12609143D01*
X21078634Y-12608880D01*
X21080061Y-12608547D01*
X21081462Y-12608144D01*
X21082835Y-12607674D01*
X21084178Y-12607140D01*
X21085489Y-12606542D01*
X21086766Y-12605884D01*
X21088007Y-12605166D01*
X21089210Y-12604391D01*
X21090373Y-12603560D01*
X21091494Y-12602676D01*
X21092572Y-12601741D01*
X21093604Y-12600757D01*
X21094589Y-12599725D01*
X21095524Y-12598647D01*
X21096408Y-12597525D01*
X21097238Y-12596362D01*
X21098013Y-12595159D01*
X21098731Y-12593918D01*
X21099390Y-12592642D01*
X21099987Y-12591331D01*
X21100522Y-12589988D01*
X21100991Y-12588615D01*
X21101394Y-12587214D01*
X21101728Y-12585787D01*
X21101991Y-12584336D01*
X21102181Y-12582862D01*
X21102297Y-12581368D01*
X21102336Y-12579855D01*
X15661796Y-11228009D02*
X15661796Y-12157579D01*
X21102336Y-12459204D02*
X26825449Y-12459204D01*
X3063200Y-12359369D02*
X3063330Y-12364528D01*
X3063716Y-12369617D01*
X3064353Y-12374630D01*
X3065233Y-12379560D01*
X3066349Y-12384402D01*
X3067697Y-12389149D01*
X3069270Y-12393795D01*
X3071060Y-12398334D01*
X3073063Y-12402760D01*
X3075271Y-12407066D01*
X3077678Y-12411248D01*
X3080278Y-12415297D01*
X3083065Y-12419209D01*
X3086031Y-12422977D01*
X3089172Y-12426595D01*
X3092480Y-12430056D01*
X3095950Y-12433356D01*
X3099574Y-12436487D01*
X3103347Y-12439444D01*
X3107263Y-12442220D01*
X3111314Y-12444809D01*
X3115495Y-12447205D01*
X3119799Y-12449402D01*
X3124219Y-12451394D01*
X3128751Y-12453174D01*
X3133387Y-12454737D01*
X3138120Y-12456077D01*
X3142946Y-12457186D01*
X3147856Y-12458060D01*
X3152846Y-12458692D01*
X3157908Y-12459075D01*
X3163036Y-12459204D01*
X11546095Y-12845496D02*
X11627303Y-12867601D01*
X11705757Y-12889663D01*
X11781544Y-12911685D01*
X11854753Y-12933667D01*
X11925474Y-12955611D01*
X11993795Y-12977519D01*
X12059804Y-12999391D01*
X12123592Y-13021229D01*
X12185247Y-13043035D01*
X12244857Y-13064810D01*
X12302511Y-13086555D01*
X12358300Y-13108271D01*
X12412310Y-13129960D01*
X12464632Y-13151624D01*
X12515354Y-13173263D01*
X12564564Y-13194879D01*
X12612353Y-13216473D01*
X12658808Y-13238047D01*
X12704019Y-13259602D01*
X12748075Y-13281139D01*
X12791064Y-13302660D01*
X12833075Y-13324166D01*
X12874198Y-13345659D01*
X12914520Y-13367139D01*
X12954131Y-13388609D01*
X12993121Y-13410069D01*
X13031576Y-13431520D01*
X13069588Y-13452965D01*
X13107244Y-13474405D01*
X13144633Y-13495840D01*
X13181845Y-13517273D01*
X13218967Y-13538705D01*
X13985201Y-13981088D02*
X13986534Y-13981811D01*
X13987889Y-13982458D01*
X13989260Y-13983029D01*
X13990647Y-13983527D01*
X13992047Y-13983951D01*
X13993457Y-13984301D01*
X13994874Y-13984580D01*
X13996297Y-13984787D01*
X13997722Y-13984923D01*
X13999147Y-13984990D01*
X14000569Y-13984986D01*
X14001987Y-13984914D01*
X14003397Y-13984775D01*
X14004798Y-13984568D01*
X14006185Y-13984294D01*
X14007558Y-13983955D01*
X14008913Y-13983550D01*
X14010248Y-13983081D01*
X14011560Y-13982549D01*
X14012848Y-13981953D01*
X14014107Y-13981295D01*
X14015337Y-13980576D01*
X14016533Y-13979795D01*
X14017695Y-13978955D01*
X14018819Y-13978055D01*
X14019902Y-13977097D01*
X14020943Y-13976080D01*
X14021939Y-13975006D01*
X14022887Y-13973876D01*
X14023784Y-13972690D01*
X14024629Y-13971448D01*
X14025418Y-13970152D01*
X14354756Y-11228435D02*
X14326690Y-11228009D01*
X15128396Y-12465554D02*
X15127100Y-12466343D01*
X15125858Y-12467188D01*
X15124672Y-12468085D01*
X15123542Y-12469033D01*
X15122468Y-12470029D01*
X15121451Y-12471069D01*
X15120493Y-12472153D01*
X15119593Y-12473277D01*
X15118752Y-12474438D01*
X15117972Y-12475635D01*
X15117253Y-12476864D01*
X15116595Y-12478124D01*
X15115999Y-12479411D01*
X15115467Y-12480724D01*
X15114998Y-12482059D01*
X15114593Y-12483414D01*
X15114254Y-12484786D01*
X15113980Y-12486174D01*
X15113773Y-12487574D01*
X15113633Y-12488984D01*
X15113562Y-12490402D01*
X15113558Y-12491825D01*
X15113625Y-12493250D01*
X15113761Y-12494675D01*
X15113968Y-12496097D01*
X15114247Y-12497515D01*
X15114597Y-12498925D01*
X15115021Y-12500324D01*
X15115519Y-12501711D01*
X15116090Y-12503083D01*
X15116737Y-12504437D01*
X15117460Y-12505771D01*
X27904948Y-10200722D02*
X27905652Y-10200723D01*
X15662500Y-6988400D02*
X15662500Y-10628435D01*
X26825449Y-12459204D02*
X26830608Y-12459074D01*
X26835697Y-12458688D01*
X26840710Y-12458051D01*
X26845641Y-12457172D01*
X26850482Y-12456055D01*
X26855229Y-12454707D01*
X26859875Y-12453135D01*
X26864414Y-12451344D01*
X26868840Y-12449342D01*
X26873147Y-12447134D01*
X26877328Y-12444726D01*
X26881377Y-12442126D01*
X26885289Y-12439340D01*
X26889057Y-12436373D01*
X26892675Y-12433232D01*
X26896137Y-12429924D01*
X26899437Y-12426454D01*
X26902568Y-12422830D01*
X26905524Y-12419057D01*
X26908300Y-12415142D01*
X26910889Y-12411091D01*
X26913286Y-12406910D01*
X26915483Y-12402606D01*
X26917475Y-12398185D01*
X26919255Y-12393654D01*
X26920818Y-12389018D01*
X26922158Y-12384284D01*
X26923267Y-12379459D01*
X26924141Y-12374549D01*
X26924773Y-12369559D01*
X26925156Y-12364497D01*
X26925285Y-12359369D01*
X27905652Y-10200723D02*
X26925987Y-10027862D01*
X14871026Y-12505771D02*
X14871749Y-12504437D01*
X14872396Y-12503083D01*
X14872967Y-12501712D01*
X14873465Y-12500325D01*
X14873889Y-12498925D01*
X14874239Y-12497515D01*
X14874518Y-12496098D01*
X14874725Y-12494675D01*
X14874861Y-12493250D01*
X14874928Y-12491825D01*
X14874924Y-12490402D01*
X14874852Y-12488985D01*
X14874713Y-12487575D01*
X14874506Y-12486174D01*
X14874232Y-12484787D01*
X14873893Y-12483414D01*
X14873488Y-12482059D01*
X14873019Y-12480724D01*
X14872487Y-12479412D01*
X14871891Y-12478124D01*
X14871233Y-12476865D01*
X14870514Y-12475635D01*
X14869733Y-12474438D01*
X14868893Y-12473277D01*
X14867993Y-12472153D01*
X14867035Y-12471069D01*
X14866018Y-12470029D01*
X14864944Y-12469033D01*
X14863814Y-12468085D01*
X14862628Y-12467188D01*
X14861386Y-12466343D01*
X14860090Y-12465554D01*
X3063200Y-11804802D02*
X3063200Y-12359369D01*
X15963068Y-13970152D02*
X15963857Y-13971448D01*
X15964702Y-13972690D01*
X15965599Y-13973876D01*
X15966547Y-13975006D01*
X15967542Y-13976080D01*
X15968583Y-13977097D01*
X15969667Y-13978055D01*
X15970791Y-13978955D01*
X15971952Y-13979795D01*
X15973149Y-13980576D01*
X15974378Y-13981295D01*
X15975638Y-13981953D01*
X15976925Y-13982549D01*
X15978237Y-13983081D01*
X15979572Y-13983550D01*
X15980928Y-13983955D01*
X15982300Y-13984294D01*
X15983688Y-13984568D01*
X15985088Y-13984775D01*
X15986498Y-13984914D01*
X15987916Y-13984986D01*
X15989339Y-13984990D01*
X15990764Y-13984923D01*
X15992189Y-13984787D01*
X15993611Y-13984580D01*
X15995029Y-13984301D01*
X15996439Y-13983951D01*
X15997838Y-13983527D01*
X15999225Y-13983029D01*
X16000597Y-13982458D01*
X16001951Y-13981811D01*
X16003285Y-13981088D01*
X14357756Y-6988435D02*
X14327041Y-6988435D01*
X22400200Y-4579561D02*
X22400161Y-4578048D01*
X22400045Y-4576554D01*
X22399855Y-4575080D01*
X22399592Y-4573629D01*
X22399258Y-4572201D01*
X22398856Y-4570800D01*
X22398386Y-4569427D01*
X22397852Y-4568085D01*
X22397254Y-4566774D01*
X22396595Y-4565497D01*
X22395878Y-4564256D01*
X22395102Y-4563053D01*
X22394272Y-4561890D01*
X22393388Y-4560769D01*
X22392453Y-4559691D01*
X22391468Y-4558659D01*
X22390436Y-4557674D01*
X22389358Y-4556739D01*
X22388237Y-4555855D01*
X22387074Y-4555025D01*
X22385871Y-4554250D01*
X22384630Y-4553532D01*
X22383353Y-4552873D01*
X22382042Y-4552276D01*
X22380700Y-4551741D01*
X22379327Y-4551272D01*
X22377926Y-4550869D01*
X22376498Y-4550536D01*
X22375047Y-4550273D01*
X22373573Y-4550082D01*
X22372078Y-4549967D01*
X22370566Y-4549928D01*
X20212982Y-12609488D02*
X20248577Y-12609488D01*
X20284091Y-12609488D01*
X20319475Y-12609488D01*
X20354682Y-12609488D01*
X20389663Y-12609488D01*
X20424369Y-12609488D01*
X20458754Y-12609488D01*
X20492768Y-12609488D01*
X20526364Y-12609488D01*
X20559493Y-12609488D01*
X20592107Y-12609488D01*
X20624157Y-12609488D01*
X20655597Y-12609488D01*
X20686377Y-12609488D01*
X20716449Y-12609488D01*
X20745765Y-12609488D01*
X20774277Y-12609488D01*
X20801937Y-12609488D01*
X20828697Y-12609488D01*
X20854507Y-12609488D01*
X20879321Y-12609488D01*
X20903090Y-12609488D01*
X20925766Y-12609488D01*
X20947300Y-12609488D01*
X20967645Y-12609488D01*
X20986752Y-12609488D01*
X21004573Y-12609488D01*
X21021060Y-12609488D01*
X21036164Y-12609488D01*
X21049838Y-12609488D01*
X21062033Y-12609488D01*
X21072701Y-12609488D01*
X9439655Y-4579561D02*
X9439616Y-4578048D01*
X9439500Y-4576554D01*
X9439310Y-4575080D01*
X9439047Y-4573629D01*
X9438713Y-4572201D01*
X9438310Y-4570800D01*
X9437841Y-4569427D01*
X9437306Y-4568085D01*
X9436709Y-4566774D01*
X9436050Y-4565497D01*
X9435332Y-4564256D01*
X9434557Y-4563053D01*
X9433727Y-4561890D01*
X9432843Y-4560769D01*
X9431908Y-4559691D01*
X9430923Y-4558659D01*
X9429891Y-4557674D01*
X9428813Y-4556739D01*
X9427692Y-4555855D01*
X9426529Y-4555025D01*
X9425326Y-4554250D01*
X9424085Y-4553532D01*
X9422808Y-4552873D01*
X9421498Y-4552276D01*
X9420155Y-4551741D01*
X9418782Y-4551272D01*
X9417381Y-4550869D01*
X9415954Y-4550536D01*
X9414502Y-4550273D01*
X9413028Y-4550082D01*
X9411534Y-4549967D01*
X9410021Y-4549928D01*
D11*
X14604756Y-11228434D02*
X15394256Y-11228435D01*
D10*
X26925987Y-5065336D02*
X26925857Y-5060177D01*
X26925471Y-5055088D01*
X26924835Y-5050075D01*
X26923955Y-5045144D01*
X26922838Y-5040303D01*
X26921490Y-5035556D01*
X26919918Y-5030910D01*
X26918127Y-5026371D01*
X26916124Y-5021945D01*
X26913916Y-5017638D01*
X26911509Y-5013457D01*
X26908909Y-5009408D01*
X26906122Y-5005496D01*
X26903156Y-5001728D01*
X26900015Y-4998110D01*
X26896707Y-4994648D01*
X26893237Y-4991349D01*
X26889612Y-4988218D01*
X26885839Y-4985261D01*
X26881924Y-4982485D01*
X26877873Y-4979896D01*
X26873692Y-4977500D01*
X26869388Y-4975303D01*
X26864967Y-4973311D01*
X26860436Y-4971530D01*
X26855800Y-4969967D01*
X26851066Y-4968628D01*
X26846241Y-4967518D01*
X26841331Y-4966644D01*
X26836341Y-4966013D01*
X26831279Y-4965629D01*
X26826151Y-4965500D01*
X22400200Y-4965500D02*
X22400200Y-4579561D01*
D12*
X15494256Y-10728435D02*
X15544256Y-10728435D01*
X15544256Y-11128435D02*
X15494256Y-11128435D01*
X15394256Y-11228435D02*
G75*
G02*
X15494256Y-11128435I100000J0D01*
G01*
X15494256Y-10728435D02*
G75*
G02*
X15394257Y-10628435I0J100000D01*
G01*
X15544256Y-11128435D02*
G75*
G02*
X15644256Y-11228434I0J-100000D01*
G01*
X15644256Y-10628435D02*
G75*
G02*
X15544257Y-10728435I-100000J0D01*
G01*
D13*
X25886300Y-5718700D02*
X25886300Y-5558680D01*
X25954880Y-5490100D02*
X26059020Y-5490100D01*
X26089500Y-5756800D02*
X25924400Y-5756800D01*
X26127600Y-5558680D02*
X26127600Y-5718700D01*
X26457800Y-5876180D02*
X26457800Y-6043820D01*
X26526380Y-5807600D02*
X26694020Y-5807600D01*
X26526380Y-6112400D02*
X26694020Y-6112400D01*
X26762600Y-5876180D02*
X26762600Y-6043820D01*
X25924400Y-5756800D02*
G75*
G02*
X25886300Y-5718700I0J38100D01*
G01*
X25954880Y-5490100D02*
G75*
G02*
X25886300Y-5558680I-43805J-24775D01*
G01*
X26127600Y-5558680D02*
G75*
G02*
X26059020Y-5490100I-24775J43805D01*
G01*
X26127600Y-5718700D02*
G75*
G02*
X26089500Y-5756800I-38100J0D01*
G01*
X26457800Y-6043820D02*
G75*
G02*
X26526380Y-6112400I24775J-43805D01*
G01*
X26526380Y-5807600D02*
G75*
G02*
X26457800Y-5876180I-43805J-24775D01*
G01*
X26694020Y-6112400D02*
G75*
G02*
X26762600Y-6043820I43805J24775D01*
G01*
X26762600Y-5876180D02*
G75*
G02*
X26694020Y-5807600I-24775J43805D01*
G01*
D12*
X14454756Y-10728435D02*
X14504756Y-10728435D01*
X14504756Y-11128435D02*
X14454756Y-11128435D01*
X14354756Y-11228435D02*
G75*
G02*
X14454756Y-11128435I100000J0D01*
G01*
X14454756Y-10728435D02*
G75*
G02*
X14354757Y-10628435I0J100000D01*
G01*
X14504756Y-11128435D02*
G75*
G02*
X14604756Y-11228434I0J-100000D01*
G01*
X14604756Y-10628435D02*
G75*
G02*
X14504757Y-10728435I-100000J0D01*
G01*
X15497256Y-6488435D02*
X15547256Y-6488435D01*
X15547256Y-6888435D02*
X15497256Y-6888435D01*
X15397256Y-6988435D02*
G75*
G02*
X15497256Y-6888435I100000J0D01*
G01*
X15497256Y-6488435D02*
G75*
G02*
X15397257Y-6388435I0J100000D01*
G01*
X15547256Y-6888435D02*
G75*
G02*
X15647256Y-6988434I0J-100000D01*
G01*
X15647256Y-6388435D02*
G75*
G02*
X15547257Y-6488434I-100000J0D01*
G01*
X14457756Y-6488435D02*
X14507756Y-6488435D01*
X14507756Y-6888435D02*
X14457756Y-6888435D01*
X14357756Y-6988435D02*
G75*
G02*
X14457756Y-6888435I100000J0D01*
G01*
X14457756Y-6488435D02*
G75*
G02*
X14357757Y-6388435I0J100000D01*
G01*
X14507756Y-6888435D02*
G75*
G02*
X14607756Y-6988434I0J-100000D01*
G01*
X14607756Y-6388435D02*
G75*
G02*
X14507757Y-6488434I-100000J0D01*
G01*
D13*
X3237400Y-6043820D02*
X3237400Y-5876180D01*
X3473620Y-5807600D02*
X3305980Y-5807600D01*
X3473620Y-6112400D02*
X3305980Y-6112400D01*
X3542200Y-6043820D02*
X3542200Y-5876180D01*
X3872400Y-6361320D02*
X3872400Y-6201300D01*
X3910500Y-6163200D02*
X4075600Y-6163200D01*
X4045120Y-6429900D02*
X3940980Y-6429900D01*
X4113700Y-6201300D02*
X4113700Y-6361320D01*
X3237400Y-6043820D02*
G75*
G02*
X3305980Y-6112400I24775J-43805D01*
G01*
X3305980Y-5807600D02*
G75*
G02*
X3237400Y-5876180I-43805J-24775D01*
G01*
X3473620Y-6112400D02*
G75*
G02*
X3542200Y-6043820I43805J24775D01*
G01*
X3542200Y-5876180D02*
G75*
G02*
X3473620Y-5807600I-24775J43805D01*
G01*
X3872400Y-6201300D02*
G75*
G02*
X3910500Y-6163200I38100J0D01*
G01*
X3872400Y-6361320D02*
G75*
G02*
X3940980Y-6429900I24775J-43805D01*
G01*
X4045120Y-6429900D02*
G75*
G02*
X4113700Y-6361320I43805J24775D01*
G01*
X4075600Y-6163200D02*
G75*
G02*
X4113700Y-6201300I0J-38100D01*
G01*
D14*
D11*
X3450000Y-11481600D02*
X3480000Y-11511600D01*
X3480000Y-11481600D02*
X3450000Y-11511600D01*
X3467600Y-6913500D02*
X3497600Y-6943500D01*
X3497600Y-6913500D02*
X3467600Y-6943500D01*
X3724200Y-6913500D02*
X3754200Y-6943500D01*
X3754200Y-6913500D02*
X3724200Y-6943500D01*
X3800000Y-11040000D02*
X3830000Y-11070000D01*
X3830000Y-11040000D02*
X3800000Y-11070000D01*
X3852756Y-10126435D02*
X3882756Y-10156435D01*
X3882756Y-10126435D02*
X3852756Y-10156435D01*
X3855000Y-10705000D02*
X3885000Y-10735000D01*
X3885000Y-10705000D02*
X3855000Y-10735000D01*
X3860100Y-9954000D02*
X3890100Y-9984000D01*
X3890100Y-9954000D02*
X3860100Y-9984000D01*
X3872500Y-11040000D02*
X3902500Y-11070000D01*
X3902500Y-11040000D02*
X3872500Y-11070000D01*
X3875000Y-10970000D02*
X3905000Y-11000000D01*
X3905000Y-10970000D02*
X3875000Y-11000000D01*
X3945000Y-10967500D02*
X3975000Y-10997500D01*
X3975000Y-10967500D02*
X3945000Y-10997500D01*
X3947300Y-10885700D02*
X3977300Y-10915700D01*
X3977300Y-10885700D02*
X3947300Y-10915700D01*
X3958100Y-6003000D02*
X3988100Y-6033000D01*
X3988100Y-6003000D02*
X3958100Y-6033000D01*
X3975800Y-6913500D02*
X4005800Y-6943500D01*
X4005800Y-6913500D02*
X3975800Y-6943500D01*
X3979100Y-5327600D02*
X4009100Y-5357600D01*
X4009100Y-5327600D02*
X3979100Y-5357600D01*
X4233200Y-5327600D02*
X4263200Y-5357600D01*
X4263200Y-5327600D02*
X4233200Y-5357600D01*
X4233600Y-6913500D02*
X4263600Y-6943500D01*
X4263600Y-6913500D02*
X4233600Y-6943500D01*
X4487300Y-5327600D02*
X4517300Y-5357600D01*
X4517300Y-5327600D02*
X4487300Y-5357600D01*
X4744200Y-5329700D02*
X4774200Y-5359700D01*
X4774200Y-5329700D02*
X4744200Y-5359700D01*
X5167757Y-8343935D02*
X5197757Y-8373935D01*
X5197757Y-8343935D02*
X5167757Y-8373935D01*
X5465257Y-10021435D02*
X5495257Y-10051435D01*
X5495257Y-10021435D02*
X5465257Y-10051435D01*
X5760256Y-11688935D02*
X5790256Y-11718935D01*
X5790256Y-11688935D02*
X5760256Y-11718935D01*
X5762063Y-11810068D02*
X5792063Y-11840068D01*
X5792063Y-11810068D02*
X5762063Y-11840068D01*
X6160900Y-5374000D02*
X6190900Y-5404000D01*
X6190900Y-5374000D02*
X6160900Y-5404000D01*
X6160900Y-5641500D02*
X6190900Y-5671500D01*
X6190900Y-5641500D02*
X6160900Y-5671500D01*
X6507400Y-5122600D02*
X6537400Y-5152600D01*
X6537400Y-5122600D02*
X6507400Y-5152600D01*
X7237756Y-6841435D02*
X7267756Y-6871435D01*
X7267756Y-6841435D02*
X7237756Y-6871435D01*
X7355256Y-8538935D02*
X7385256Y-8568935D01*
X7385256Y-8538935D02*
X7355256Y-8568935D01*
X7455900Y-5371500D02*
X7485900Y-5401500D01*
X7485900Y-5371500D02*
X7455900Y-5401500D01*
X7455900Y-5679000D02*
X7485900Y-5709000D01*
X7485900Y-5679000D02*
X7455900Y-5709000D01*
X7456600Y-5266100D02*
X7486600Y-5296100D01*
X7486600Y-5266100D02*
X7456600Y-5296100D01*
X7475256Y-10233935D02*
X7505256Y-10263935D01*
X7505256Y-10233935D02*
X7475256Y-10263935D01*
X7792500Y-4685000D02*
X7822500Y-4715000D01*
X7822500Y-4685000D02*
X7792500Y-4715000D01*
X9325257Y-5781435D02*
X9355257Y-5811435D01*
X9355257Y-5781435D02*
X9325257Y-5811435D01*
X9325257Y-7481435D02*
X9355257Y-7511435D01*
X9355257Y-7481435D02*
X9325257Y-7511435D01*
X9325257Y-9183935D02*
X9355257Y-9213935D01*
X9355257Y-9183935D02*
X9325257Y-9213935D01*
X9970000Y-5070000D02*
X10000000Y-5100000D01*
X10000000Y-5070000D02*
X9970000Y-5100000D01*
X10300500Y-5940700D02*
X10330500Y-5970700D01*
X10330500Y-5940700D02*
X10300500Y-5970700D01*
X10300500Y-5940700D02*
X10330500Y-5970700D01*
X10330500Y-5940700D02*
X10300500Y-5970700D01*
X10300500Y-5940700D02*
X10330500Y-5970700D01*
X10330500Y-5940700D02*
X10300500Y-5970700D01*
X10620000Y-12095000D02*
X10650000Y-12125000D01*
X10650000Y-12095000D02*
X10620000Y-12125000D01*
X10622817Y-11632183D02*
X10652817Y-11662183D01*
X10652817Y-11632183D02*
X10622817Y-11662183D01*
X11125257Y-6623935D02*
X11155257Y-6653935D01*
X11155257Y-6623935D02*
X11125257Y-6653935D01*
X11125257Y-8323935D02*
X11155257Y-8353935D01*
X11155257Y-8323935D02*
X11125257Y-8353935D01*
X11125257Y-10021435D02*
X11155257Y-10051435D01*
X11155257Y-10021435D02*
X11125257Y-10051435D01*
X11772500Y-5035000D02*
X11802500Y-5065000D01*
X11802500Y-5035000D02*
X11772500Y-5065000D01*
X11868600Y-10519300D02*
X11898600Y-10549300D01*
X11898600Y-10519300D02*
X11868600Y-10549300D01*
X12053000Y-11597000D02*
X12083000Y-11627000D01*
X12083000Y-11597000D02*
X12053000Y-11627000D01*
X12096775Y-11294438D02*
X12126775Y-11324438D01*
X12126775Y-11294438D02*
X12096775Y-11324438D01*
X12278700Y-5119500D02*
X12308700Y-5149500D01*
X12308700Y-5119500D02*
X12278700Y-5149500D01*
X12278700Y-5374800D02*
X12308700Y-5404800D01*
X12308700Y-5374800D02*
X12278700Y-5404800D01*
X12645000Y-6895000D02*
X12675000Y-6925000D01*
X12675000Y-6895000D02*
X12645000Y-6925000D01*
X12645000Y-8592500D02*
X12675000Y-8622500D01*
X12675000Y-8592500D02*
X12645000Y-8622500D01*
X12652500Y-10297500D02*
X12682500Y-10327500D01*
X12682500Y-10297500D02*
X12652500Y-10327500D01*
X12682500Y-12402500D02*
X12712500Y-12432500D01*
X12712500Y-12402500D02*
X12682500Y-12432500D01*
X12707600Y-11652200D02*
X12737600Y-11682200D01*
X12737600Y-11652200D02*
X12707600Y-11682200D01*
X13107900Y-5705000D02*
X13137900Y-5735000D01*
X13137900Y-5705000D02*
X13107900Y-5735000D01*
X13107900Y-5808000D02*
X13137900Y-5838000D01*
X13137900Y-5808000D02*
X13107900Y-5838000D01*
X13255900Y-5705000D02*
X13285900Y-5735000D01*
X13285900Y-5705000D02*
X13255900Y-5735000D01*
X13342500Y-10785000D02*
X13372500Y-10815000D01*
X13372500Y-10785000D02*
X13342500Y-10815000D01*
X13463400Y-10821500D02*
X13493400Y-10851500D01*
X13493400Y-10821500D02*
X13463400Y-10851500D01*
X13464000Y-6704000D02*
X13494000Y-6734000D01*
X13494000Y-6704000D02*
X13464000Y-6734000D01*
X13464000Y-7425000D02*
X13494000Y-7455000D01*
X13494000Y-7425000D02*
X13464000Y-7455000D01*
X13464000Y-8144000D02*
X13494000Y-8174000D01*
X13494000Y-8144000D02*
X13464000Y-8174000D01*
X13464000Y-8863000D02*
X13494000Y-8893000D01*
X13494000Y-8863000D02*
X13464000Y-8893000D01*
X13464000Y-9585000D02*
X13494000Y-9615000D01*
X13494000Y-9585000D02*
X13464000Y-9615000D01*
X13697500Y-10782500D02*
X13727500Y-10812500D01*
X13727500Y-10782500D02*
X13697500Y-10812500D01*
X13708400Y-10956500D02*
X13738400Y-10986500D01*
X13738400Y-10956500D02*
X13708400Y-10986500D01*
X13820900Y-10786500D02*
X13850900Y-10816500D01*
X13850900Y-10786500D02*
X13820900Y-10816500D01*
X13822000Y-6705000D02*
X13852000Y-6735000D01*
X13852000Y-6705000D02*
X13822000Y-6735000D01*
X13822000Y-7425000D02*
X13852000Y-7455000D01*
X13852000Y-7425000D02*
X13822000Y-7455000D01*
X13822000Y-8145000D02*
X13852000Y-8175000D01*
X13852000Y-8145000D02*
X13822000Y-8175000D01*
X13822000Y-8862000D02*
X13852000Y-8892000D01*
X13852000Y-8862000D02*
X13822000Y-8892000D01*
X13822000Y-9582000D02*
X13852000Y-9612000D01*
X13852000Y-9582000D02*
X13822000Y-9612000D01*
X14052500Y-10785000D02*
X14082500Y-10815000D01*
X14082500Y-10785000D02*
X14052500Y-10815000D01*
X14170900Y-10826500D02*
X14200900Y-10856500D01*
X14200900Y-10826500D02*
X14170900Y-10856500D01*
X14171500Y-6703500D02*
X14201500Y-6733500D01*
X14201500Y-6703500D02*
X14171500Y-6733500D01*
X14171500Y-7423500D02*
X14201500Y-7453500D01*
X14201500Y-7423500D02*
X14171500Y-7453500D01*
X14171500Y-8143500D02*
X14201500Y-8173500D01*
X14201500Y-8143500D02*
X14171500Y-8173500D01*
X14171500Y-8861500D02*
X14201500Y-8891500D01*
X14201500Y-8861500D02*
X14171500Y-8891500D01*
X14171500Y-9583500D02*
X14201500Y-9613500D01*
X14201500Y-9583500D02*
X14171500Y-9613500D01*
X14297500Y-13210000D02*
X14327500Y-13240000D01*
X14327500Y-13210000D02*
X14297500Y-13240000D01*
X14474000Y-12541000D02*
X14504000Y-12571000D01*
X14504000Y-12541000D02*
X14474000Y-12571000D01*
X14691900Y-12543000D02*
X14721900Y-12573000D01*
X14721900Y-12543000D02*
X14691900Y-12573000D01*
X15795900Y-10826500D02*
X15825900Y-10856500D01*
X15825900Y-10826500D02*
X15795900Y-10856500D01*
X15796000Y-6703000D02*
X15826000Y-6733000D01*
X15826000Y-6703000D02*
X15796000Y-6733000D01*
X15796000Y-7423000D02*
X15826000Y-7453000D01*
X15826000Y-7423000D02*
X15796000Y-7453000D01*
X15796000Y-8145000D02*
X15826000Y-8175000D01*
X15826000Y-8145000D02*
X15796000Y-8175000D01*
X15796000Y-8865000D02*
X15826000Y-8895000D01*
X15826000Y-8865000D02*
X15796000Y-8895000D01*
X15796000Y-9587000D02*
X15826000Y-9617000D01*
X15826000Y-9587000D02*
X15796000Y-9617000D01*
X15919000Y-10788000D02*
X15949000Y-10818000D01*
X15949000Y-10788000D02*
X15919000Y-10818000D01*
X16041945Y-11572592D02*
X16071945Y-11602592D01*
X16071945Y-11572592D02*
X16041945Y-11602592D01*
X16150900Y-10789000D02*
X16180900Y-10819000D01*
X16180900Y-10789000D02*
X16150900Y-10819000D01*
X16151000Y-6704000D02*
X16181000Y-6734000D01*
X16181000Y-6704000D02*
X16151000Y-6734000D01*
X16151000Y-7425000D02*
X16181000Y-7455000D01*
X16181000Y-7425000D02*
X16151000Y-7455000D01*
X16151000Y-8146000D02*
X16181000Y-8176000D01*
X16181000Y-8146000D02*
X16151000Y-8176000D01*
X16151000Y-8867000D02*
X16181000Y-8897000D01*
X16181000Y-8867000D02*
X16151000Y-8897000D01*
X16151000Y-9586000D02*
X16181000Y-9616000D01*
X16181000Y-9586000D02*
X16151000Y-9616000D01*
X16271000Y-10784000D02*
X16301000Y-10814000D01*
X16301000Y-10784000D02*
X16271000Y-10814000D01*
X16500900Y-10819000D02*
X16530900Y-10849000D01*
X16530900Y-10819000D02*
X16500900Y-10849000D01*
X16502000Y-7423000D02*
X16532000Y-7453000D01*
X16532000Y-7423000D02*
X16502000Y-7453000D01*
X16502000Y-8143000D02*
X16532000Y-8173000D01*
X16532000Y-8143000D02*
X16502000Y-8173000D01*
X16502000Y-8866000D02*
X16532000Y-8896000D01*
X16532000Y-8866000D02*
X16502000Y-8896000D01*
X16502000Y-9584000D02*
X16532000Y-9614000D01*
X16532000Y-9584000D02*
X16502000Y-9614000D01*
X16503000Y-6704000D02*
X16533000Y-6734000D01*
X16533000Y-6704000D02*
X16503000Y-6734000D01*
X16575900Y-10956500D02*
X16605900Y-10986500D01*
X16605900Y-10956500D02*
X16575900Y-10986500D01*
X16590900Y-5846500D02*
X16620900Y-5876500D01*
X16620900Y-5846500D02*
X16590900Y-5876500D01*
X16626000Y-10784000D02*
X16656000Y-10814000D01*
X16656000Y-10784000D02*
X16626000Y-10814000D01*
X16685484Y-5941084D02*
X16715484Y-5971084D01*
X16715484Y-5941084D02*
X16685484Y-5971084D01*
X16938799Y-12881333D02*
X16968799Y-12911333D01*
X16968799Y-12881333D02*
X16938799Y-12911333D01*
X17082212Y-12488633D02*
X17112212Y-12518633D01*
X17112212Y-12488633D02*
X17082212Y-12518633D01*
X17183400Y-11774000D02*
X17213400Y-11804000D01*
X17213400Y-11774000D02*
X17183400Y-11804000D01*
X17546410Y-5722214D02*
X17576410Y-5752214D01*
X17576410Y-5722214D02*
X17546410Y-5752214D01*
X17859976Y-11205950D02*
X17889976Y-11235950D01*
X17889976Y-11205950D02*
X17859976Y-11235950D01*
X17924000Y-5564300D02*
X17954000Y-5594300D01*
X17954000Y-5564300D02*
X17924000Y-5594300D01*
X18156000Y-5615000D02*
X18186000Y-5645000D01*
X18186000Y-5615000D02*
X18156000Y-5645000D01*
X18305358Y-5677968D02*
X18335358Y-5707968D01*
X18335358Y-5677968D02*
X18305358Y-5707968D01*
X18687757Y-6897435D02*
X18717757Y-6927435D01*
X18717757Y-6897435D02*
X18687757Y-6927435D01*
X18687757Y-8606435D02*
X18717757Y-8636435D01*
X18717757Y-8606435D02*
X18687757Y-8636435D01*
X18687757Y-10308435D02*
X18717757Y-10338435D01*
X18717757Y-10308435D02*
X18687757Y-10338435D01*
X18874470Y-12384769D02*
X18904470Y-12414769D01*
X18904470Y-12384769D02*
X18874470Y-12414769D01*
X19333112Y-5118348D02*
X19363112Y-5148348D01*
X19363112Y-5118348D02*
X19333112Y-5148348D01*
X19449658Y-10233098D02*
X19479658Y-10263098D01*
X19479658Y-10233098D02*
X19449658Y-10263098D01*
X19453555Y-6844995D02*
X19483555Y-6874995D01*
X19483555Y-6844995D02*
X19453555Y-6874995D01*
X19454482Y-8540293D02*
X19484482Y-8570293D01*
X19484482Y-8540293D02*
X19454482Y-8570293D01*
X20487757Y-6634435D02*
X20517757Y-6664435D01*
X20517757Y-6634435D02*
X20487757Y-6664435D01*
X20487757Y-8334435D02*
X20517757Y-8364435D01*
X20517757Y-8334435D02*
X20487757Y-8364435D01*
X20487757Y-10034435D02*
X20517757Y-10064435D01*
X20517757Y-10034435D02*
X20487757Y-10064435D01*
X20942546Y-4688878D02*
X20972546Y-4718878D01*
X20972546Y-4688878D02*
X20942546Y-4718878D01*
X20989451Y-12007889D02*
X21019451Y-12037889D01*
X21019451Y-12007889D02*
X20989451Y-12037889D01*
X22276000Y-9164000D02*
X22306000Y-9194000D01*
X22306000Y-9164000D02*
X22276000Y-9194000D01*
X22287757Y-5784435D02*
X22317757Y-5814435D01*
X22317757Y-5784435D02*
X22287757Y-5814435D01*
X22287757Y-7484435D02*
X22317757Y-7514435D01*
X22317757Y-7484435D02*
X22287757Y-7514435D01*
X22793996Y-5388265D02*
X22823996Y-5418265D01*
X22823996Y-5388265D02*
X22793996Y-5418265D01*
X22809485Y-5716924D02*
X22839485Y-5746924D01*
X22839485Y-5716924D02*
X22809485Y-5746924D01*
X23330900Y-5429000D02*
X23360900Y-5459000D01*
X23360900Y-5429000D02*
X23330900Y-5459000D01*
X23450500Y-10415300D02*
X23480500Y-10445300D01*
X23480500Y-10415300D02*
X23450500Y-10445300D01*
X23488800Y-5121800D02*
X23518800Y-5151800D01*
X23518800Y-5121800D02*
X23488800Y-5151800D01*
X24127756Y-10164435D02*
X24157756Y-10194435D01*
X24157756Y-10164435D02*
X24127756Y-10194435D01*
X24227756Y-8474435D02*
X24257756Y-8504435D01*
X24257756Y-8474435D02*
X24227756Y-8504435D01*
X24357756Y-6774435D02*
X24387756Y-6804435D01*
X24387756Y-6774435D02*
X24357756Y-6804435D01*
X24687300Y-10164100D02*
X24717300Y-10194100D01*
X24717300Y-10164100D02*
X24687300Y-10194100D01*
X24780900Y-5436500D02*
X24810900Y-5466500D01*
X24810900Y-5436500D02*
X24780900Y-5466500D01*
X24901100Y-5142200D02*
X24931100Y-5172200D01*
X24931100Y-5142200D02*
X24901100Y-5172200D01*
X25001000Y-5301000D02*
X25031000Y-5331000D01*
X25031000Y-5301000D02*
X25001000Y-5331000D01*
X25231600Y-6563100D02*
X25261600Y-6593100D01*
X25261600Y-6563100D02*
X25231600Y-6593100D01*
X25485150Y-6563100D02*
X25515150Y-6593100D01*
X25515150Y-6563100D02*
X25485150Y-6593100D01*
X25738700Y-6563100D02*
X25768700Y-6593100D01*
X25768700Y-6563100D02*
X25738700Y-6593100D01*
X25827756Y-11614435D02*
X25857756Y-11644435D01*
X25857756Y-11614435D02*
X25827756Y-11644435D01*
X25992200Y-6564900D02*
X26022200Y-6594900D01*
X26022200Y-6564900D02*
X25992200Y-6594900D01*
X26128000Y-9606000D02*
X26158000Y-9636000D01*
X26158000Y-9606000D02*
X26128000Y-9636000D01*
X26298692Y-11389351D02*
X26328692Y-11419351D01*
X26328692Y-11389351D02*
X26298692Y-11419351D01*
X26417756Y-8274435D02*
X26447756Y-8304435D01*
X26447756Y-8274435D02*
X26417756Y-8304435D01*
X26432500Y-9937500D02*
X26462500Y-9967500D01*
X26462500Y-9937500D02*
X26432500Y-9967500D01*
X26672000Y-9550000D02*
X26702000Y-9580000D01*
X26702000Y-9550000D02*
X26672000Y-9580000D01*
X26676836Y-9693846D02*
X26706836Y-9723846D01*
X26706836Y-9693846D02*
X26676836Y-9723846D01*
X26774501Y-9687787D02*
X26804501Y-9717787D01*
X26804501Y-9687787D02*
X26774501Y-9717787D01*
X26825954Y-9616023D02*
X26855954Y-9646023D01*
X26855954Y-9616023D02*
X26825954Y-9646023D01*
X26916293Y-10584425D02*
X26946293Y-10614425D01*
X26946293Y-10584425D02*
X26916293Y-10614425D01*
X27647756Y-11174435D02*
X27677756Y-11204435D01*
X27677756Y-11174435D02*
X27647756Y-11204435D01*
X13780400Y-5528000D02*
G75*
G02*
X13720400Y-5528000I-30000J0D01*
G01*
X13720400Y-5528000D02*
G75*
G02*
X13780400Y-5528000I30000J0D01*
G01*
X13695400Y-5558000D02*
X13805400Y-5558000D01*
X13805400Y-5498000D02*
G75*
G02*
X13805400Y-5558000I0J-30000D01*
G01*
X13805400Y-5498000D02*
X13695400Y-5498000D01*
X13695400Y-5498000D02*
G75*
G03*
X13695400Y-5558000I0J-30000D01*
G01*
X13780400Y-6392000D02*
G75*
G02*
X13720400Y-6392000I-30000J0D01*
G01*
X13720400Y-6392000D02*
G75*
G02*
X13780400Y-6392000I30000J0D01*
G01*
X13695400Y-6422000D02*
X13805400Y-6422000D01*
X13805400Y-6362000D02*
G75*
G02*
X13805400Y-6422000I0J-30000D01*
G01*
X13805400Y-6362000D02*
X13695400Y-6362000D01*
X13695400Y-6362000D02*
G75*
G03*
X13695400Y-6422000I0J-30000D01*
G01*
X14198400Y-5528000D02*
G75*
G02*
X14138400Y-5528000I-30000J0D01*
G01*
X14138400Y-5528000D02*
G75*
G02*
X14198400Y-5528000I30000J0D01*
G01*
X14128400Y-5558000D02*
X14208400Y-5558000D01*
X14208400Y-5498000D02*
G75*
G02*
X14208400Y-5558000I0J-30000D01*
G01*
X14208400Y-5498000D02*
X14128400Y-5498000D01*
X14128400Y-5498000D02*
G75*
G03*
X14128400Y-5558000I0J-30000D01*
G01*
X14198400Y-6392000D02*
G75*
G02*
X14138400Y-6392000I-30000J0D01*
G01*
X14138400Y-6392000D02*
G75*
G02*
X14198400Y-6392000I30000J0D01*
G01*
X14128400Y-6422000D02*
X14208400Y-6422000D01*
X14208400Y-6362000D02*
G75*
G02*
X14208400Y-6422000I0J-30000D01*
G01*
X14208400Y-6362000D02*
X14128400Y-6362000D01*
X14128400Y-6362000D02*
G75*
G03*
X14128400Y-6422000I0J-30000D01*
G01*
X15851900Y-5528000D02*
G75*
G02*
X15791900Y-5528000I-30000J0D01*
G01*
X15791900Y-5528000D02*
G75*
G02*
X15851900Y-5528000I30000J0D01*
G01*
X15861900Y-5498000D02*
X15781900Y-5498000D01*
X15781900Y-5558000D02*
G75*
G02*
X15781900Y-5498000I0J30000D01*
G01*
X15781900Y-5558000D02*
X15861900Y-5558000D01*
X15861900Y-5558000D02*
G75*
G03*
X15861900Y-5498000I0J30000D01*
G01*
X15851900Y-6392000D02*
G75*
G02*
X15791900Y-6392000I-30000J0D01*
G01*
X15791900Y-6392000D02*
G75*
G02*
X15851900Y-6392000I30000J0D01*
G01*
X15861900Y-6362000D02*
X15781900Y-6362000D01*
X15781900Y-6422000D02*
G75*
G02*
X15781900Y-6362000I0J30000D01*
G01*
X15781900Y-6422000D02*
X15861900Y-6422000D01*
X15861900Y-6422000D02*
G75*
G03*
X15861900Y-6362000I0J30000D01*
G01*
X16269900Y-5528000D02*
G75*
G02*
X16209900Y-5528000I-30000J0D01*
G01*
X16209900Y-5528000D02*
G75*
G02*
X16269900Y-5528000I30000J0D01*
G01*
X16294900Y-5498000D02*
X16184900Y-5498000D01*
X16184900Y-5558000D02*
G75*
G02*
X16184900Y-5498000I0J30000D01*
G01*
X16184900Y-5558000D02*
X16294900Y-5558000D01*
X16294900Y-5558000D02*
G75*
G03*
X16294900Y-5498000I0J30000D01*
G01*
X16269900Y-6392000D02*
G75*
G02*
X16209900Y-6392000I-30000J0D01*
G01*
X16209900Y-6392000D02*
G75*
G02*
X16269900Y-6392000I30000J0D01*
G01*
X16294900Y-6362000D02*
X16184900Y-6362000D01*
X16184900Y-6422000D02*
G75*
G02*
X16184900Y-6362000I0J30000D01*
G01*
X16184900Y-6422000D02*
X16294900Y-6422000D01*
X16294900Y-6422000D02*
G75*
G03*
X16294900Y-6362000I0J30000D01*
G01*
X3358000Y-5148000D02*
X3358000Y-5248000D01*
X3308000Y-5198000D02*
X3408000Y-5198000D01*
X3358000Y-6672000D02*
X3358000Y-6772000D01*
X3308000Y-6722000D02*
X3408000Y-6722000D01*
X3612000Y-5148000D02*
X3612000Y-5248000D01*
X3562000Y-5198000D02*
X3662000Y-5198000D01*
X3612000Y-6672000D02*
X3612000Y-6772000D01*
X3562000Y-6722000D02*
X3662000Y-6722000D01*
X3866000Y-5148000D02*
X3866000Y-5248000D01*
X3816000Y-5198000D02*
X3916000Y-5198000D01*
X3866000Y-6672000D02*
X3866000Y-6772000D01*
X3816000Y-6722000D02*
X3916000Y-6722000D01*
X4120000Y-5148000D02*
X4120000Y-5248000D01*
X4070000Y-5198000D02*
X4170000Y-5198000D01*
X4120000Y-6672000D02*
X4120000Y-6772000D01*
X4070000Y-6722000D02*
X4170000Y-6722000D01*
X4374000Y-5148000D02*
X4374000Y-5248000D01*
X4324000Y-5198000D02*
X4424000Y-5198000D01*
X4374000Y-6672000D02*
X4374000Y-6772000D01*
X4324000Y-6722000D02*
X4424000Y-6722000D01*
X4628000Y-5148000D02*
X4628000Y-5248000D01*
X4578000Y-5198000D02*
X4678000Y-5198000D01*
X4628000Y-6672000D02*
X4628000Y-6772000D01*
X4578000Y-6722000D02*
X4678000Y-6722000D01*
X4882000Y-5148000D02*
X4882000Y-5248000D01*
X4832000Y-5198000D02*
X4932000Y-5198000D01*
X4882000Y-6672000D02*
X4882000Y-6772000D01*
X4832000Y-6722000D02*
X4932000Y-6722000D01*
X12050000Y-5085000D02*
X12050000Y-5185000D01*
X12000000Y-5135000D02*
X12100000Y-5135000D01*
X12550000Y-5085000D02*
X12550000Y-5185000D01*
X12500000Y-5135000D02*
X12600000Y-5135000D01*
X17450000Y-5085000D02*
X17450000Y-5185000D01*
X17400000Y-5135000D02*
X17500000Y-5135000D01*
X17950000Y-5085000D02*
X17950000Y-5185000D01*
X17900000Y-5135000D02*
X18000000Y-5135000D01*
X25118000Y-5148000D02*
X25118000Y-5248000D01*
X25068000Y-5198000D02*
X25168000Y-5198000D01*
X25118000Y-6672000D02*
X25118000Y-6772000D01*
X25068000Y-6722000D02*
X25168000Y-6722000D01*
X25372000Y-5148000D02*
X25372000Y-5248000D01*
X25322000Y-5198000D02*
X25422000Y-5198000D01*
X25372000Y-6672000D02*
X25372000Y-6772000D01*
X25322000Y-6722000D02*
X25422000Y-6722000D01*
X25626000Y-5148000D02*
X25626000Y-5248000D01*
X25576000Y-5198000D02*
X25676000Y-5198000D01*
X25626000Y-6672000D02*
X25626000Y-6772000D01*
X25576000Y-6722000D02*
X25676000Y-6722000D01*
X25880000Y-5148000D02*
X25880000Y-5248000D01*
X25830000Y-5198000D02*
X25930000Y-5198000D01*
X25880000Y-6672000D02*
X25880000Y-6772000D01*
X25830000Y-6722000D02*
X25930000Y-6722000D01*
X26134000Y-5148000D02*
X26134000Y-5248000D01*
X26084000Y-5198000D02*
X26184000Y-5198000D01*
X26134000Y-6672000D02*
X26134000Y-6772000D01*
X26084000Y-6722000D02*
X26184000Y-6722000D01*
X26388000Y-5148000D02*
X26388000Y-5248000D01*
X26338000Y-5198000D02*
X26438000Y-5198000D01*
X26388000Y-6672000D02*
X26388000Y-6772000D01*
X26338000Y-6722000D02*
X26438000Y-6722000D01*
X26642000Y-5148000D02*
X26642000Y-5248000D01*
X26592000Y-5198000D02*
X26692000Y-5198000D01*
X26642000Y-6672000D02*
X26642000Y-6772000D01*
X26592000Y-6722000D02*
X26692000Y-6722000D01*
D15*
X3298721Y-5868921D02*
X3298721Y-5797079D01*
X3226879Y-5797079D01*
X3226879Y-5868921D01*
X3298721Y-5868921D01*
X3298721Y-6122921D02*
X3298721Y-6051079D01*
X3226879Y-6051079D01*
X3226879Y-6122921D01*
X3298721Y-6122921D01*
X3552721Y-5868921D02*
X3552721Y-5797079D01*
X3480879Y-5797079D01*
X3480879Y-5868921D01*
X3552721Y-5868921D01*
X3552721Y-6122921D02*
X3552721Y-6051079D01*
X3480879Y-6051079D01*
X3480879Y-6122921D01*
X3552721Y-6122921D01*
X3933721Y-6440421D02*
X3933721Y-6368579D01*
X3861879Y-6368579D01*
X3861879Y-6440421D01*
X3933721Y-6440421D01*
X4124221Y-6440421D02*
X4124221Y-6368579D01*
X4052379Y-6368579D01*
X4052379Y-6440421D01*
X4124221Y-6440421D01*
X25947621Y-5551421D02*
X25947621Y-5479579D01*
X25875779Y-5479579D01*
X25875779Y-5551421D01*
X25947621Y-5551421D01*
X26138121Y-5551421D02*
X26138121Y-5479579D01*
X26066279Y-5479579D01*
X26066279Y-5551421D01*
X26138121Y-5551421D01*
X26519121Y-5868921D02*
X26519121Y-5797079D01*
X26447279Y-5797079D01*
X26447279Y-5868921D01*
X26519121Y-5868921D01*
X26519121Y-6122921D02*
X26519121Y-6051079D01*
X26447279Y-6051079D01*
X26447279Y-6122921D01*
X26519121Y-6122921D01*
X26773121Y-5868921D02*
X26773121Y-5797079D01*
X26701279Y-5797079D01*
X26701279Y-5868921D01*
X26773121Y-5868921D01*
X26773121Y-6122921D02*
X26773121Y-6051079D01*
X26701279Y-6051079D01*
X26701279Y-6122921D01*
X26773121Y-6122921D01*
D16*
X8700000Y-9962500D02*
X8762500Y-9900000D01*
X8700000Y-9837500D01*
X8637500Y-9900000D01*
X8700000Y-9962500D01*
X9200000Y-9962500D02*
X9262500Y-9900000D01*
X9200000Y-9837500D01*
X9137500Y-9900000D01*
X9200000Y-9962500D01*
X20800000Y-9962500D02*
X20862500Y-9900000D01*
X20800000Y-9837500D01*
X20737500Y-9900000D01*
X20800000Y-9962500D01*
X21300000Y-9962500D02*
X21362500Y-9900000D01*
X21300000Y-9837500D01*
X21237500Y-9900000D01*
X21300000Y-9962500D01*
D17*
X2625339Y-11306486D02*
X2752339Y-11433486D01*
X2752339Y-11306486D02*
X2625339Y-11433486D01*
X2752339Y-11369986D02*
G75*
G02*
X2625339Y-11369986I-63500J0D01*
G01*
X2625339Y-11369986D02*
G75*
G02*
X2752339Y-11369986I63500J0D01*
G01*
X3154209Y-11426471D02*
X3281209Y-11553471D01*
X3281209Y-11426471D02*
X3154209Y-11553471D01*
X3281209Y-11489971D02*
G75*
G02*
X3154209Y-11489971I-63500J0D01*
G01*
X3154209Y-11489971D02*
G75*
G02*
X3281209Y-11489971I63500J0D01*
G01*
X3945133Y-8397291D02*
X4072133Y-8524291D01*
X4072133Y-8397291D02*
X3945133Y-8524291D01*
X4072133Y-8460791D02*
G75*
G02*
X3945133Y-8460791I-63500J0D01*
G01*
X3945133Y-8460791D02*
G75*
G02*
X4072133Y-8460791I63500J0D01*
G01*
X4240339Y-10071486D02*
X4367339Y-10198486D01*
X4367339Y-10071486D02*
X4240339Y-10198486D01*
X4367339Y-10134986D02*
G75*
G02*
X4240339Y-10134986I-63500J0D01*
G01*
X4240339Y-10134986D02*
G75*
G02*
X4367339Y-10134986I63500J0D01*
G01*
X4474003Y-8517277D02*
X4601003Y-8644277D01*
X4601003Y-8517277D02*
X4474003Y-8644277D01*
X4601003Y-8580777D02*
G75*
G02*
X4474003Y-8580777I-63500J0D01*
G01*
X4474003Y-8580777D02*
G75*
G02*
X4601003Y-8580777I63500J0D01*
G01*
X4535545Y-11745681D02*
X4662545Y-11872681D01*
X4662545Y-11745681D02*
X4535545Y-11872681D01*
X4662545Y-11809181D02*
G75*
G02*
X4535545Y-11809181I-63500J0D01*
G01*
X4535545Y-11809181D02*
G75*
G02*
X4662545Y-11809181I63500J0D01*
G01*
X4769209Y-10191471D02*
X4896209Y-10318471D01*
X4896209Y-10191471D02*
X4769209Y-10318471D01*
X4896209Y-10254971D02*
G75*
G02*
X4769209Y-10254971I-63500J0D01*
G01*
X4769209Y-10254971D02*
G75*
G02*
X4896209Y-10254971I63500J0D01*
G01*
X5064415Y-11865666D02*
X5191415Y-11992666D01*
X5191415Y-11865666D02*
X5064415Y-11992666D01*
X5191415Y-11929166D02*
G75*
G02*
X5064415Y-11929166I-63500J0D01*
G01*
X5064415Y-11929166D02*
G75*
G02*
X5191415Y-11929166I63500J0D01*
G01*
X5917307Y-6795126D02*
X6044307Y-6922126D01*
X6044307Y-6795126D02*
X5917307Y-6922126D01*
X6044307Y-6858626D02*
G75*
G02*
X5917307Y-6858626I-63500J0D01*
G01*
X5917307Y-6858626D02*
G75*
G02*
X6044307Y-6858626I63500J0D01*
G01*
X6035894Y-8491007D02*
X6162894Y-8618007D01*
X6162894Y-8491007D02*
X6035894Y-8618007D01*
X6162894Y-8554507D02*
G75*
G02*
X6035894Y-8554507I-63500J0D01*
G01*
X6035894Y-8554507D02*
G75*
G02*
X6162894Y-8554507I63500J0D01*
G01*
X6154482Y-10186887D02*
X6281482Y-10313887D01*
X6281482Y-10186887D02*
X6154482Y-10313887D01*
X6281482Y-10250387D02*
G75*
G02*
X6154482Y-10250387I-63500J0D01*
G01*
X6154482Y-10250387D02*
G75*
G02*
X6281482Y-10250387I63500J0D01*
G01*
X6430738Y-6969736D02*
X6557738Y-7096736D01*
X6557738Y-6969736D02*
X6430738Y-7096736D01*
X6557738Y-7033236D02*
G75*
G02*
X6430738Y-7033236I-63500J0D01*
G01*
X6430738Y-7033236D02*
G75*
G02*
X6557738Y-7033236I63500J0D01*
G01*
X6549325Y-8665617D02*
X6676325Y-8792617D01*
X6676325Y-8665617D02*
X6549325Y-8792617D01*
X6676325Y-8729117D02*
G75*
G02*
X6549325Y-8729117I-63500J0D01*
G01*
X6549325Y-8729117D02*
G75*
G02*
X6676325Y-8729117I63500J0D01*
G01*
X6667913Y-10361498D02*
X6794913Y-10488498D01*
X6794913Y-10361498D02*
X6667913Y-10488498D01*
X6794913Y-10424998D02*
G75*
G02*
X6667913Y-10424998I-63500J0D01*
G01*
X6667913Y-10424998D02*
G75*
G02*
X6794913Y-10424998I63500J0D01*
G01*
X7949423Y-5733297D02*
X8076423Y-5860297D01*
X8076423Y-5733297D02*
X7949423Y-5860297D01*
X8076423Y-5796797D02*
G75*
G02*
X7949423Y-5796797I-63500J0D01*
G01*
X7949423Y-5796797D02*
G75*
G02*
X8076423Y-5796797I63500J0D01*
G01*
X7949423Y-7433319D02*
X8076423Y-7560319D01*
X8076423Y-7433319D02*
X7949423Y-7560319D01*
X8076423Y-7496819D02*
G75*
G02*
X7949423Y-7496819I-63500J0D01*
G01*
X7949423Y-7496819D02*
G75*
G02*
X8076423Y-7496819I63500J0D01*
G01*
X7949423Y-9133341D02*
X8076423Y-9260341D01*
X8076423Y-9133341D02*
X7949423Y-9260341D01*
X8076423Y-9196841D02*
G75*
G02*
X7949423Y-9196841I-63500J0D01*
G01*
X7949423Y-9196841D02*
G75*
G02*
X8076423Y-9196841I63500J0D01*
G01*
X8449423Y-5943297D02*
X8576423Y-6070297D01*
X8576423Y-5943297D02*
X8449423Y-6070297D01*
X8576423Y-6006797D02*
G75*
G02*
X8449423Y-6006797I-63500J0D01*
G01*
X8449423Y-6006797D02*
G75*
G02*
X8576423Y-6006797I63500J0D01*
G01*
X8449423Y-7643319D02*
X8576423Y-7770319D01*
X8576423Y-7643319D02*
X8449423Y-7770319D01*
X8576423Y-7706819D02*
G75*
G02*
X8449423Y-7706819I-63500J0D01*
G01*
X8449423Y-7706819D02*
G75*
G02*
X8576423Y-7706819I63500J0D01*
G01*
X8449423Y-9343341D02*
X8576423Y-9470341D01*
X8576423Y-9343341D02*
X8449423Y-9470341D01*
X8576423Y-9406841D02*
G75*
G02*
X8449423Y-9406841I-63500J0D01*
G01*
X8449423Y-9406841D02*
G75*
G02*
X8576423Y-9406841I63500J0D01*
G01*
X9246817Y-12047935D02*
X9373817Y-12174935D01*
X9373817Y-12047935D02*
X9246817Y-12174935D01*
X9373817Y-12111435D02*
G75*
G02*
X9246817Y-12111435I-63500J0D01*
G01*
X9246817Y-12111435D02*
G75*
G02*
X9373817Y-12111435I63500J0D01*
G01*
X9746817Y-12257935D02*
X9873817Y-12384935D01*
X9873817Y-12257935D02*
X9746817Y-12384935D01*
X9873817Y-12321435D02*
G75*
G02*
X9746817Y-12321435I-63500J0D01*
G01*
X9746817Y-12321435D02*
G75*
G02*
X9873817Y-12321435I63500J0D01*
G01*
X9749424Y-6576945D02*
X9876424Y-6703945D01*
X9876424Y-6576945D02*
X9749424Y-6703945D01*
X9876424Y-6640445D02*
G75*
G02*
X9749424Y-6640445I-63500J0D01*
G01*
X9749424Y-6640445D02*
G75*
G02*
X9876424Y-6640445I63500J0D01*
G01*
X9749424Y-8276967D02*
X9876424Y-8403967D01*
X9876424Y-8276967D02*
X9749424Y-8403967D01*
X9876424Y-8340467D02*
G75*
G02*
X9749424Y-8340467I-63500J0D01*
G01*
X9749424Y-8340467D02*
G75*
G02*
X9876424Y-8340467I63500J0D01*
G01*
X9749424Y-9976989D02*
X9876424Y-10103989D01*
X9876424Y-9976989D02*
X9749424Y-10103989D01*
X9876424Y-10040489D02*
G75*
G02*
X9749424Y-10040489I-63500J0D01*
G01*
X9749424Y-10040489D02*
G75*
G02*
X9876424Y-10040489I63500J0D01*
G01*
X10249424Y-6786945D02*
X10376424Y-6913945D01*
X10376424Y-6786945D02*
X10249424Y-6913945D01*
X10376424Y-6850445D02*
G75*
G02*
X10249424Y-6850445I-63500J0D01*
G01*
X10249424Y-6850445D02*
G75*
G02*
X10376424Y-6850445I63500J0D01*
G01*
X10249424Y-8486967D02*
X10376424Y-8613967D01*
X10376424Y-8486967D02*
X10249424Y-8613967D01*
X10376424Y-8550467D02*
G75*
G02*
X10249424Y-8550467I-63500J0D01*
G01*
X10249424Y-8550467D02*
G75*
G02*
X10376424Y-8550467I63500J0D01*
G01*
X10249424Y-10186989D02*
X10376424Y-10313989D01*
X10376424Y-10186989D02*
X10249424Y-10313989D01*
X10376424Y-10250489D02*
G75*
G02*
X10249424Y-10250489I-63500J0D01*
G01*
X10249424Y-10250489D02*
G75*
G02*
X10376424Y-10250489I63500J0D01*
G01*
X11157942Y-12183077D02*
X11284942Y-12310077D01*
X11284942Y-12183077D02*
X11157942Y-12310077D01*
X11284942Y-12246577D02*
G75*
G02*
X11157942Y-12246577I-63500J0D01*
G01*
X11157942Y-12246577D02*
G75*
G02*
X11284942Y-12246577I63500J0D01*
G01*
X11549420Y-6848955D02*
X11676420Y-6975955D01*
X11676420Y-6848955D02*
X11549420Y-6975955D01*
X11676420Y-6912455D02*
G75*
G02*
X11549420Y-6912455I-63500J0D01*
G01*
X11549420Y-6912455D02*
G75*
G02*
X11676420Y-6912455I63500J0D01*
G01*
X11549420Y-8548977D02*
X11676420Y-8675977D01*
X11676420Y-8548977D02*
X11549420Y-8675977D01*
X11676420Y-8612477D02*
G75*
G02*
X11549420Y-8612477I-63500J0D01*
G01*
X11549420Y-8612477D02*
G75*
G02*
X11676420Y-8612477I63500J0D01*
G01*
X11549420Y-10248999D02*
X11676420Y-10375999D01*
X11676420Y-10248999D02*
X11549420Y-10375999D01*
X11676420Y-10312499D02*
G75*
G02*
X11549420Y-10312499I-63500J0D01*
G01*
X11549420Y-10312499D02*
G75*
G02*
X11676420Y-10312499I63500J0D01*
G01*
X11586553Y-12515331D02*
X11713553Y-12642331D01*
X11713553Y-12515331D02*
X11586553Y-12642331D01*
X11713553Y-12578831D02*
G75*
G02*
X11586553Y-12578831I-63500J0D01*
G01*
X11586553Y-12578831D02*
G75*
G02*
X11713553Y-12578831I63500J0D01*
G01*
X12049420Y-7058955D02*
X12176420Y-7185955D01*
X12176420Y-7058955D02*
X12049420Y-7185955D01*
X12176420Y-7122455D02*
G75*
G02*
X12049420Y-7122455I-63500J0D01*
G01*
X12049420Y-7122455D02*
G75*
G02*
X12176420Y-7122455I63500J0D01*
G01*
X12049420Y-8758977D02*
X12176420Y-8885977D01*
X12176420Y-8758977D02*
X12049420Y-8885977D01*
X12176420Y-8822477D02*
G75*
G02*
X12049420Y-8822477I-63500J0D01*
G01*
X12049420Y-8822477D02*
G75*
G02*
X12176420Y-8822477I63500J0D01*
G01*
X12049420Y-10458999D02*
X12176420Y-10585999D01*
X12176420Y-10458999D02*
X12049420Y-10585999D01*
X12176420Y-10522499D02*
G75*
G02*
X12049420Y-10522499I-63500J0D01*
G01*
X12049420Y-10522499D02*
G75*
G02*
X12176420Y-10522499I63500J0D01*
G01*
X12961244Y-12792024D02*
X13088244Y-12919024D01*
X13088244Y-12792024D02*
X12961244Y-12919024D01*
X13088244Y-12855524D02*
G75*
G02*
X12961244Y-12855524I-63500J0D01*
G01*
X12961244Y-12855524D02*
G75*
G02*
X13088244Y-12855524I63500J0D01*
G01*
X13289256Y-13223890D02*
X13416256Y-13350890D01*
X13416256Y-13223890D02*
X13289256Y-13350890D01*
X13416256Y-13287390D02*
G75*
G02*
X13289256Y-13287390I-63500J0D01*
G01*
X13289256Y-13287390D02*
G75*
G02*
X13416256Y-13287390I63500J0D01*
G01*
X16036208Y-13292024D02*
X16163208Y-13419024D01*
X16163208Y-13292024D02*
X16036208Y-13419024D01*
X16163208Y-13355524D02*
G75*
G02*
X16036208Y-13355524I-63500J0D01*
G01*
X16036208Y-13355524D02*
G75*
G02*
X16163208Y-13355524I63500J0D01*
G01*
X16574220Y-13223890D02*
X16701220Y-13350890D01*
X16701220Y-13223890D02*
X16574220Y-13350890D01*
X16701220Y-13287390D02*
G75*
G02*
X16574220Y-13287390I-63500J0D01*
G01*
X16574220Y-13287390D02*
G75*
G02*
X16701220Y-13287390I63500J0D01*
G01*
X17311825Y-6848955D02*
X17438825Y-6975955D01*
X17438825Y-6848955D02*
X17311825Y-6975955D01*
X17438825Y-6912455D02*
G75*
G02*
X17311825Y-6912455I-63500J0D01*
G01*
X17311825Y-6912455D02*
G75*
G02*
X17438825Y-6912455I63500J0D01*
G01*
X17311829Y-8557485D02*
X17438829Y-8684485D01*
X17438829Y-8557485D02*
X17311829Y-8684485D01*
X17438829Y-8620985D02*
G75*
G02*
X17311829Y-8620985I-63500J0D01*
G01*
X17311829Y-8620985D02*
G75*
G02*
X17438829Y-8620985I63500J0D01*
G01*
X17311829Y-10257507D02*
X17438829Y-10384507D01*
X17438829Y-10257507D02*
X17311829Y-10384507D01*
X17438829Y-10321007D02*
G75*
G02*
X17311829Y-10321007I-63500J0D01*
G01*
X17311829Y-10321007D02*
G75*
G02*
X17438829Y-10321007I63500J0D01*
G01*
X17739645Y-12441896D02*
X17866645Y-12568896D01*
X17866645Y-12441896D02*
X17739645Y-12568896D01*
X17866645Y-12505396D02*
G75*
G02*
X17739645Y-12505396I-63500J0D01*
G01*
X17739645Y-12505396D02*
G75*
G02*
X17866645Y-12505396I63500J0D01*
G01*
X17811825Y-7058955D02*
X17938825Y-7185955D01*
X17938825Y-7058955D02*
X17811825Y-7185955D01*
X17938825Y-7122455D02*
G75*
G02*
X17811825Y-7122455I-63500J0D01*
G01*
X17811825Y-7122455D02*
G75*
G02*
X17938825Y-7122455I63500J0D01*
G01*
X17811829Y-8767485D02*
X17938829Y-8894485D01*
X17938829Y-8767485D02*
X17811829Y-8894485D01*
X17938829Y-8830985D02*
G75*
G02*
X17811829Y-8830985I-63500J0D01*
G01*
X17811829Y-8830985D02*
G75*
G02*
X17938829Y-8830985I63500J0D01*
G01*
X17811829Y-10467507D02*
X17938829Y-10594507D01*
X17938829Y-10467507D02*
X17811829Y-10594507D01*
X17938829Y-10531007D02*
G75*
G02*
X17811829Y-10531007I-63500J0D01*
G01*
X17811829Y-10531007D02*
G75*
G02*
X17938829Y-10531007I63500J0D01*
G01*
X18276960Y-12515331D02*
X18403960Y-12642331D01*
X18403960Y-12515331D02*
X18276960Y-12642331D01*
X18403960Y-12578831D02*
G75*
G02*
X18276960Y-12578831I-63500J0D01*
G01*
X18276960Y-12578831D02*
G75*
G02*
X18403960Y-12578831I63500J0D01*
G01*
X19111821Y-6576945D02*
X19238821Y-6703945D01*
X19238821Y-6576945D02*
X19111821Y-6703945D01*
X19238821Y-6640445D02*
G75*
G02*
X19111821Y-6640445I-63500J0D01*
G01*
X19111821Y-6640445D02*
G75*
G02*
X19238821Y-6640445I63500J0D01*
G01*
X19111821Y-8276967D02*
X19238821Y-8403967D01*
X19238821Y-8276967D02*
X19111821Y-8403967D01*
X19238821Y-8340467D02*
G75*
G02*
X19111821Y-8340467I-63500J0D01*
G01*
X19111821Y-8340467D02*
G75*
G02*
X19238821Y-8340467I63500J0D01*
G01*
X19111821Y-9976989D02*
X19238821Y-10103989D01*
X19238821Y-9976989D02*
X19111821Y-10103989D01*
X19238821Y-10040489D02*
G75*
G02*
X19111821Y-10040489I-63500J0D01*
G01*
X19111821Y-10040489D02*
G75*
G02*
X19238821Y-10040489I63500J0D01*
G01*
X19611821Y-6786945D02*
X19738821Y-6913945D01*
X19738821Y-6786945D02*
X19611821Y-6913945D01*
X19738821Y-6850445D02*
G75*
G02*
X19611821Y-6850445I-63500J0D01*
G01*
X19611821Y-6850445D02*
G75*
G02*
X19738821Y-6850445I63500J0D01*
G01*
X19611821Y-8486967D02*
X19738821Y-8613967D01*
X19738821Y-8486967D02*
X19611821Y-8613967D01*
X19738821Y-8550467D02*
G75*
G02*
X19611821Y-8550467I-63500J0D01*
G01*
X19611821Y-8550467D02*
G75*
G02*
X19738821Y-8550467I63500J0D01*
G01*
X19611821Y-10186989D02*
X19738821Y-10313989D01*
X19738821Y-10186989D02*
X19611821Y-10313989D01*
X19738821Y-10250489D02*
G75*
G02*
X19611821Y-10250489I-63500J0D01*
G01*
X19611821Y-10250489D02*
G75*
G02*
X19738821Y-10250489I63500J0D01*
G01*
X19614317Y-12047935D02*
X19741317Y-12174935D01*
X19741317Y-12047935D02*
X19614317Y-12174935D01*
X19741317Y-12111435D02*
G75*
G02*
X19614317Y-12111435I-63500J0D01*
G01*
X19614317Y-12111435D02*
G75*
G02*
X19741317Y-12111435I63500J0D01*
G01*
X20114317Y-12257935D02*
X20241317Y-12384935D01*
X20241317Y-12257935D02*
X20114317Y-12384935D01*
X20241317Y-12321435D02*
G75*
G02*
X20114317Y-12321435I-63500J0D01*
G01*
X20114317Y-12321435D02*
G75*
G02*
X20241317Y-12321435I63500J0D01*
G01*
X20911817Y-5733297D02*
X21038817Y-5860297D01*
X21038817Y-5733297D02*
X20911817Y-5860297D01*
X21038817Y-5796797D02*
G75*
G02*
X20911817Y-5796797I-63500J0D01*
G01*
X20911817Y-5796797D02*
G75*
G02*
X21038817Y-5796797I63500J0D01*
G01*
X20911817Y-7433319D02*
X21038817Y-7560319D01*
X21038817Y-7433319D02*
X20911817Y-7560319D01*
X21038817Y-7496819D02*
G75*
G02*
X20911817Y-7496819I-63500J0D01*
G01*
X20911817Y-7496819D02*
G75*
G02*
X21038817Y-7496819I63500J0D01*
G01*
X20911817Y-9133341D02*
X21038817Y-9260341D01*
X21038817Y-9133341D02*
X20911817Y-9260341D01*
X21038817Y-9196841D02*
G75*
G02*
X20911817Y-9196841I-63500J0D01*
G01*
X20911817Y-9196841D02*
G75*
G02*
X21038817Y-9196841I63500J0D01*
G01*
X21411817Y-5943297D02*
X21538817Y-6070297D01*
X21538817Y-5943297D02*
X21411817Y-6070297D01*
X21538817Y-6006797D02*
G75*
G02*
X21411817Y-6006797I-63500J0D01*
G01*
X21411817Y-6006797D02*
G75*
G02*
X21538817Y-6006797I63500J0D01*
G01*
X21411817Y-7643319D02*
X21538817Y-7770319D01*
X21538817Y-7643319D02*
X21411817Y-7770319D01*
X21538817Y-7706819D02*
G75*
G02*
X21411817Y-7706819I-63500J0D01*
G01*
X21411817Y-7706819D02*
G75*
G02*
X21538817Y-7706819I63500J0D01*
G01*
X21411817Y-9343341D02*
X21538817Y-9470341D01*
X21538817Y-9343341D02*
X21411817Y-9470341D01*
X21538817Y-9406841D02*
G75*
G02*
X21411817Y-9406841I-63500J0D01*
G01*
X21411817Y-9406841D02*
G75*
G02*
X21538817Y-9406841I63500J0D01*
G01*
X22702879Y-10117795D02*
X22829879Y-10244795D01*
X22829879Y-10117795D02*
X22702879Y-10244795D01*
X22829879Y-10181295D02*
G75*
G02*
X22702879Y-10181295I-63500J0D01*
G01*
X22702879Y-10181295D02*
G75*
G02*
X22829879Y-10181295I63500J0D01*
G01*
X22821467Y-8421915D02*
X22948467Y-8548915D01*
X22948467Y-8421915D02*
X22821467Y-8548915D01*
X22948467Y-8485415D02*
G75*
G02*
X22821467Y-8485415I-63500J0D01*
G01*
X22821467Y-8485415D02*
G75*
G02*
X22948467Y-8485415I63500J0D01*
G01*
X22940054Y-6726034D02*
X23067054Y-6853034D01*
X23067054Y-6726034D02*
X22940054Y-6853034D01*
X23067054Y-6789534D02*
G75*
G02*
X22940054Y-6789534I-63500J0D01*
G01*
X22940054Y-6789534D02*
G75*
G02*
X23067054Y-6789534I63500J0D01*
G01*
X23187013Y-10362162D02*
X23314013Y-10489162D01*
X23314013Y-10362162D02*
X23187013Y-10489162D01*
X23314013Y-10425662D02*
G75*
G02*
X23187013Y-10425662I-63500J0D01*
G01*
X23187013Y-10425662D02*
G75*
G02*
X23314013Y-10425662I63500J0D01*
G01*
X23305600Y-8666281D02*
X23432600Y-8793281D01*
X23432600Y-8666281D02*
X23305600Y-8793281D01*
X23432600Y-8729781D02*
G75*
G02*
X23305600Y-8729781I-63500J0D01*
G01*
X23305600Y-8729781D02*
G75*
G02*
X23432600Y-8729781I63500J0D01*
G01*
X23424188Y-6970400D02*
X23551188Y-7097400D01*
X23551188Y-6970400D02*
X23424188Y-7097400D01*
X23551188Y-7033900D02*
G75*
G02*
X23424188Y-7033900I-63500J0D01*
G01*
X23424188Y-7033900D02*
G75*
G02*
X23551188Y-7033900I63500J0D01*
G01*
X24342955Y-11573727D02*
X24469955Y-11700727D01*
X24469955Y-11573727D02*
X24342955Y-11700727D01*
X24469955Y-11637227D02*
G75*
G02*
X24342955Y-11637227I-63500J0D01*
G01*
X24342955Y-11637227D02*
G75*
G02*
X24469955Y-11637227I63500J0D01*
G01*
X24638160Y-9899533D02*
X24765160Y-10026533D01*
X24765160Y-9899533D02*
X24638160Y-10026533D01*
X24765160Y-9963033D02*
G75*
G02*
X24638160Y-9963033I-63500J0D01*
G01*
X24638160Y-9963033D02*
G75*
G02*
X24765160Y-9963033I63500J0D01*
G01*
X24798893Y-11867361D02*
X24925893Y-11994361D01*
X24925893Y-11867361D02*
X24798893Y-11994361D01*
X24925893Y-11930861D02*
G75*
G02*
X24798893Y-11930861I-63500J0D01*
G01*
X24798893Y-11930861D02*
G75*
G02*
X24925893Y-11930861I63500J0D01*
G01*
X24933366Y-8225338D02*
X25060366Y-8352338D01*
X25060366Y-8225338D02*
X24933366Y-8352338D01*
X25060366Y-8288838D02*
G75*
G02*
X24933366Y-8288838I-63500J0D01*
G01*
X24933366Y-8288838D02*
G75*
G02*
X25060366Y-8288838I63500J0D01*
G01*
X25094098Y-10193166D02*
X25221098Y-10320166D01*
X25221098Y-10193166D02*
X25094098Y-10320166D01*
X25221098Y-10256666D02*
G75*
G02*
X25094098Y-10256666I-63500J0D01*
G01*
X25094098Y-10256666D02*
G75*
G02*
X25221098Y-10256666I63500J0D01*
G01*
X25389304Y-8518971D02*
X25516304Y-8645971D01*
X25516304Y-8518971D02*
X25389304Y-8645971D01*
X25516304Y-8582471D02*
G75*
G02*
X25389304Y-8582471I-63500J0D01*
G01*
X25389304Y-8582471D02*
G75*
G02*
X25516304Y-8582471I63500J0D01*
G01*
X26248366Y-11132838D02*
X26375366Y-11259838D01*
X26375366Y-11132838D02*
X26248366Y-11259838D01*
X26375366Y-11196338D02*
G75*
G02*
X26248366Y-11196338I-63500J0D01*
G01*
X26248366Y-11196338D02*
G75*
G02*
X26375366Y-11196338I63500J0D01*
G01*
X26704304Y-11426471D02*
X26831304Y-11553471D01*
X26831304Y-11426471D02*
X26704304Y-11553471D01*
X26831304Y-11489971D02*
G75*
G02*
X26704304Y-11489971I-63500J0D01*
G01*
X26704304Y-11489971D02*
G75*
G02*
X26831304Y-11489971I63500J0D01*
G01*
D18*
X11885000Y-5320000D02*
X12015000Y-5450000D01*
X12015000Y-5320000D02*
X11885000Y-5450000D01*
X11950000Y-5320000D02*
X11950000Y-5450000D01*
X11885000Y-5385000D02*
X12015000Y-5385000D01*
X12585000Y-5320000D02*
X12715000Y-5450000D01*
X12715000Y-5320000D02*
X12585000Y-5450000D01*
X12650000Y-5320000D02*
X12650000Y-5450000D01*
X12585000Y-5385000D02*
X12715000Y-5385000D01*
X17285000Y-5320000D02*
X17415000Y-5450000D01*
X17415000Y-5320000D02*
X17285000Y-5450000D01*
X17350000Y-5320000D02*
X17350000Y-5450000D01*
X17285000Y-5385000D02*
X17415000Y-5385000D01*
X17985000Y-5320000D02*
X18115000Y-5450000D01*
X18115000Y-5320000D02*
X17985000Y-5450000D01*
X18050000Y-5320000D02*
X18050000Y-5450000D01*
X17985000Y-5385000D02*
X18115000Y-5385000D01*
D19*
X3270000Y-11941435D02*
X3590000Y-12261435D01*
X3590000Y-11941435D02*
X3270000Y-12261435D01*
X3543138Y-12214573D02*
X3543138Y-11988297D01*
X3316862Y-11988297D01*
X3316862Y-12214573D01*
X3543138Y-12214573D01*
X5540000Y-5110000D02*
X5860000Y-5430000D01*
X5860000Y-5110000D02*
X5540000Y-5430000D01*
X5813138Y-5383138D02*
X5813138Y-5156862D01*
X5586862Y-5156862D01*
X5586862Y-5383138D01*
X5813138Y-5383138D01*
X12960000Y-5110000D02*
X13280000Y-5430000D01*
X13280000Y-5110000D02*
X12960000Y-5430000D01*
X13233138Y-5383138D02*
X13233138Y-5156862D01*
X13006862Y-5156862D01*
X13006862Y-5383138D01*
X13233138Y-5383138D01*
X13790000Y-11040000D02*
X14110000Y-11360000D01*
X14110000Y-11040000D02*
X13790000Y-11360000D01*
X14063138Y-11313138D02*
X14063138Y-11086862D01*
X13836862Y-11086862D01*
X13836862Y-11313138D01*
X14063138Y-11313138D01*
X15890000Y-11040000D02*
X16210000Y-11360000D01*
X16210000Y-11040000D02*
X15890000Y-11360000D01*
X16163138Y-11313138D02*
X16163138Y-11086862D01*
X15936862Y-11086862D01*
X15936862Y-11313138D01*
X16163138Y-11313138D01*
X16720000Y-5110000D02*
X17040000Y-5430000D01*
X17040000Y-5110000D02*
X16720000Y-5430000D01*
X16993138Y-5383138D02*
X16993138Y-5156862D01*
X16766862Y-5156862D01*
X16766862Y-5383138D01*
X16993138Y-5383138D01*
X24140000Y-5110000D02*
X24460000Y-5430000D01*
X24460000Y-5110000D02*
X24140000Y-5430000D01*
X24413138Y-5383138D02*
X24413138Y-5156862D01*
X24186862Y-5156862D01*
X24186862Y-5383138D01*
X24413138Y-5383138D01*
X26410000Y-11940000D02*
X26730000Y-12260000D01*
X26730000Y-11940000D02*
X26410000Y-12260000D01*
X26683138Y-12213138D02*
X26683138Y-11986862D01*
X26456862Y-11986862D01*
X26456862Y-12213138D01*
X26683138Y-12213138D01*
D14*
X2317002Y-14301186D02*
X2317002Y-14101186D01*
X2317002Y-14101186D02*
X2364621Y-14101186D01*
X2364621Y-14101186D02*
X2393192Y-14110710D01*
X2393192Y-14110710D02*
X2412240Y-14129758D01*
X2412240Y-14129758D02*
X2421764Y-14148805D01*
X2421764Y-14148805D02*
X2431288Y-14186901D01*
X2431288Y-14186901D02*
X2431288Y-14215472D01*
X2431288Y-14215472D02*
X2421764Y-14253567D01*
X2421764Y-14253567D02*
X2412240Y-14272615D01*
X2412240Y-14272615D02*
X2393192Y-14291663D01*
X2393192Y-14291663D02*
X2364621Y-14301186D01*
X2364621Y-14301186D02*
X2317002Y-14301186D01*
X2517002Y-14301186D02*
X2517002Y-14167853D01*
X2517002Y-14205948D02*
X2526526Y-14186901D01*
X2526526Y-14186901D02*
X2536049Y-14177377D01*
X2536049Y-14177377D02*
X2555097Y-14167853D01*
X2555097Y-14167853D02*
X2574145Y-14167853D01*
X2640811Y-14301186D02*
X2640811Y-14167853D01*
X2640811Y-14101186D02*
X2631288Y-14110710D01*
X2631288Y-14110710D02*
X2640811Y-14120234D01*
X2640811Y-14120234D02*
X2650335Y-14110710D01*
X2650335Y-14110710D02*
X2640811Y-14101186D01*
X2640811Y-14101186D02*
X2640811Y-14120234D01*
X2764621Y-14301186D02*
X2745573Y-14291663D01*
X2745573Y-14291663D02*
X2736049Y-14272615D01*
X2736049Y-14272615D02*
X2736049Y-14101186D01*
X2869383Y-14301186D02*
X2850335Y-14291663D01*
X2850335Y-14291663D02*
X2840811Y-14272615D01*
X2840811Y-14272615D02*
X2840811Y-14101186D01*
X3097954Y-14301186D02*
X3097954Y-14101186D01*
X3097954Y-14101186D02*
X3164621Y-14244043D01*
X3164621Y-14244043D02*
X3231287Y-14101186D01*
X3231287Y-14101186D02*
X3231287Y-14301186D01*
X3412240Y-14301186D02*
X3412240Y-14196424D01*
X3412240Y-14196424D02*
X3402716Y-14177377D01*
X3402716Y-14177377D02*
X3383668Y-14167853D01*
X3383668Y-14167853D02*
X3345573Y-14167853D01*
X3345573Y-14167853D02*
X3326526Y-14177377D01*
X3412240Y-14291663D02*
X3393192Y-14301186D01*
X3393192Y-14301186D02*
X3345573Y-14301186D01*
X3345573Y-14301186D02*
X3326526Y-14291663D01*
X3326526Y-14291663D02*
X3317002Y-14272615D01*
X3317002Y-14272615D02*
X3317002Y-14253567D01*
X3317002Y-14253567D02*
X3326526Y-14234520D01*
X3326526Y-14234520D02*
X3345573Y-14224996D01*
X3345573Y-14224996D02*
X3393192Y-14224996D01*
X3393192Y-14224996D02*
X3412240Y-14215472D01*
X3507478Y-14167853D02*
X3507478Y-14367853D01*
X3507478Y-14177377D02*
X3526526Y-14167853D01*
X3526526Y-14167853D02*
X3564621Y-14167853D01*
X3564621Y-14167853D02*
X3583668Y-14177377D01*
X3583668Y-14177377D02*
X3593192Y-14186901D01*
X3593192Y-14186901D02*
X3602716Y-14205948D01*
X3602716Y-14205948D02*
X3602716Y-14263091D01*
X3602716Y-14263091D02*
X3593192Y-14282139D01*
X3593192Y-14282139D02*
X3583668Y-14291663D01*
X3583668Y-14291663D02*
X3564621Y-14301186D01*
X3564621Y-14301186D02*
X3526526Y-14301186D01*
X3526526Y-14301186D02*
X3507478Y-14291663D01*
X3688430Y-14282139D02*
X3697954Y-14291663D01*
X3697954Y-14291663D02*
X3688430Y-14301186D01*
X3688430Y-14301186D02*
X3678907Y-14291663D01*
X3678907Y-14291663D02*
X3688430Y-14282139D01*
X3688430Y-14282139D02*
X3688430Y-14301186D01*
X3688430Y-14177377D02*
X3697954Y-14186901D01*
X3697954Y-14186901D02*
X3688430Y-14196424D01*
X3688430Y-14196424D02*
X3678907Y-14186901D01*
X3678907Y-14186901D02*
X3688430Y-14177377D01*
X3688430Y-14177377D02*
X3688430Y-14196424D01*
D11*
X2026225Y-14614703D02*
X2056225Y-14644703D01*
X2056225Y-14614703D02*
X2026225Y-14644703D01*
D14*
X2355097Y-14521186D02*
X2374145Y-14521186D01*
X2374145Y-14521186D02*
X2393192Y-14530710D01*
X2393192Y-14530710D02*
X2402716Y-14540234D01*
X2402716Y-14540234D02*
X2412240Y-14559282D01*
X2412240Y-14559282D02*
X2421764Y-14597377D01*
X2421764Y-14597377D02*
X2421764Y-14644996D01*
X2421764Y-14644996D02*
X2412240Y-14683091D01*
X2412240Y-14683091D02*
X2402716Y-14702139D01*
X2402716Y-14702139D02*
X2393192Y-14711663D01*
X2393192Y-14711663D02*
X2374145Y-14721186D01*
X2374145Y-14721186D02*
X2355097Y-14721186D01*
X2355097Y-14721186D02*
X2336049Y-14711663D01*
X2336049Y-14711663D02*
X2326526Y-14702139D01*
X2326526Y-14702139D02*
X2317002Y-14683091D01*
X2317002Y-14683091D02*
X2307478Y-14644996D01*
X2307478Y-14644996D02*
X2307478Y-14597377D01*
X2307478Y-14597377D02*
X2317002Y-14559282D01*
X2317002Y-14559282D02*
X2326526Y-14540234D01*
X2326526Y-14540234D02*
X2336049Y-14530710D01*
X2336049Y-14530710D02*
X2355097Y-14521186D01*
X2507478Y-14702139D02*
X2517002Y-14711663D01*
X2517002Y-14711663D02*
X2507478Y-14721186D01*
X2507478Y-14721186D02*
X2497954Y-14711663D01*
X2497954Y-14711663D02*
X2507478Y-14702139D01*
X2507478Y-14702139D02*
X2507478Y-14721186D01*
X2583669Y-14521186D02*
X2707478Y-14521186D01*
X2707478Y-14521186D02*
X2640811Y-14597377D01*
X2640811Y-14597377D02*
X2669383Y-14597377D01*
X2669383Y-14597377D02*
X2688430Y-14606901D01*
X2688430Y-14606901D02*
X2697954Y-14616424D01*
X2697954Y-14616424D02*
X2707478Y-14635472D01*
X2707478Y-14635472D02*
X2707478Y-14683091D01*
X2707478Y-14683091D02*
X2697954Y-14702139D01*
X2697954Y-14702139D02*
X2688430Y-14711663D01*
X2688430Y-14711663D02*
X2669383Y-14721186D01*
X2669383Y-14721186D02*
X2612240Y-14721186D01*
X2612240Y-14721186D02*
X2593192Y-14711663D01*
X2593192Y-14711663D02*
X2583669Y-14702139D01*
X2831287Y-14521186D02*
X2850335Y-14521186D01*
X2850335Y-14521186D02*
X2869383Y-14530710D01*
X2869383Y-14530710D02*
X2878907Y-14540234D01*
X2878907Y-14540234D02*
X2888430Y-14559282D01*
X2888430Y-14559282D02*
X2897954Y-14597377D01*
X2897954Y-14597377D02*
X2897954Y-14644996D01*
X2897954Y-14644996D02*
X2888430Y-14683091D01*
X2888430Y-14683091D02*
X2878907Y-14702139D01*
X2878907Y-14702139D02*
X2869383Y-14711663D01*
X2869383Y-14711663D02*
X2850335Y-14721186D01*
X2850335Y-14721186D02*
X2831287Y-14721186D01*
X2831287Y-14721186D02*
X2812240Y-14711663D01*
X2812240Y-14711663D02*
X2802716Y-14702139D01*
X2802716Y-14702139D02*
X2793192Y-14683091D01*
X2793192Y-14683091D02*
X2783669Y-14644996D01*
X2783669Y-14644996D02*
X2783669Y-14597377D01*
X2783669Y-14597377D02*
X2793192Y-14559282D01*
X2793192Y-14559282D02*
X2802716Y-14540234D01*
X2802716Y-14540234D02*
X2812240Y-14530710D01*
X2812240Y-14530710D02*
X2831287Y-14521186D01*
X3021764Y-14521186D02*
X3040811Y-14521186D01*
X3040811Y-14521186D02*
X3059859Y-14530710D01*
X3059859Y-14530710D02*
X3069383Y-14540234D01*
X3069383Y-14540234D02*
X3078907Y-14559282D01*
X3078907Y-14559282D02*
X3088430Y-14597377D01*
X3088430Y-14597377D02*
X3088430Y-14644996D01*
X3088430Y-14644996D02*
X3078907Y-14683091D01*
X3078907Y-14683091D02*
X3069383Y-14702139D01*
X3069383Y-14702139D02*
X3059859Y-14711663D01*
X3059859Y-14711663D02*
X3040811Y-14721186D01*
X3040811Y-14721186D02*
X3021764Y-14721186D01*
X3021764Y-14721186D02*
X3002716Y-14711663D01*
X3002716Y-14711663D02*
X2993192Y-14702139D01*
X2993192Y-14702139D02*
X2983668Y-14683091D01*
X2983668Y-14683091D02*
X2974145Y-14644996D01*
X2974145Y-14644996D02*
X2974145Y-14597377D01*
X2974145Y-14597377D02*
X2983668Y-14559282D01*
X2983668Y-14559282D02*
X2993192Y-14540234D01*
X2993192Y-14540234D02*
X3002716Y-14530710D01*
X3002716Y-14530710D02*
X3021764Y-14521186D01*
X3174145Y-14721186D02*
X3174145Y-14587853D01*
X3174145Y-14606901D02*
X3183668Y-14597377D01*
X3183668Y-14597377D02*
X3202716Y-14587853D01*
X3202716Y-14587853D02*
X3231288Y-14587853D01*
X3231288Y-14587853D02*
X3250335Y-14597377D01*
X3250335Y-14597377D02*
X3259859Y-14616424D01*
X3259859Y-14616424D02*
X3259859Y-14721186D01*
X3259859Y-14616424D02*
X3269383Y-14597377D01*
X3269383Y-14597377D02*
X3288430Y-14587853D01*
X3288430Y-14587853D02*
X3317002Y-14587853D01*
X3317002Y-14587853D02*
X3336049Y-14597377D01*
X3336049Y-14597377D02*
X3345573Y-14616424D01*
X3345573Y-14616424D02*
X3345573Y-14721186D01*
X3440811Y-14721186D02*
X3440811Y-14587853D01*
X3440811Y-14606901D02*
X3450335Y-14597377D01*
X3450335Y-14597377D02*
X3469383Y-14587853D01*
X3469383Y-14587853D02*
X3497954Y-14587853D01*
X3497954Y-14587853D02*
X3517002Y-14597377D01*
X3517002Y-14597377D02*
X3526526Y-14616424D01*
X3526526Y-14616424D02*
X3526526Y-14721186D01*
X3526526Y-14616424D02*
X3536049Y-14597377D01*
X3536049Y-14597377D02*
X3555097Y-14587853D01*
X3555097Y-14587853D02*
X3583668Y-14587853D01*
X3583668Y-14587853D02*
X3602716Y-14597377D01*
X3602716Y-14597377D02*
X3612240Y-14616424D01*
X3612240Y-14616424D02*
X3612240Y-14721186D01*
X4002716Y-14511663D02*
X3831288Y-14768805D01*
X4259859Y-14521186D02*
X4278907Y-14521186D01*
X4278907Y-14521186D02*
X4297954Y-14530710D01*
X4297954Y-14530710D02*
X4307478Y-14540234D01*
X4307478Y-14540234D02*
X4317002Y-14559282D01*
X4317002Y-14559282D02*
X4326526Y-14597377D01*
X4326526Y-14597377D02*
X4326526Y-14644996D01*
X4326526Y-14644996D02*
X4317002Y-14683091D01*
X4317002Y-14683091D02*
X4307478Y-14702139D01*
X4307478Y-14702139D02*
X4297954Y-14711663D01*
X4297954Y-14711663D02*
X4278907Y-14721186D01*
X4278907Y-14721186D02*
X4259859Y-14721186D01*
X4259859Y-14721186D02*
X4240812Y-14711663D01*
X4240812Y-14711663D02*
X4231288Y-14702139D01*
X4231288Y-14702139D02*
X4221764Y-14683091D01*
X4221764Y-14683091D02*
X4212240Y-14644996D01*
X4212240Y-14644996D02*
X4212240Y-14597377D01*
X4212240Y-14597377D02*
X4221764Y-14559282D01*
X4221764Y-14559282D02*
X4231288Y-14540234D01*
X4231288Y-14540234D02*
X4240812Y-14530710D01*
X4240812Y-14530710D02*
X4259859Y-14521186D01*
X4412240Y-14702139D02*
X4421764Y-14711663D01*
X4421764Y-14711663D02*
X4412240Y-14721186D01*
X4412240Y-14721186D02*
X4402716Y-14711663D01*
X4402716Y-14711663D02*
X4412240Y-14702139D01*
X4412240Y-14702139D02*
X4412240Y-14721186D01*
X4545573Y-14521186D02*
X4564621Y-14521186D01*
X4564621Y-14521186D02*
X4583669Y-14530710D01*
X4583669Y-14530710D02*
X4593193Y-14540234D01*
X4593193Y-14540234D02*
X4602716Y-14559282D01*
X4602716Y-14559282D02*
X4612240Y-14597377D01*
X4612240Y-14597377D02*
X4612240Y-14644996D01*
X4612240Y-14644996D02*
X4602716Y-14683091D01*
X4602716Y-14683091D02*
X4593193Y-14702139D01*
X4593193Y-14702139D02*
X4583669Y-14711663D01*
X4583669Y-14711663D02*
X4564621Y-14721186D01*
X4564621Y-14721186D02*
X4545573Y-14721186D01*
X4545573Y-14721186D02*
X4526526Y-14711663D01*
X4526526Y-14711663D02*
X4517002Y-14702139D01*
X4517002Y-14702139D02*
X4507478Y-14683091D01*
X4507478Y-14683091D02*
X4497954Y-14644996D01*
X4497954Y-14644996D02*
X4497954Y-14597377D01*
X4497954Y-14597377D02*
X4507478Y-14559282D01*
X4507478Y-14559282D02*
X4517002Y-14540234D01*
X4517002Y-14540234D02*
X4526526Y-14530710D01*
X4526526Y-14530710D02*
X4545573Y-14521186D01*
X4802716Y-14721186D02*
X4688431Y-14721186D01*
X4745573Y-14721186D02*
X4745573Y-14521186D01*
X4745573Y-14521186D02*
X4726526Y-14549758D01*
X4726526Y-14549758D02*
X4707478Y-14568805D01*
X4707478Y-14568805D02*
X4688431Y-14578329D01*
X4993193Y-14721186D02*
X4878907Y-14721186D01*
X4936050Y-14721186D02*
X4936050Y-14521186D01*
X4936050Y-14521186D02*
X4917002Y-14549758D01*
X4917002Y-14549758D02*
X4897954Y-14568805D01*
X4897954Y-14568805D02*
X4878907Y-14578329D01*
X5107478Y-14606901D02*
X5088431Y-14597377D01*
X5088431Y-14597377D02*
X5078907Y-14587853D01*
X5078907Y-14587853D02*
X5069383Y-14568805D01*
X5069383Y-14568805D02*
X5069383Y-14559282D01*
X5069383Y-14559282D02*
X5078907Y-14540234D01*
X5078907Y-14540234D02*
X5088431Y-14530710D01*
X5088431Y-14530710D02*
X5107478Y-14521186D01*
X5107478Y-14521186D02*
X5145574Y-14521186D01*
X5145574Y-14521186D02*
X5164621Y-14530710D01*
X5164621Y-14530710D02*
X5174145Y-14540234D01*
X5174145Y-14540234D02*
X5183669Y-14559282D01*
X5183669Y-14559282D02*
X5183669Y-14568805D01*
X5183669Y-14568805D02*
X5174145Y-14587853D01*
X5174145Y-14587853D02*
X5164621Y-14597377D01*
X5164621Y-14597377D02*
X5145574Y-14606901D01*
X5145574Y-14606901D02*
X5107478Y-14606901D01*
X5107478Y-14606901D02*
X5088431Y-14616424D01*
X5088431Y-14616424D02*
X5078907Y-14625948D01*
X5078907Y-14625948D02*
X5069383Y-14644996D01*
X5069383Y-14644996D02*
X5069383Y-14683091D01*
X5069383Y-14683091D02*
X5078907Y-14702139D01*
X5078907Y-14702139D02*
X5088431Y-14711663D01*
X5088431Y-14711663D02*
X5107478Y-14721186D01*
X5107478Y-14721186D02*
X5145574Y-14721186D01*
X5145574Y-14721186D02*
X5164621Y-14711663D01*
X5164621Y-14711663D02*
X5174145Y-14702139D01*
X5174145Y-14702139D02*
X5183669Y-14683091D01*
X5183669Y-14683091D02*
X5183669Y-14644996D01*
X5183669Y-14644996D02*
X5174145Y-14625948D01*
X5174145Y-14625948D02*
X5164621Y-14616424D01*
X5164621Y-14616424D02*
X5145574Y-14606901D01*
X5259859Y-14521186D02*
X5259859Y-14559282D01*
X5336050Y-14521186D02*
X5336050Y-14559282D01*
X5631288Y-14797377D02*
X5621764Y-14787853D01*
X5621764Y-14787853D02*
X5602716Y-14759282D01*
X5602716Y-14759282D02*
X5593193Y-14740234D01*
X5593193Y-14740234D02*
X5583669Y-14711663D01*
X5583669Y-14711663D02*
X5574145Y-14664043D01*
X5574145Y-14664043D02*
X5574145Y-14625948D01*
X5574145Y-14625948D02*
X5583669Y-14578329D01*
X5583669Y-14578329D02*
X5593193Y-14549758D01*
X5593193Y-14549758D02*
X5602716Y-14530710D01*
X5602716Y-14530710D02*
X5621764Y-14502139D01*
X5621764Y-14502139D02*
X5631288Y-14492615D01*
X5812240Y-14721186D02*
X5697954Y-14721186D01*
X5755097Y-14721186D02*
X5755097Y-14521186D01*
X5755097Y-14521186D02*
X5736050Y-14549758D01*
X5736050Y-14549758D02*
X5717002Y-14568805D01*
X5717002Y-14568805D02*
X5697954Y-14578329D01*
X5993193Y-14521186D02*
X5897954Y-14521186D01*
X5897954Y-14521186D02*
X5888431Y-14616424D01*
X5888431Y-14616424D02*
X5897954Y-14606901D01*
X5897954Y-14606901D02*
X5917002Y-14597377D01*
X5917002Y-14597377D02*
X5964621Y-14597377D01*
X5964621Y-14597377D02*
X5983669Y-14606901D01*
X5983669Y-14606901D02*
X5993193Y-14616424D01*
X5993193Y-14616424D02*
X6002716Y-14635472D01*
X6002716Y-14635472D02*
X6002716Y-14683091D01*
X6002716Y-14683091D02*
X5993193Y-14702139D01*
X5993193Y-14702139D02*
X5983669Y-14711663D01*
X5983669Y-14711663D02*
X5964621Y-14721186D01*
X5964621Y-14721186D02*
X5917002Y-14721186D01*
X5917002Y-14721186D02*
X5897954Y-14711663D01*
X5897954Y-14711663D02*
X5888431Y-14702139D01*
X6097954Y-14721186D02*
X6136050Y-14721186D01*
X6136050Y-14721186D02*
X6155097Y-14711663D01*
X6155097Y-14711663D02*
X6164621Y-14702139D01*
X6164621Y-14702139D02*
X6183669Y-14673567D01*
X6183669Y-14673567D02*
X6193193Y-14635472D01*
X6193193Y-14635472D02*
X6193193Y-14559282D01*
X6193193Y-14559282D02*
X6183669Y-14540234D01*
X6183669Y-14540234D02*
X6174145Y-14530710D01*
X6174145Y-14530710D02*
X6155097Y-14521186D01*
X6155097Y-14521186D02*
X6117002Y-14521186D01*
X6117002Y-14521186D02*
X6097954Y-14530710D01*
X6097954Y-14530710D02*
X6088431Y-14540234D01*
X6088431Y-14540234D02*
X6078907Y-14559282D01*
X6078907Y-14559282D02*
X6078907Y-14606901D01*
X6078907Y-14606901D02*
X6088431Y-14625948D01*
X6088431Y-14625948D02*
X6097954Y-14635472D01*
X6097954Y-14635472D02*
X6117002Y-14644996D01*
X6117002Y-14644996D02*
X6155097Y-14644996D01*
X6155097Y-14644996D02*
X6174145Y-14635472D01*
X6174145Y-14635472D02*
X6183669Y-14625948D01*
X6183669Y-14625948D02*
X6193193Y-14606901D01*
X6431288Y-14721186D02*
X6431288Y-14521186D01*
X6517002Y-14721186D02*
X6517002Y-14616424D01*
X6517002Y-14616424D02*
X6507478Y-14597377D01*
X6507478Y-14597377D02*
X6488431Y-14587853D01*
X6488431Y-14587853D02*
X6459859Y-14587853D01*
X6459859Y-14587853D02*
X6440812Y-14597377D01*
X6440812Y-14597377D02*
X6431288Y-14606901D01*
X6640812Y-14721186D02*
X6621764Y-14711663D01*
X6621764Y-14711663D02*
X6612240Y-14702139D01*
X6612240Y-14702139D02*
X6602716Y-14683091D01*
X6602716Y-14683091D02*
X6602716Y-14625948D01*
X6602716Y-14625948D02*
X6612240Y-14606901D01*
X6612240Y-14606901D02*
X6621764Y-14597377D01*
X6621764Y-14597377D02*
X6640812Y-14587853D01*
X6640812Y-14587853D02*
X6669383Y-14587853D01*
X6669383Y-14587853D02*
X6688431Y-14597377D01*
X6688431Y-14597377D02*
X6697955Y-14606901D01*
X6697955Y-14606901D02*
X6707478Y-14625948D01*
X6707478Y-14625948D02*
X6707478Y-14683091D01*
X6707478Y-14683091D02*
X6697955Y-14702139D01*
X6697955Y-14702139D02*
X6688431Y-14711663D01*
X6688431Y-14711663D02*
X6669383Y-14721186D01*
X6669383Y-14721186D02*
X6640812Y-14721186D01*
X6821764Y-14721186D02*
X6802716Y-14711663D01*
X6802716Y-14711663D02*
X6793193Y-14692615D01*
X6793193Y-14692615D02*
X6793193Y-14521186D01*
X6974145Y-14711663D02*
X6955097Y-14721186D01*
X6955097Y-14721186D02*
X6917002Y-14721186D01*
X6917002Y-14721186D02*
X6897955Y-14711663D01*
X6897955Y-14711663D02*
X6888431Y-14692615D01*
X6888431Y-14692615D02*
X6888431Y-14616424D01*
X6888431Y-14616424D02*
X6897955Y-14597377D01*
X6897955Y-14597377D02*
X6917002Y-14587853D01*
X6917002Y-14587853D02*
X6955097Y-14587853D01*
X6955097Y-14587853D02*
X6974145Y-14597377D01*
X6974145Y-14597377D02*
X6983669Y-14616424D01*
X6983669Y-14616424D02*
X6983669Y-14635472D01*
X6983669Y-14635472D02*
X6888431Y-14654520D01*
X7059859Y-14711663D02*
X7078907Y-14721186D01*
X7078907Y-14721186D02*
X7117002Y-14721186D01*
X7117002Y-14721186D02*
X7136050Y-14711663D01*
X7136050Y-14711663D02*
X7145574Y-14692615D01*
X7145574Y-14692615D02*
X7145574Y-14683091D01*
X7145574Y-14683091D02*
X7136050Y-14664043D01*
X7136050Y-14664043D02*
X7117002Y-14654520D01*
X7117002Y-14654520D02*
X7088431Y-14654520D01*
X7088431Y-14654520D02*
X7069383Y-14644996D01*
X7069383Y-14644996D02*
X7059859Y-14625948D01*
X7059859Y-14625948D02*
X7059859Y-14616424D01*
X7059859Y-14616424D02*
X7069383Y-14597377D01*
X7069383Y-14597377D02*
X7088431Y-14587853D01*
X7088431Y-14587853D02*
X7117002Y-14587853D01*
X7117002Y-14587853D02*
X7136050Y-14597377D01*
X7212240Y-14797377D02*
X7221764Y-14787853D01*
X7221764Y-14787853D02*
X7240812Y-14759282D01*
X7240812Y-14759282D02*
X7250336Y-14740234D01*
X7250336Y-14740234D02*
X7259859Y-14711663D01*
X7259859Y-14711663D02*
X7269383Y-14664043D01*
X7269383Y-14664043D02*
X7269383Y-14625948D01*
X7269383Y-14625948D02*
X7259859Y-14578329D01*
X7259859Y-14578329D02*
X7250336Y-14549758D01*
X7250336Y-14549758D02*
X7240812Y-14530710D01*
X7240812Y-14530710D02*
X7221764Y-14502139D01*
X7221764Y-14502139D02*
X7212240Y-14492615D01*
D11*
X2056225Y-14893703D02*
G75*
G02*
X1996225Y-14893703I-30000J0D01*
G01*
X1996225Y-14893703D02*
G75*
G02*
X2056225Y-14893703I30000J0D01*
G01*
D14*
X2355097Y-14785186D02*
X2374145Y-14785186D01*
X2374145Y-14785186D02*
X2393192Y-14794710D01*
X2393192Y-14794710D02*
X2402716Y-14804234D01*
X2402716Y-14804234D02*
X2412240Y-14823282D01*
X2412240Y-14823282D02*
X2421764Y-14861377D01*
X2421764Y-14861377D02*
X2421764Y-14908996D01*
X2421764Y-14908996D02*
X2412240Y-14947091D01*
X2412240Y-14947091D02*
X2402716Y-14966139D01*
X2402716Y-14966139D02*
X2393192Y-14975663D01*
X2393192Y-14975663D02*
X2374145Y-14985186D01*
X2374145Y-14985186D02*
X2355097Y-14985186D01*
X2355097Y-14985186D02*
X2336049Y-14975663D01*
X2336049Y-14975663D02*
X2326526Y-14966139D01*
X2326526Y-14966139D02*
X2317002Y-14947091D01*
X2317002Y-14947091D02*
X2307478Y-14908996D01*
X2307478Y-14908996D02*
X2307478Y-14861377D01*
X2307478Y-14861377D02*
X2317002Y-14823282D01*
X2317002Y-14823282D02*
X2326526Y-14804234D01*
X2326526Y-14804234D02*
X2336049Y-14794710D01*
X2336049Y-14794710D02*
X2355097Y-14785186D01*
X2507478Y-14966139D02*
X2517002Y-14975663D01*
X2517002Y-14975663D02*
X2507478Y-14985186D01*
X2507478Y-14985186D02*
X2497954Y-14975663D01*
X2497954Y-14975663D02*
X2507478Y-14966139D01*
X2507478Y-14966139D02*
X2507478Y-14985186D01*
X2688430Y-14785186D02*
X2650335Y-14785186D01*
X2650335Y-14785186D02*
X2631288Y-14794710D01*
X2631288Y-14794710D02*
X2621764Y-14804234D01*
X2621764Y-14804234D02*
X2602716Y-14832805D01*
X2602716Y-14832805D02*
X2593192Y-14870901D01*
X2593192Y-14870901D02*
X2593192Y-14947091D01*
X2593192Y-14947091D02*
X2602716Y-14966139D01*
X2602716Y-14966139D02*
X2612240Y-14975663D01*
X2612240Y-14975663D02*
X2631288Y-14985186D01*
X2631288Y-14985186D02*
X2669383Y-14985186D01*
X2669383Y-14985186D02*
X2688430Y-14975663D01*
X2688430Y-14975663D02*
X2697954Y-14966139D01*
X2697954Y-14966139D02*
X2707478Y-14947091D01*
X2707478Y-14947091D02*
X2707478Y-14899472D01*
X2707478Y-14899472D02*
X2697954Y-14880424D01*
X2697954Y-14880424D02*
X2688430Y-14870901D01*
X2688430Y-14870901D02*
X2669383Y-14861377D01*
X2669383Y-14861377D02*
X2631288Y-14861377D01*
X2631288Y-14861377D02*
X2612240Y-14870901D01*
X2612240Y-14870901D02*
X2602716Y-14880424D01*
X2602716Y-14880424D02*
X2593192Y-14899472D01*
X2831287Y-14785186D02*
X2850335Y-14785186D01*
X2850335Y-14785186D02*
X2869383Y-14794710D01*
X2869383Y-14794710D02*
X2878907Y-14804234D01*
X2878907Y-14804234D02*
X2888430Y-14823282D01*
X2888430Y-14823282D02*
X2897954Y-14861377D01*
X2897954Y-14861377D02*
X2897954Y-14908996D01*
X2897954Y-14908996D02*
X2888430Y-14947091D01*
X2888430Y-14947091D02*
X2878907Y-14966139D01*
X2878907Y-14966139D02*
X2869383Y-14975663D01*
X2869383Y-14975663D02*
X2850335Y-14985186D01*
X2850335Y-14985186D02*
X2831287Y-14985186D01*
X2831287Y-14985186D02*
X2812240Y-14975663D01*
X2812240Y-14975663D02*
X2802716Y-14966139D01*
X2802716Y-14966139D02*
X2793192Y-14947091D01*
X2793192Y-14947091D02*
X2783669Y-14908996D01*
X2783669Y-14908996D02*
X2783669Y-14861377D01*
X2783669Y-14861377D02*
X2793192Y-14823282D01*
X2793192Y-14823282D02*
X2802716Y-14804234D01*
X2802716Y-14804234D02*
X2812240Y-14794710D01*
X2812240Y-14794710D02*
X2831287Y-14785186D01*
X3021764Y-14785186D02*
X3040811Y-14785186D01*
X3040811Y-14785186D02*
X3059859Y-14794710D01*
X3059859Y-14794710D02*
X3069383Y-14804234D01*
X3069383Y-14804234D02*
X3078907Y-14823282D01*
X3078907Y-14823282D02*
X3088430Y-14861377D01*
X3088430Y-14861377D02*
X3088430Y-14908996D01*
X3088430Y-14908996D02*
X3078907Y-14947091D01*
X3078907Y-14947091D02*
X3069383Y-14966139D01*
X3069383Y-14966139D02*
X3059859Y-14975663D01*
X3059859Y-14975663D02*
X3040811Y-14985186D01*
X3040811Y-14985186D02*
X3021764Y-14985186D01*
X3021764Y-14985186D02*
X3002716Y-14975663D01*
X3002716Y-14975663D02*
X2993192Y-14966139D01*
X2993192Y-14966139D02*
X2983668Y-14947091D01*
X2983668Y-14947091D02*
X2974145Y-14908996D01*
X2974145Y-14908996D02*
X2974145Y-14861377D01*
X2974145Y-14861377D02*
X2983668Y-14823282D01*
X2983668Y-14823282D02*
X2993192Y-14804234D01*
X2993192Y-14804234D02*
X3002716Y-14794710D01*
X3002716Y-14794710D02*
X3021764Y-14785186D01*
X3174145Y-14985186D02*
X3174145Y-14851853D01*
X3174145Y-14870901D02*
X3183668Y-14861377D01*
X3183668Y-14861377D02*
X3202716Y-14851853D01*
X3202716Y-14851853D02*
X3231288Y-14851853D01*
X3231288Y-14851853D02*
X3250335Y-14861377D01*
X3250335Y-14861377D02*
X3259859Y-14880424D01*
X3259859Y-14880424D02*
X3259859Y-14985186D01*
X3259859Y-14880424D02*
X3269383Y-14861377D01*
X3269383Y-14861377D02*
X3288430Y-14851853D01*
X3288430Y-14851853D02*
X3317002Y-14851853D01*
X3317002Y-14851853D02*
X3336049Y-14861377D01*
X3336049Y-14861377D02*
X3345573Y-14880424D01*
X3345573Y-14880424D02*
X3345573Y-14985186D01*
X3440811Y-14985186D02*
X3440811Y-14851853D01*
X3440811Y-14870901D02*
X3450335Y-14861377D01*
X3450335Y-14861377D02*
X3469383Y-14851853D01*
X3469383Y-14851853D02*
X3497954Y-14851853D01*
X3497954Y-14851853D02*
X3517002Y-14861377D01*
X3517002Y-14861377D02*
X3526526Y-14880424D01*
X3526526Y-14880424D02*
X3526526Y-14985186D01*
X3526526Y-14880424D02*
X3536049Y-14861377D01*
X3536049Y-14861377D02*
X3555097Y-14851853D01*
X3555097Y-14851853D02*
X3583668Y-14851853D01*
X3583668Y-14851853D02*
X3602716Y-14861377D01*
X3602716Y-14861377D02*
X3612240Y-14880424D01*
X3612240Y-14880424D02*
X3612240Y-14985186D01*
X4002716Y-14775663D02*
X3831288Y-15032805D01*
X4259859Y-14785186D02*
X4278907Y-14785186D01*
X4278907Y-14785186D02*
X4297954Y-14794710D01*
X4297954Y-14794710D02*
X4307478Y-14804234D01*
X4307478Y-14804234D02*
X4317002Y-14823282D01*
X4317002Y-14823282D02*
X4326526Y-14861377D01*
X4326526Y-14861377D02*
X4326526Y-14908996D01*
X4326526Y-14908996D02*
X4317002Y-14947091D01*
X4317002Y-14947091D02*
X4307478Y-14966139D01*
X4307478Y-14966139D02*
X4297954Y-14975663D01*
X4297954Y-14975663D02*
X4278907Y-14985186D01*
X4278907Y-14985186D02*
X4259859Y-14985186D01*
X4259859Y-14985186D02*
X4240812Y-14975663D01*
X4240812Y-14975663D02*
X4231288Y-14966139D01*
X4231288Y-14966139D02*
X4221764Y-14947091D01*
X4221764Y-14947091D02*
X4212240Y-14908996D01*
X4212240Y-14908996D02*
X4212240Y-14861377D01*
X4212240Y-14861377D02*
X4221764Y-14823282D01*
X4221764Y-14823282D02*
X4231288Y-14804234D01*
X4231288Y-14804234D02*
X4240812Y-14794710D01*
X4240812Y-14794710D02*
X4259859Y-14785186D01*
X4412240Y-14966139D02*
X4421764Y-14975663D01*
X4421764Y-14975663D02*
X4412240Y-14985186D01*
X4412240Y-14985186D02*
X4402716Y-14975663D01*
X4402716Y-14975663D02*
X4412240Y-14966139D01*
X4412240Y-14966139D02*
X4412240Y-14985186D01*
X4545573Y-14785186D02*
X4564621Y-14785186D01*
X4564621Y-14785186D02*
X4583669Y-14794710D01*
X4583669Y-14794710D02*
X4593193Y-14804234D01*
X4593193Y-14804234D02*
X4602716Y-14823282D01*
X4602716Y-14823282D02*
X4612240Y-14861377D01*
X4612240Y-14861377D02*
X4612240Y-14908996D01*
X4612240Y-14908996D02*
X4602716Y-14947091D01*
X4602716Y-14947091D02*
X4593193Y-14966139D01*
X4593193Y-14966139D02*
X4583669Y-14975663D01*
X4583669Y-14975663D02*
X4564621Y-14985186D01*
X4564621Y-14985186D02*
X4545573Y-14985186D01*
X4545573Y-14985186D02*
X4526526Y-14975663D01*
X4526526Y-14975663D02*
X4517002Y-14966139D01*
X4517002Y-14966139D02*
X4507478Y-14947091D01*
X4507478Y-14947091D02*
X4497954Y-14908996D01*
X4497954Y-14908996D02*
X4497954Y-14861377D01*
X4497954Y-14861377D02*
X4507478Y-14823282D01*
X4507478Y-14823282D02*
X4517002Y-14804234D01*
X4517002Y-14804234D02*
X4526526Y-14794710D01*
X4526526Y-14794710D02*
X4545573Y-14785186D01*
X4688431Y-14804234D02*
X4697954Y-14794710D01*
X4697954Y-14794710D02*
X4717002Y-14785186D01*
X4717002Y-14785186D02*
X4764621Y-14785186D01*
X4764621Y-14785186D02*
X4783669Y-14794710D01*
X4783669Y-14794710D02*
X4793193Y-14804234D01*
X4793193Y-14804234D02*
X4802716Y-14823282D01*
X4802716Y-14823282D02*
X4802716Y-14842329D01*
X4802716Y-14842329D02*
X4793193Y-14870901D01*
X4793193Y-14870901D02*
X4678907Y-14985186D01*
X4678907Y-14985186D02*
X4802716Y-14985186D01*
X4869383Y-14785186D02*
X4993193Y-14785186D01*
X4993193Y-14785186D02*
X4926526Y-14861377D01*
X4926526Y-14861377D02*
X4955097Y-14861377D01*
X4955097Y-14861377D02*
X4974145Y-14870901D01*
X4974145Y-14870901D02*
X4983669Y-14880424D01*
X4983669Y-14880424D02*
X4993193Y-14899472D01*
X4993193Y-14899472D02*
X4993193Y-14947091D01*
X4993193Y-14947091D02*
X4983669Y-14966139D01*
X4983669Y-14966139D02*
X4974145Y-14975663D01*
X4974145Y-14975663D02*
X4955097Y-14985186D01*
X4955097Y-14985186D02*
X4897954Y-14985186D01*
X4897954Y-14985186D02*
X4878907Y-14975663D01*
X4878907Y-14975663D02*
X4869383Y-14966139D01*
X5164621Y-14785186D02*
X5126526Y-14785186D01*
X5126526Y-14785186D02*
X5107478Y-14794710D01*
X5107478Y-14794710D02*
X5097954Y-14804234D01*
X5097954Y-14804234D02*
X5078907Y-14832805D01*
X5078907Y-14832805D02*
X5069383Y-14870901D01*
X5069383Y-14870901D02*
X5069383Y-14947091D01*
X5069383Y-14947091D02*
X5078907Y-14966139D01*
X5078907Y-14966139D02*
X5088431Y-14975663D01*
X5088431Y-14975663D02*
X5107478Y-14985186D01*
X5107478Y-14985186D02*
X5145574Y-14985186D01*
X5145574Y-14985186D02*
X5164621Y-14975663D01*
X5164621Y-14975663D02*
X5174145Y-14966139D01*
X5174145Y-14966139D02*
X5183669Y-14947091D01*
X5183669Y-14947091D02*
X5183669Y-14899472D01*
X5183669Y-14899472D02*
X5174145Y-14880424D01*
X5174145Y-14880424D02*
X5164621Y-14870901D01*
X5164621Y-14870901D02*
X5145574Y-14861377D01*
X5145574Y-14861377D02*
X5107478Y-14861377D01*
X5107478Y-14861377D02*
X5088431Y-14870901D01*
X5088431Y-14870901D02*
X5078907Y-14880424D01*
X5078907Y-14880424D02*
X5069383Y-14899472D01*
X5259859Y-14785186D02*
X5259859Y-14823282D01*
X5336050Y-14785186D02*
X5336050Y-14823282D01*
X5631288Y-15061377D02*
X5621764Y-15051853D01*
X5621764Y-15051853D02*
X5602716Y-15023282D01*
X5602716Y-15023282D02*
X5593193Y-15004234D01*
X5593193Y-15004234D02*
X5583669Y-14975663D01*
X5583669Y-14975663D02*
X5574145Y-14928043D01*
X5574145Y-14928043D02*
X5574145Y-14889948D01*
X5574145Y-14889948D02*
X5583669Y-14842329D01*
X5583669Y-14842329D02*
X5593193Y-14813758D01*
X5593193Y-14813758D02*
X5602716Y-14794710D01*
X5602716Y-14794710D02*
X5621764Y-14766139D01*
X5621764Y-14766139D02*
X5631288Y-14756615D01*
X5745573Y-14785186D02*
X5764621Y-14785186D01*
X5764621Y-14785186D02*
X5783669Y-14794710D01*
X5783669Y-14794710D02*
X5793193Y-14804234D01*
X5793193Y-14804234D02*
X5802716Y-14823282D01*
X5802716Y-14823282D02*
X5812240Y-14861377D01*
X5812240Y-14861377D02*
X5812240Y-14908996D01*
X5812240Y-14908996D02*
X5802716Y-14947091D01*
X5802716Y-14947091D02*
X5793193Y-14966139D01*
X5793193Y-14966139D02*
X5783669Y-14975663D01*
X5783669Y-14975663D02*
X5764621Y-14985186D01*
X5764621Y-14985186D02*
X5745573Y-14985186D01*
X5745573Y-14985186D02*
X5726526Y-14975663D01*
X5726526Y-14975663D02*
X5717002Y-14966139D01*
X5717002Y-14966139D02*
X5707478Y-14947091D01*
X5707478Y-14947091D02*
X5697954Y-14908996D01*
X5697954Y-14908996D02*
X5697954Y-14861377D01*
X5697954Y-14861377D02*
X5707478Y-14823282D01*
X5707478Y-14823282D02*
X5717002Y-14804234D01*
X5717002Y-14804234D02*
X5726526Y-14794710D01*
X5726526Y-14794710D02*
X5745573Y-14785186D01*
X6050335Y-14985186D02*
X6050335Y-14785186D01*
X6136050Y-14985186D02*
X6136050Y-14880424D01*
X6136050Y-14880424D02*
X6126526Y-14861377D01*
X6126526Y-14861377D02*
X6107478Y-14851853D01*
X6107478Y-14851853D02*
X6078907Y-14851853D01*
X6078907Y-14851853D02*
X6059859Y-14861377D01*
X6059859Y-14861377D02*
X6050335Y-14870901D01*
X6259859Y-14985186D02*
X6240812Y-14975663D01*
X6240812Y-14975663D02*
X6231288Y-14966139D01*
X6231288Y-14966139D02*
X6221764Y-14947091D01*
X6221764Y-14947091D02*
X6221764Y-14889948D01*
X6221764Y-14889948D02*
X6231288Y-14870901D01*
X6231288Y-14870901D02*
X6240812Y-14861377D01*
X6240812Y-14861377D02*
X6259859Y-14851853D01*
X6259859Y-14851853D02*
X6288431Y-14851853D01*
X6288431Y-14851853D02*
X6307478Y-14861377D01*
X6307478Y-14861377D02*
X6317002Y-14870901D01*
X6317002Y-14870901D02*
X6326526Y-14889948D01*
X6326526Y-14889948D02*
X6326526Y-14947091D01*
X6326526Y-14947091D02*
X6317002Y-14966139D01*
X6317002Y-14966139D02*
X6307478Y-14975663D01*
X6307478Y-14975663D02*
X6288431Y-14985186D01*
X6288431Y-14985186D02*
X6259859Y-14985186D01*
X6440812Y-14985186D02*
X6421764Y-14975663D01*
X6421764Y-14975663D02*
X6412240Y-14956615D01*
X6412240Y-14956615D02*
X6412240Y-14785186D01*
X6593193Y-14975663D02*
X6574145Y-14985186D01*
X6574145Y-14985186D02*
X6536050Y-14985186D01*
X6536050Y-14985186D02*
X6517002Y-14975663D01*
X6517002Y-14975663D02*
X6507478Y-14956615D01*
X6507478Y-14956615D02*
X6507478Y-14880424D01*
X6507478Y-14880424D02*
X6517002Y-14861377D01*
X6517002Y-14861377D02*
X6536050Y-14851853D01*
X6536050Y-14851853D02*
X6574145Y-14851853D01*
X6574145Y-14851853D02*
X6593193Y-14861377D01*
X6593193Y-14861377D02*
X6602716Y-14880424D01*
X6602716Y-14880424D02*
X6602716Y-14899472D01*
X6602716Y-14899472D02*
X6507478Y-14918520D01*
X6678907Y-14975663D02*
X6697955Y-14985186D01*
X6697955Y-14985186D02*
X6736050Y-14985186D01*
X6736050Y-14985186D02*
X6755097Y-14975663D01*
X6755097Y-14975663D02*
X6764621Y-14956615D01*
X6764621Y-14956615D02*
X6764621Y-14947091D01*
X6764621Y-14947091D02*
X6755097Y-14928043D01*
X6755097Y-14928043D02*
X6736050Y-14918520D01*
X6736050Y-14918520D02*
X6707478Y-14918520D01*
X6707478Y-14918520D02*
X6688431Y-14908996D01*
X6688431Y-14908996D02*
X6678907Y-14889948D01*
X6678907Y-14889948D02*
X6678907Y-14880424D01*
X6678907Y-14880424D02*
X6688431Y-14861377D01*
X6688431Y-14861377D02*
X6707478Y-14851853D01*
X6707478Y-14851853D02*
X6736050Y-14851853D01*
X6736050Y-14851853D02*
X6755097Y-14861377D01*
X7002717Y-14908996D02*
X7155098Y-14908996D01*
X7078907Y-14985186D02*
X7078907Y-14832805D01*
X7431288Y-14870901D02*
X7412240Y-14861377D01*
X7412240Y-14861377D02*
X7402717Y-14851853D01*
X7402717Y-14851853D02*
X7393193Y-14832805D01*
X7393193Y-14832805D02*
X7393193Y-14823282D01*
X7393193Y-14823282D02*
X7402717Y-14804234D01*
X7402717Y-14804234D02*
X7412240Y-14794710D01*
X7412240Y-14794710D02*
X7431288Y-14785186D01*
X7431288Y-14785186D02*
X7469383Y-14785186D01*
X7469383Y-14785186D02*
X7488431Y-14794710D01*
X7488431Y-14794710D02*
X7497955Y-14804234D01*
X7497955Y-14804234D02*
X7507478Y-14823282D01*
X7507478Y-14823282D02*
X7507478Y-14832805D01*
X7507478Y-14832805D02*
X7497955Y-14851853D01*
X7497955Y-14851853D02*
X7488431Y-14861377D01*
X7488431Y-14861377D02*
X7469383Y-14870901D01*
X7469383Y-14870901D02*
X7431288Y-14870901D01*
X7431288Y-14870901D02*
X7412240Y-14880424D01*
X7412240Y-14880424D02*
X7402717Y-14889948D01*
X7402717Y-14889948D02*
X7393193Y-14908996D01*
X7393193Y-14908996D02*
X7393193Y-14947091D01*
X7393193Y-14947091D02*
X7402717Y-14966139D01*
X7402717Y-14966139D02*
X7412240Y-14975663D01*
X7412240Y-14975663D02*
X7431288Y-14985186D01*
X7431288Y-14985186D02*
X7469383Y-14985186D01*
X7469383Y-14985186D02*
X7488431Y-14975663D01*
X7488431Y-14975663D02*
X7497955Y-14966139D01*
X7497955Y-14966139D02*
X7507478Y-14947091D01*
X7507478Y-14947091D02*
X7507478Y-14908996D01*
X7507478Y-14908996D02*
X7497955Y-14889948D01*
X7497955Y-14889948D02*
X7488431Y-14880424D01*
X7488431Y-14880424D02*
X7469383Y-14870901D01*
X7736050Y-14975663D02*
X7755098Y-14985186D01*
X7755098Y-14985186D02*
X7793193Y-14985186D01*
X7793193Y-14985186D02*
X7812240Y-14975663D01*
X7812240Y-14975663D02*
X7821764Y-14956615D01*
X7821764Y-14956615D02*
X7821764Y-14947091D01*
X7821764Y-14947091D02*
X7812240Y-14928043D01*
X7812240Y-14928043D02*
X7793193Y-14918520D01*
X7793193Y-14918520D02*
X7764621Y-14918520D01*
X7764621Y-14918520D02*
X7745574Y-14908996D01*
X7745574Y-14908996D02*
X7736050Y-14889948D01*
X7736050Y-14889948D02*
X7736050Y-14880424D01*
X7736050Y-14880424D02*
X7745574Y-14861377D01*
X7745574Y-14861377D02*
X7764621Y-14851853D01*
X7764621Y-14851853D02*
X7793193Y-14851853D01*
X7793193Y-14851853D02*
X7812240Y-14861377D01*
X7936050Y-14985186D02*
X7917002Y-14975663D01*
X7917002Y-14975663D02*
X7907479Y-14956615D01*
X7907479Y-14956615D02*
X7907479Y-14785186D01*
X8040812Y-14985186D02*
X8021764Y-14975663D01*
X8021764Y-14975663D02*
X8012240Y-14966139D01*
X8012240Y-14966139D02*
X8002717Y-14947091D01*
X8002717Y-14947091D02*
X8002717Y-14889948D01*
X8002717Y-14889948D02*
X8012240Y-14870901D01*
X8012240Y-14870901D02*
X8021764Y-14861377D01*
X8021764Y-14861377D02*
X8040812Y-14851853D01*
X8040812Y-14851853D02*
X8069383Y-14851853D01*
X8069383Y-14851853D02*
X8088431Y-14861377D01*
X8088431Y-14861377D02*
X8097955Y-14870901D01*
X8097955Y-14870901D02*
X8107479Y-14889948D01*
X8107479Y-14889948D02*
X8107479Y-14947091D01*
X8107479Y-14947091D02*
X8097955Y-14966139D01*
X8097955Y-14966139D02*
X8088431Y-14975663D01*
X8088431Y-14975663D02*
X8069383Y-14985186D01*
X8069383Y-14985186D02*
X8040812Y-14985186D01*
X8164621Y-14851853D02*
X8240812Y-14851853D01*
X8193193Y-14785186D02*
X8193193Y-14956615D01*
X8193193Y-14956615D02*
X8202717Y-14975663D01*
X8202717Y-14975663D02*
X8221764Y-14985186D01*
X8221764Y-14985186D02*
X8240812Y-14985186D01*
X8297955Y-14975663D02*
X8317002Y-14985186D01*
X8317002Y-14985186D02*
X8355098Y-14985186D01*
X8355098Y-14985186D02*
X8374145Y-14975663D01*
X8374145Y-14975663D02*
X8383669Y-14956615D01*
X8383669Y-14956615D02*
X8383669Y-14947091D01*
X8383669Y-14947091D02*
X8374145Y-14928043D01*
X8374145Y-14928043D02*
X8355098Y-14918520D01*
X8355098Y-14918520D02*
X8326526Y-14918520D01*
X8326526Y-14918520D02*
X8307479Y-14908996D01*
X8307479Y-14908996D02*
X8297955Y-14889948D01*
X8297955Y-14889948D02*
X8297955Y-14880424D01*
X8297955Y-14880424D02*
X8307479Y-14861377D01*
X8307479Y-14861377D02*
X8326526Y-14851853D01*
X8326526Y-14851853D02*
X8355098Y-14851853D01*
X8355098Y-14851853D02*
X8374145Y-14861377D01*
X8450336Y-15061377D02*
X8459860Y-15051853D01*
X8459860Y-15051853D02*
X8478907Y-15023282D01*
X8478907Y-15023282D02*
X8488431Y-15004234D01*
X8488431Y-15004234D02*
X8497955Y-14975663D01*
X8497955Y-14975663D02*
X8507479Y-14928043D01*
X8507479Y-14928043D02*
X8507479Y-14889948D01*
X8507479Y-14889948D02*
X8497955Y-14842329D01*
X8497955Y-14842329D02*
X8488431Y-14813758D01*
X8488431Y-14813758D02*
X8478907Y-14794710D01*
X8478907Y-14794710D02*
X8459860Y-14766139D01*
X8459860Y-14766139D02*
X8450336Y-14756615D01*
D11*
X2006225Y-15107703D02*
X2006225Y-15207703D01*
X1956225Y-15157703D02*
X2056225Y-15157703D01*
D14*
X2421764Y-15249186D02*
X2307478Y-15249186D01*
X2364621Y-15249186D02*
X2364621Y-15049186D01*
X2364621Y-15049186D02*
X2345573Y-15077758D01*
X2345573Y-15077758D02*
X2326526Y-15096805D01*
X2326526Y-15096805D02*
X2307478Y-15106329D01*
X2507478Y-15230139D02*
X2517002Y-15239663D01*
X2517002Y-15239663D02*
X2507478Y-15249186D01*
X2507478Y-15249186D02*
X2497954Y-15239663D01*
X2497954Y-15239663D02*
X2507478Y-15230139D01*
X2507478Y-15230139D02*
X2507478Y-15249186D01*
X2640811Y-15049186D02*
X2659859Y-15049186D01*
X2659859Y-15049186D02*
X2678907Y-15058710D01*
X2678907Y-15058710D02*
X2688430Y-15068234D01*
X2688430Y-15068234D02*
X2697954Y-15087282D01*
X2697954Y-15087282D02*
X2707478Y-15125377D01*
X2707478Y-15125377D02*
X2707478Y-15172996D01*
X2707478Y-15172996D02*
X2697954Y-15211091D01*
X2697954Y-15211091D02*
X2688430Y-15230139D01*
X2688430Y-15230139D02*
X2678907Y-15239663D01*
X2678907Y-15239663D02*
X2659859Y-15249186D01*
X2659859Y-15249186D02*
X2640811Y-15249186D01*
X2640811Y-15249186D02*
X2621764Y-15239663D01*
X2621764Y-15239663D02*
X2612240Y-15230139D01*
X2612240Y-15230139D02*
X2602716Y-15211091D01*
X2602716Y-15211091D02*
X2593192Y-15172996D01*
X2593192Y-15172996D02*
X2593192Y-15125377D01*
X2593192Y-15125377D02*
X2602716Y-15087282D01*
X2602716Y-15087282D02*
X2612240Y-15068234D01*
X2612240Y-15068234D02*
X2621764Y-15058710D01*
X2621764Y-15058710D02*
X2640811Y-15049186D01*
X2831287Y-15049186D02*
X2850335Y-15049186D01*
X2850335Y-15049186D02*
X2869383Y-15058710D01*
X2869383Y-15058710D02*
X2878907Y-15068234D01*
X2878907Y-15068234D02*
X2888430Y-15087282D01*
X2888430Y-15087282D02*
X2897954Y-15125377D01*
X2897954Y-15125377D02*
X2897954Y-15172996D01*
X2897954Y-15172996D02*
X2888430Y-15211091D01*
X2888430Y-15211091D02*
X2878907Y-15230139D01*
X2878907Y-15230139D02*
X2869383Y-15239663D01*
X2869383Y-15239663D02*
X2850335Y-15249186D01*
X2850335Y-15249186D02*
X2831287Y-15249186D01*
X2831287Y-15249186D02*
X2812240Y-15239663D01*
X2812240Y-15239663D02*
X2802716Y-15230139D01*
X2802716Y-15230139D02*
X2793192Y-15211091D01*
X2793192Y-15211091D02*
X2783669Y-15172996D01*
X2783669Y-15172996D02*
X2783669Y-15125377D01*
X2783669Y-15125377D02*
X2793192Y-15087282D01*
X2793192Y-15087282D02*
X2802716Y-15068234D01*
X2802716Y-15068234D02*
X2812240Y-15058710D01*
X2812240Y-15058710D02*
X2831287Y-15049186D01*
X3021764Y-15049186D02*
X3040811Y-15049186D01*
X3040811Y-15049186D02*
X3059859Y-15058710D01*
X3059859Y-15058710D02*
X3069383Y-15068234D01*
X3069383Y-15068234D02*
X3078907Y-15087282D01*
X3078907Y-15087282D02*
X3088430Y-15125377D01*
X3088430Y-15125377D02*
X3088430Y-15172996D01*
X3088430Y-15172996D02*
X3078907Y-15211091D01*
X3078907Y-15211091D02*
X3069383Y-15230139D01*
X3069383Y-15230139D02*
X3059859Y-15239663D01*
X3059859Y-15239663D02*
X3040811Y-15249186D01*
X3040811Y-15249186D02*
X3021764Y-15249186D01*
X3021764Y-15249186D02*
X3002716Y-15239663D01*
X3002716Y-15239663D02*
X2993192Y-15230139D01*
X2993192Y-15230139D02*
X2983668Y-15211091D01*
X2983668Y-15211091D02*
X2974145Y-15172996D01*
X2974145Y-15172996D02*
X2974145Y-15125377D01*
X2974145Y-15125377D02*
X2983668Y-15087282D01*
X2983668Y-15087282D02*
X2993192Y-15068234D01*
X2993192Y-15068234D02*
X3002716Y-15058710D01*
X3002716Y-15058710D02*
X3021764Y-15049186D01*
X3174145Y-15249186D02*
X3174145Y-15115853D01*
X3174145Y-15134901D02*
X3183668Y-15125377D01*
X3183668Y-15125377D02*
X3202716Y-15115853D01*
X3202716Y-15115853D02*
X3231288Y-15115853D01*
X3231288Y-15115853D02*
X3250335Y-15125377D01*
X3250335Y-15125377D02*
X3259859Y-15144424D01*
X3259859Y-15144424D02*
X3259859Y-15249186D01*
X3259859Y-15144424D02*
X3269383Y-15125377D01*
X3269383Y-15125377D02*
X3288430Y-15115853D01*
X3288430Y-15115853D02*
X3317002Y-15115853D01*
X3317002Y-15115853D02*
X3336049Y-15125377D01*
X3336049Y-15125377D02*
X3345573Y-15144424D01*
X3345573Y-15144424D02*
X3345573Y-15249186D01*
X3440811Y-15249186D02*
X3440811Y-15115853D01*
X3440811Y-15134901D02*
X3450335Y-15125377D01*
X3450335Y-15125377D02*
X3469383Y-15115853D01*
X3469383Y-15115853D02*
X3497954Y-15115853D01*
X3497954Y-15115853D02*
X3517002Y-15125377D01*
X3517002Y-15125377D02*
X3526526Y-15144424D01*
X3526526Y-15144424D02*
X3526526Y-15249186D01*
X3526526Y-15144424D02*
X3536049Y-15125377D01*
X3536049Y-15125377D02*
X3555097Y-15115853D01*
X3555097Y-15115853D02*
X3583668Y-15115853D01*
X3583668Y-15115853D02*
X3602716Y-15125377D01*
X3602716Y-15125377D02*
X3612240Y-15144424D01*
X3612240Y-15144424D02*
X3612240Y-15249186D01*
X4002716Y-15039663D02*
X3831288Y-15296805D01*
X4259859Y-15049186D02*
X4278907Y-15049186D01*
X4278907Y-15049186D02*
X4297954Y-15058710D01*
X4297954Y-15058710D02*
X4307478Y-15068234D01*
X4307478Y-15068234D02*
X4317002Y-15087282D01*
X4317002Y-15087282D02*
X4326526Y-15125377D01*
X4326526Y-15125377D02*
X4326526Y-15172996D01*
X4326526Y-15172996D02*
X4317002Y-15211091D01*
X4317002Y-15211091D02*
X4307478Y-15230139D01*
X4307478Y-15230139D02*
X4297954Y-15239663D01*
X4297954Y-15239663D02*
X4278907Y-15249186D01*
X4278907Y-15249186D02*
X4259859Y-15249186D01*
X4259859Y-15249186D02*
X4240812Y-15239663D01*
X4240812Y-15239663D02*
X4231288Y-15230139D01*
X4231288Y-15230139D02*
X4221764Y-15211091D01*
X4221764Y-15211091D02*
X4212240Y-15172996D01*
X4212240Y-15172996D02*
X4212240Y-15125377D01*
X4212240Y-15125377D02*
X4221764Y-15087282D01*
X4221764Y-15087282D02*
X4231288Y-15068234D01*
X4231288Y-15068234D02*
X4240812Y-15058710D01*
X4240812Y-15058710D02*
X4259859Y-15049186D01*
X4412240Y-15230139D02*
X4421764Y-15239663D01*
X4421764Y-15239663D02*
X4412240Y-15249186D01*
X4412240Y-15249186D02*
X4402716Y-15239663D01*
X4402716Y-15239663D02*
X4412240Y-15230139D01*
X4412240Y-15230139D02*
X4412240Y-15249186D01*
X4545573Y-15049186D02*
X4564621Y-15049186D01*
X4564621Y-15049186D02*
X4583669Y-15058710D01*
X4583669Y-15058710D02*
X4593193Y-15068234D01*
X4593193Y-15068234D02*
X4602716Y-15087282D01*
X4602716Y-15087282D02*
X4612240Y-15125377D01*
X4612240Y-15125377D02*
X4612240Y-15172996D01*
X4612240Y-15172996D02*
X4602716Y-15211091D01*
X4602716Y-15211091D02*
X4593193Y-15230139D01*
X4593193Y-15230139D02*
X4583669Y-15239663D01*
X4583669Y-15239663D02*
X4564621Y-15249186D01*
X4564621Y-15249186D02*
X4545573Y-15249186D01*
X4545573Y-15249186D02*
X4526526Y-15239663D01*
X4526526Y-15239663D02*
X4517002Y-15230139D01*
X4517002Y-15230139D02*
X4507478Y-15211091D01*
X4507478Y-15211091D02*
X4497954Y-15172996D01*
X4497954Y-15172996D02*
X4497954Y-15125377D01*
X4497954Y-15125377D02*
X4507478Y-15087282D01*
X4507478Y-15087282D02*
X4517002Y-15068234D01*
X4517002Y-15068234D02*
X4526526Y-15058710D01*
X4526526Y-15058710D02*
X4545573Y-15049186D01*
X4678907Y-15049186D02*
X4802716Y-15049186D01*
X4802716Y-15049186D02*
X4736050Y-15125377D01*
X4736050Y-15125377D02*
X4764621Y-15125377D01*
X4764621Y-15125377D02*
X4783669Y-15134901D01*
X4783669Y-15134901D02*
X4793193Y-15144424D01*
X4793193Y-15144424D02*
X4802716Y-15163472D01*
X4802716Y-15163472D02*
X4802716Y-15211091D01*
X4802716Y-15211091D02*
X4793193Y-15230139D01*
X4793193Y-15230139D02*
X4783669Y-15239663D01*
X4783669Y-15239663D02*
X4764621Y-15249186D01*
X4764621Y-15249186D02*
X4707478Y-15249186D01*
X4707478Y-15249186D02*
X4688431Y-15239663D01*
X4688431Y-15239663D02*
X4678907Y-15230139D01*
X4897954Y-15249186D02*
X4936050Y-15249186D01*
X4936050Y-15249186D02*
X4955097Y-15239663D01*
X4955097Y-15239663D02*
X4964621Y-15230139D01*
X4964621Y-15230139D02*
X4983669Y-15201567D01*
X4983669Y-15201567D02*
X4993193Y-15163472D01*
X4993193Y-15163472D02*
X4993193Y-15087282D01*
X4993193Y-15087282D02*
X4983669Y-15068234D01*
X4983669Y-15068234D02*
X4974145Y-15058710D01*
X4974145Y-15058710D02*
X4955097Y-15049186D01*
X4955097Y-15049186D02*
X4917002Y-15049186D01*
X4917002Y-15049186D02*
X4897954Y-15058710D01*
X4897954Y-15058710D02*
X4888431Y-15068234D01*
X4888431Y-15068234D02*
X4878907Y-15087282D01*
X4878907Y-15087282D02*
X4878907Y-15134901D01*
X4878907Y-15134901D02*
X4888431Y-15153948D01*
X4888431Y-15153948D02*
X4897954Y-15163472D01*
X4897954Y-15163472D02*
X4917002Y-15172996D01*
X4917002Y-15172996D02*
X4955097Y-15172996D01*
X4955097Y-15172996D02*
X4974145Y-15163472D01*
X4974145Y-15163472D02*
X4983669Y-15153948D01*
X4983669Y-15153948D02*
X4993193Y-15134901D01*
X5164621Y-15115853D02*
X5164621Y-15249186D01*
X5117002Y-15039663D02*
X5069383Y-15182520D01*
X5069383Y-15182520D02*
X5193193Y-15182520D01*
X5259859Y-15049186D02*
X5259859Y-15087282D01*
X5336050Y-15049186D02*
X5336050Y-15087282D01*
X5631288Y-15325377D02*
X5621764Y-15315853D01*
X5621764Y-15315853D02*
X5602716Y-15287282D01*
X5602716Y-15287282D02*
X5593193Y-15268234D01*
X5593193Y-15268234D02*
X5583669Y-15239663D01*
X5583669Y-15239663D02*
X5574145Y-15192043D01*
X5574145Y-15192043D02*
X5574145Y-15153948D01*
X5574145Y-15153948D02*
X5583669Y-15106329D01*
X5583669Y-15106329D02*
X5593193Y-15077758D01*
X5593193Y-15077758D02*
X5602716Y-15058710D01*
X5602716Y-15058710D02*
X5621764Y-15030139D01*
X5621764Y-15030139D02*
X5631288Y-15020615D01*
X5688431Y-15049186D02*
X5812240Y-15049186D01*
X5812240Y-15049186D02*
X5745573Y-15125377D01*
X5745573Y-15125377D02*
X5774145Y-15125377D01*
X5774145Y-15125377D02*
X5793193Y-15134901D01*
X5793193Y-15134901D02*
X5802716Y-15144424D01*
X5802716Y-15144424D02*
X5812240Y-15163472D01*
X5812240Y-15163472D02*
X5812240Y-15211091D01*
X5812240Y-15211091D02*
X5802716Y-15230139D01*
X5802716Y-15230139D02*
X5793193Y-15239663D01*
X5793193Y-15239663D02*
X5774145Y-15249186D01*
X5774145Y-15249186D02*
X5717002Y-15249186D01*
X5717002Y-15249186D02*
X5697954Y-15239663D01*
X5697954Y-15239663D02*
X5688431Y-15230139D01*
X5888431Y-15068234D02*
X5897954Y-15058710D01*
X5897954Y-15058710D02*
X5917002Y-15049186D01*
X5917002Y-15049186D02*
X5964621Y-15049186D01*
X5964621Y-15049186D02*
X5983669Y-15058710D01*
X5983669Y-15058710D02*
X5993193Y-15068234D01*
X5993193Y-15068234D02*
X6002716Y-15087282D01*
X6002716Y-15087282D02*
X6002716Y-15106329D01*
X6002716Y-15106329D02*
X5993193Y-15134901D01*
X5993193Y-15134901D02*
X5878907Y-15249186D01*
X5878907Y-15249186D02*
X6002716Y-15249186D01*
X6240812Y-15249186D02*
X6240812Y-15049186D01*
X6326526Y-15249186D02*
X6326526Y-15144424D01*
X6326526Y-15144424D02*
X6317002Y-15125377D01*
X6317002Y-15125377D02*
X6297955Y-15115853D01*
X6297955Y-15115853D02*
X6269383Y-15115853D01*
X6269383Y-15115853D02*
X6250335Y-15125377D01*
X6250335Y-15125377D02*
X6240812Y-15134901D01*
X6450335Y-15249186D02*
X6431288Y-15239663D01*
X6431288Y-15239663D02*
X6421764Y-15230139D01*
X6421764Y-15230139D02*
X6412240Y-15211091D01*
X6412240Y-15211091D02*
X6412240Y-15153948D01*
X6412240Y-15153948D02*
X6421764Y-15134901D01*
X6421764Y-15134901D02*
X6431288Y-15125377D01*
X6431288Y-15125377D02*
X6450335Y-15115853D01*
X6450335Y-15115853D02*
X6478907Y-15115853D01*
X6478907Y-15115853D02*
X6497955Y-15125377D01*
X6497955Y-15125377D02*
X6507478Y-15134901D01*
X6507478Y-15134901D02*
X6517002Y-15153948D01*
X6517002Y-15153948D02*
X6517002Y-15211091D01*
X6517002Y-15211091D02*
X6507478Y-15230139D01*
X6507478Y-15230139D02*
X6497955Y-15239663D01*
X6497955Y-15239663D02*
X6478907Y-15249186D01*
X6478907Y-15249186D02*
X6450335Y-15249186D01*
X6631288Y-15249186D02*
X6612240Y-15239663D01*
X6612240Y-15239663D02*
X6602716Y-15220615D01*
X6602716Y-15220615D02*
X6602716Y-15049186D01*
X6783669Y-15239663D02*
X6764621Y-15249186D01*
X6764621Y-15249186D02*
X6726526Y-15249186D01*
X6726526Y-15249186D02*
X6707478Y-15239663D01*
X6707478Y-15239663D02*
X6697955Y-15220615D01*
X6697955Y-15220615D02*
X6697955Y-15144424D01*
X6697955Y-15144424D02*
X6707478Y-15125377D01*
X6707478Y-15125377D02*
X6726526Y-15115853D01*
X6726526Y-15115853D02*
X6764621Y-15115853D01*
X6764621Y-15115853D02*
X6783669Y-15125377D01*
X6783669Y-15125377D02*
X6793193Y-15144424D01*
X6793193Y-15144424D02*
X6793193Y-15163472D01*
X6793193Y-15163472D02*
X6697955Y-15182520D01*
X6869383Y-15239663D02*
X6888431Y-15249186D01*
X6888431Y-15249186D02*
X6926526Y-15249186D01*
X6926526Y-15249186D02*
X6945574Y-15239663D01*
X6945574Y-15239663D02*
X6955097Y-15220615D01*
X6955097Y-15220615D02*
X6955097Y-15211091D01*
X6955097Y-15211091D02*
X6945574Y-15192043D01*
X6945574Y-15192043D02*
X6926526Y-15182520D01*
X6926526Y-15182520D02*
X6897955Y-15182520D01*
X6897955Y-15182520D02*
X6878907Y-15172996D01*
X6878907Y-15172996D02*
X6869383Y-15153948D01*
X6869383Y-15153948D02*
X6869383Y-15144424D01*
X6869383Y-15144424D02*
X6878907Y-15125377D01*
X6878907Y-15125377D02*
X6897955Y-15115853D01*
X6897955Y-15115853D02*
X6926526Y-15115853D01*
X6926526Y-15115853D02*
X6945574Y-15125377D01*
X7021764Y-15325377D02*
X7031288Y-15315853D01*
X7031288Y-15315853D02*
X7050336Y-15287282D01*
X7050336Y-15287282D02*
X7059859Y-15268234D01*
X7059859Y-15268234D02*
X7069383Y-15239663D01*
X7069383Y-15239663D02*
X7078907Y-15192043D01*
X7078907Y-15192043D02*
X7078907Y-15153948D01*
X7078907Y-15153948D02*
X7069383Y-15106329D01*
X7069383Y-15106329D02*
X7059859Y-15077758D01*
X7059859Y-15077758D02*
X7050336Y-15058710D01*
X7050336Y-15058710D02*
X7031288Y-15030139D01*
X7031288Y-15030139D02*
X7021764Y-15020615D01*
D15*
X2041346Y-15457624D02*
X2041346Y-15385781D01*
X1969504Y-15385781D01*
X1969504Y-15457624D01*
X2041346Y-15457624D01*
D14*
X2421764Y-15513186D02*
X2307478Y-15513186D01*
X2364621Y-15513186D02*
X2364621Y-15313186D01*
X2364621Y-15313186D02*
X2345573Y-15341758D01*
X2345573Y-15341758D02*
X2326526Y-15360805D01*
X2326526Y-15360805D02*
X2307478Y-15370329D01*
X2507478Y-15494139D02*
X2517002Y-15503663D01*
X2517002Y-15503663D02*
X2507478Y-15513186D01*
X2507478Y-15513186D02*
X2497954Y-15503663D01*
X2497954Y-15503663D02*
X2507478Y-15494139D01*
X2507478Y-15494139D02*
X2507478Y-15513186D01*
X2640811Y-15313186D02*
X2659859Y-15313186D01*
X2659859Y-15313186D02*
X2678907Y-15322710D01*
X2678907Y-15322710D02*
X2688430Y-15332234D01*
X2688430Y-15332234D02*
X2697954Y-15351282D01*
X2697954Y-15351282D02*
X2707478Y-15389377D01*
X2707478Y-15389377D02*
X2707478Y-15436996D01*
X2707478Y-15436996D02*
X2697954Y-15475091D01*
X2697954Y-15475091D02*
X2688430Y-15494139D01*
X2688430Y-15494139D02*
X2678907Y-15503663D01*
X2678907Y-15503663D02*
X2659859Y-15513186D01*
X2659859Y-15513186D02*
X2640811Y-15513186D01*
X2640811Y-15513186D02*
X2621764Y-15503663D01*
X2621764Y-15503663D02*
X2612240Y-15494139D01*
X2612240Y-15494139D02*
X2602716Y-15475091D01*
X2602716Y-15475091D02*
X2593192Y-15436996D01*
X2593192Y-15436996D02*
X2593192Y-15389377D01*
X2593192Y-15389377D02*
X2602716Y-15351282D01*
X2602716Y-15351282D02*
X2612240Y-15332234D01*
X2612240Y-15332234D02*
X2621764Y-15322710D01*
X2621764Y-15322710D02*
X2640811Y-15313186D01*
X2897954Y-15513186D02*
X2783669Y-15513186D01*
X2840811Y-15513186D02*
X2840811Y-15313186D01*
X2840811Y-15313186D02*
X2821764Y-15341758D01*
X2821764Y-15341758D02*
X2802716Y-15360805D01*
X2802716Y-15360805D02*
X2783669Y-15370329D01*
X3069383Y-15313186D02*
X3031287Y-15313186D01*
X3031287Y-15313186D02*
X3012240Y-15322710D01*
X3012240Y-15322710D02*
X3002716Y-15332234D01*
X3002716Y-15332234D02*
X2983668Y-15360805D01*
X2983668Y-15360805D02*
X2974145Y-15398901D01*
X2974145Y-15398901D02*
X2974145Y-15475091D01*
X2974145Y-15475091D02*
X2983668Y-15494139D01*
X2983668Y-15494139D02*
X2993192Y-15503663D01*
X2993192Y-15503663D02*
X3012240Y-15513186D01*
X3012240Y-15513186D02*
X3050335Y-15513186D01*
X3050335Y-15513186D02*
X3069383Y-15503663D01*
X3069383Y-15503663D02*
X3078907Y-15494139D01*
X3078907Y-15494139D02*
X3088430Y-15475091D01*
X3088430Y-15475091D02*
X3088430Y-15427472D01*
X3088430Y-15427472D02*
X3078907Y-15408424D01*
X3078907Y-15408424D02*
X3069383Y-15398901D01*
X3069383Y-15398901D02*
X3050335Y-15389377D01*
X3050335Y-15389377D02*
X3012240Y-15389377D01*
X3012240Y-15389377D02*
X2993192Y-15398901D01*
X2993192Y-15398901D02*
X2983668Y-15408424D01*
X2983668Y-15408424D02*
X2974145Y-15427472D01*
X3174145Y-15513186D02*
X3174145Y-15379853D01*
X3174145Y-15398901D02*
X3183668Y-15389377D01*
X3183668Y-15389377D02*
X3202716Y-15379853D01*
X3202716Y-15379853D02*
X3231288Y-15379853D01*
X3231288Y-15379853D02*
X3250335Y-15389377D01*
X3250335Y-15389377D02*
X3259859Y-15408424D01*
X3259859Y-15408424D02*
X3259859Y-15513186D01*
X3259859Y-15408424D02*
X3269383Y-15389377D01*
X3269383Y-15389377D02*
X3288430Y-15379853D01*
X3288430Y-15379853D02*
X3317002Y-15379853D01*
X3317002Y-15379853D02*
X3336049Y-15389377D01*
X3336049Y-15389377D02*
X3345573Y-15408424D01*
X3345573Y-15408424D02*
X3345573Y-15513186D01*
X3440811Y-15513186D02*
X3440811Y-15379853D01*
X3440811Y-15398901D02*
X3450335Y-15389377D01*
X3450335Y-15389377D02*
X3469383Y-15379853D01*
X3469383Y-15379853D02*
X3497954Y-15379853D01*
X3497954Y-15379853D02*
X3517002Y-15389377D01*
X3517002Y-15389377D02*
X3526526Y-15408424D01*
X3526526Y-15408424D02*
X3526526Y-15513186D01*
X3526526Y-15408424D02*
X3536049Y-15389377D01*
X3536049Y-15389377D02*
X3555097Y-15379853D01*
X3555097Y-15379853D02*
X3583668Y-15379853D01*
X3583668Y-15379853D02*
X3602716Y-15389377D01*
X3602716Y-15389377D02*
X3612240Y-15408424D01*
X3612240Y-15408424D02*
X3612240Y-15513186D01*
X4002716Y-15303663D02*
X3831288Y-15560805D01*
X4259859Y-15313186D02*
X4278907Y-15313186D01*
X4278907Y-15313186D02*
X4297954Y-15322710D01*
X4297954Y-15322710D02*
X4307478Y-15332234D01*
X4307478Y-15332234D02*
X4317002Y-15351282D01*
X4317002Y-15351282D02*
X4326526Y-15389377D01*
X4326526Y-15389377D02*
X4326526Y-15436996D01*
X4326526Y-15436996D02*
X4317002Y-15475091D01*
X4317002Y-15475091D02*
X4307478Y-15494139D01*
X4307478Y-15494139D02*
X4297954Y-15503663D01*
X4297954Y-15503663D02*
X4278907Y-15513186D01*
X4278907Y-15513186D02*
X4259859Y-15513186D01*
X4259859Y-15513186D02*
X4240812Y-15503663D01*
X4240812Y-15503663D02*
X4231288Y-15494139D01*
X4231288Y-15494139D02*
X4221764Y-15475091D01*
X4221764Y-15475091D02*
X4212240Y-15436996D01*
X4212240Y-15436996D02*
X4212240Y-15389377D01*
X4212240Y-15389377D02*
X4221764Y-15351282D01*
X4221764Y-15351282D02*
X4231288Y-15332234D01*
X4231288Y-15332234D02*
X4240812Y-15322710D01*
X4240812Y-15322710D02*
X4259859Y-15313186D01*
X4412240Y-15494139D02*
X4421764Y-15503663D01*
X4421764Y-15503663D02*
X4412240Y-15513186D01*
X4412240Y-15513186D02*
X4402716Y-15503663D01*
X4402716Y-15503663D02*
X4412240Y-15494139D01*
X4412240Y-15494139D02*
X4412240Y-15513186D01*
X4545573Y-15313186D02*
X4564621Y-15313186D01*
X4564621Y-15313186D02*
X4583669Y-15322710D01*
X4583669Y-15322710D02*
X4593193Y-15332234D01*
X4593193Y-15332234D02*
X4602716Y-15351282D01*
X4602716Y-15351282D02*
X4612240Y-15389377D01*
X4612240Y-15389377D02*
X4612240Y-15436996D01*
X4612240Y-15436996D02*
X4602716Y-15475091D01*
X4602716Y-15475091D02*
X4593193Y-15494139D01*
X4593193Y-15494139D02*
X4583669Y-15503663D01*
X4583669Y-15503663D02*
X4564621Y-15513186D01*
X4564621Y-15513186D02*
X4545573Y-15513186D01*
X4545573Y-15513186D02*
X4526526Y-15503663D01*
X4526526Y-15503663D02*
X4517002Y-15494139D01*
X4517002Y-15494139D02*
X4507478Y-15475091D01*
X4507478Y-15475091D02*
X4497954Y-15436996D01*
X4497954Y-15436996D02*
X4497954Y-15389377D01*
X4497954Y-15389377D02*
X4507478Y-15351282D01*
X4507478Y-15351282D02*
X4517002Y-15332234D01*
X4517002Y-15332234D02*
X4526526Y-15322710D01*
X4526526Y-15322710D02*
X4545573Y-15313186D01*
X4783669Y-15379853D02*
X4783669Y-15513186D01*
X4736050Y-15303663D02*
X4688431Y-15446520D01*
X4688431Y-15446520D02*
X4812240Y-15446520D01*
X4926526Y-15313186D02*
X4945574Y-15313186D01*
X4945574Y-15313186D02*
X4964621Y-15322710D01*
X4964621Y-15322710D02*
X4974145Y-15332234D01*
X4974145Y-15332234D02*
X4983669Y-15351282D01*
X4983669Y-15351282D02*
X4993193Y-15389377D01*
X4993193Y-15389377D02*
X4993193Y-15436996D01*
X4993193Y-15436996D02*
X4983669Y-15475091D01*
X4983669Y-15475091D02*
X4974145Y-15494139D01*
X4974145Y-15494139D02*
X4964621Y-15503663D01*
X4964621Y-15503663D02*
X4945574Y-15513186D01*
X4945574Y-15513186D02*
X4926526Y-15513186D01*
X4926526Y-15513186D02*
X4907478Y-15503663D01*
X4907478Y-15503663D02*
X4897954Y-15494139D01*
X4897954Y-15494139D02*
X4888431Y-15475091D01*
X4888431Y-15475091D02*
X4878907Y-15436996D01*
X4878907Y-15436996D02*
X4878907Y-15389377D01*
X4878907Y-15389377D02*
X4888431Y-15351282D01*
X4888431Y-15351282D02*
X4897954Y-15332234D01*
X4897954Y-15332234D02*
X4907478Y-15322710D01*
X4907478Y-15322710D02*
X4926526Y-15313186D01*
X5117002Y-15313186D02*
X5136050Y-15313186D01*
X5136050Y-15313186D02*
X5155097Y-15322710D01*
X5155097Y-15322710D02*
X5164621Y-15332234D01*
X5164621Y-15332234D02*
X5174145Y-15351282D01*
X5174145Y-15351282D02*
X5183669Y-15389377D01*
X5183669Y-15389377D02*
X5183669Y-15436996D01*
X5183669Y-15436996D02*
X5174145Y-15475091D01*
X5174145Y-15475091D02*
X5164621Y-15494139D01*
X5164621Y-15494139D02*
X5155097Y-15503663D01*
X5155097Y-15503663D02*
X5136050Y-15513186D01*
X5136050Y-15513186D02*
X5117002Y-15513186D01*
X5117002Y-15513186D02*
X5097954Y-15503663D01*
X5097954Y-15503663D02*
X5088431Y-15494139D01*
X5088431Y-15494139D02*
X5078907Y-15475091D01*
X5078907Y-15475091D02*
X5069383Y-15436996D01*
X5069383Y-15436996D02*
X5069383Y-15389377D01*
X5069383Y-15389377D02*
X5078907Y-15351282D01*
X5078907Y-15351282D02*
X5088431Y-15332234D01*
X5088431Y-15332234D02*
X5097954Y-15322710D01*
X5097954Y-15322710D02*
X5117002Y-15313186D01*
X5259859Y-15313186D02*
X5259859Y-15351282D01*
X5336050Y-15313186D02*
X5336050Y-15351282D01*
X5631288Y-15589377D02*
X5621764Y-15579853D01*
X5621764Y-15579853D02*
X5602716Y-15551282D01*
X5602716Y-15551282D02*
X5593193Y-15532234D01*
X5593193Y-15532234D02*
X5583669Y-15503663D01*
X5583669Y-15503663D02*
X5574145Y-15456043D01*
X5574145Y-15456043D02*
X5574145Y-15417948D01*
X5574145Y-15417948D02*
X5583669Y-15370329D01*
X5583669Y-15370329D02*
X5593193Y-15341758D01*
X5593193Y-15341758D02*
X5602716Y-15322710D01*
X5602716Y-15322710D02*
X5621764Y-15294139D01*
X5621764Y-15294139D02*
X5631288Y-15284615D01*
X5812240Y-15513186D02*
X5697954Y-15513186D01*
X5755097Y-15513186D02*
X5755097Y-15313186D01*
X5755097Y-15313186D02*
X5736050Y-15341758D01*
X5736050Y-15341758D02*
X5717002Y-15360805D01*
X5717002Y-15360805D02*
X5697954Y-15370329D01*
X5888431Y-15332234D02*
X5897954Y-15322710D01*
X5897954Y-15322710D02*
X5917002Y-15313186D01*
X5917002Y-15313186D02*
X5964621Y-15313186D01*
X5964621Y-15313186D02*
X5983669Y-15322710D01*
X5983669Y-15322710D02*
X5993193Y-15332234D01*
X5993193Y-15332234D02*
X6002716Y-15351282D01*
X6002716Y-15351282D02*
X6002716Y-15370329D01*
X6002716Y-15370329D02*
X5993193Y-15398901D01*
X5993193Y-15398901D02*
X5878907Y-15513186D01*
X5878907Y-15513186D02*
X6002716Y-15513186D01*
X6240812Y-15513186D02*
X6240812Y-15313186D01*
X6326526Y-15513186D02*
X6326526Y-15408424D01*
X6326526Y-15408424D02*
X6317002Y-15389377D01*
X6317002Y-15389377D02*
X6297955Y-15379853D01*
X6297955Y-15379853D02*
X6269383Y-15379853D01*
X6269383Y-15379853D02*
X6250335Y-15389377D01*
X6250335Y-15389377D02*
X6240812Y-15398901D01*
X6450335Y-15513186D02*
X6431288Y-15503663D01*
X6431288Y-15503663D02*
X6421764Y-15494139D01*
X6421764Y-15494139D02*
X6412240Y-15475091D01*
X6412240Y-15475091D02*
X6412240Y-15417948D01*
X6412240Y-15417948D02*
X6421764Y-15398901D01*
X6421764Y-15398901D02*
X6431288Y-15389377D01*
X6431288Y-15389377D02*
X6450335Y-15379853D01*
X6450335Y-15379853D02*
X6478907Y-15379853D01*
X6478907Y-15379853D02*
X6497955Y-15389377D01*
X6497955Y-15389377D02*
X6507478Y-15398901D01*
X6507478Y-15398901D02*
X6517002Y-15417948D01*
X6517002Y-15417948D02*
X6517002Y-15475091D01*
X6517002Y-15475091D02*
X6507478Y-15494139D01*
X6507478Y-15494139D02*
X6497955Y-15503663D01*
X6497955Y-15503663D02*
X6478907Y-15513186D01*
X6478907Y-15513186D02*
X6450335Y-15513186D01*
X6631288Y-15513186D02*
X6612240Y-15503663D01*
X6612240Y-15503663D02*
X6602716Y-15484615D01*
X6602716Y-15484615D02*
X6602716Y-15313186D01*
X6783669Y-15503663D02*
X6764621Y-15513186D01*
X6764621Y-15513186D02*
X6726526Y-15513186D01*
X6726526Y-15513186D02*
X6707478Y-15503663D01*
X6707478Y-15503663D02*
X6697955Y-15484615D01*
X6697955Y-15484615D02*
X6697955Y-15408424D01*
X6697955Y-15408424D02*
X6707478Y-15389377D01*
X6707478Y-15389377D02*
X6726526Y-15379853D01*
X6726526Y-15379853D02*
X6764621Y-15379853D01*
X6764621Y-15379853D02*
X6783669Y-15389377D01*
X6783669Y-15389377D02*
X6793193Y-15408424D01*
X6793193Y-15408424D02*
X6793193Y-15427472D01*
X6793193Y-15427472D02*
X6697955Y-15446520D01*
X6869383Y-15503663D02*
X6888431Y-15513186D01*
X6888431Y-15513186D02*
X6926526Y-15513186D01*
X6926526Y-15513186D02*
X6945574Y-15503663D01*
X6945574Y-15503663D02*
X6955097Y-15484615D01*
X6955097Y-15484615D02*
X6955097Y-15475091D01*
X6955097Y-15475091D02*
X6945574Y-15456043D01*
X6945574Y-15456043D02*
X6926526Y-15446520D01*
X6926526Y-15446520D02*
X6897955Y-15446520D01*
X6897955Y-15446520D02*
X6878907Y-15436996D01*
X6878907Y-15436996D02*
X6869383Y-15417948D01*
X6869383Y-15417948D02*
X6869383Y-15408424D01*
X6869383Y-15408424D02*
X6878907Y-15389377D01*
X6878907Y-15389377D02*
X6897955Y-15379853D01*
X6897955Y-15379853D02*
X6926526Y-15379853D01*
X6926526Y-15379853D02*
X6945574Y-15389377D01*
X7021764Y-15589377D02*
X7031288Y-15579853D01*
X7031288Y-15579853D02*
X7050336Y-15551282D01*
X7050336Y-15551282D02*
X7059859Y-15532234D01*
X7059859Y-15532234D02*
X7069383Y-15503663D01*
X7069383Y-15503663D02*
X7078907Y-15456043D01*
X7078907Y-15456043D02*
X7078907Y-15417948D01*
X7078907Y-15417948D02*
X7069383Y-15370329D01*
X7069383Y-15370329D02*
X7059859Y-15341758D01*
X7059859Y-15341758D02*
X7050336Y-15322710D01*
X7050336Y-15322710D02*
X7031288Y-15294139D01*
X7031288Y-15294139D02*
X7021764Y-15284615D01*
D16*
X1993725Y-15748203D02*
X2056225Y-15685703D01*
X1993725Y-15623203D01*
X1931225Y-15685703D01*
X1993725Y-15748203D01*
D14*
X2421764Y-15777186D02*
X2307478Y-15777186D01*
X2364621Y-15777186D02*
X2364621Y-15577186D01*
X2364621Y-15577186D02*
X2345573Y-15605758D01*
X2345573Y-15605758D02*
X2326526Y-15624805D01*
X2326526Y-15624805D02*
X2307478Y-15634329D01*
X2507478Y-15758139D02*
X2517002Y-15767663D01*
X2517002Y-15767663D02*
X2507478Y-15777186D01*
X2507478Y-15777186D02*
X2497954Y-15767663D01*
X2497954Y-15767663D02*
X2507478Y-15758139D01*
X2507478Y-15758139D02*
X2507478Y-15777186D01*
X2593192Y-15596234D02*
X2602716Y-15586710D01*
X2602716Y-15586710D02*
X2621764Y-15577186D01*
X2621764Y-15577186D02*
X2669383Y-15577186D01*
X2669383Y-15577186D02*
X2688430Y-15586710D01*
X2688430Y-15586710D02*
X2697954Y-15596234D01*
X2697954Y-15596234D02*
X2707478Y-15615282D01*
X2707478Y-15615282D02*
X2707478Y-15634329D01*
X2707478Y-15634329D02*
X2697954Y-15662901D01*
X2697954Y-15662901D02*
X2583669Y-15777186D01*
X2583669Y-15777186D02*
X2707478Y-15777186D01*
X2888430Y-15577186D02*
X2793192Y-15577186D01*
X2793192Y-15577186D02*
X2783669Y-15672424D01*
X2783669Y-15672424D02*
X2793192Y-15662901D01*
X2793192Y-15662901D02*
X2812240Y-15653377D01*
X2812240Y-15653377D02*
X2859859Y-15653377D01*
X2859859Y-15653377D02*
X2878907Y-15662901D01*
X2878907Y-15662901D02*
X2888430Y-15672424D01*
X2888430Y-15672424D02*
X2897954Y-15691472D01*
X2897954Y-15691472D02*
X2897954Y-15739091D01*
X2897954Y-15739091D02*
X2888430Y-15758139D01*
X2888430Y-15758139D02*
X2878907Y-15767663D01*
X2878907Y-15767663D02*
X2859859Y-15777186D01*
X2859859Y-15777186D02*
X2812240Y-15777186D01*
X2812240Y-15777186D02*
X2793192Y-15767663D01*
X2793192Y-15767663D02*
X2783669Y-15758139D01*
X3021764Y-15577186D02*
X3040811Y-15577186D01*
X3040811Y-15577186D02*
X3059859Y-15586710D01*
X3059859Y-15586710D02*
X3069383Y-15596234D01*
X3069383Y-15596234D02*
X3078907Y-15615282D01*
X3078907Y-15615282D02*
X3088430Y-15653377D01*
X3088430Y-15653377D02*
X3088430Y-15700996D01*
X3088430Y-15700996D02*
X3078907Y-15739091D01*
X3078907Y-15739091D02*
X3069383Y-15758139D01*
X3069383Y-15758139D02*
X3059859Y-15767663D01*
X3059859Y-15767663D02*
X3040811Y-15777186D01*
X3040811Y-15777186D02*
X3021764Y-15777186D01*
X3021764Y-15777186D02*
X3002716Y-15767663D01*
X3002716Y-15767663D02*
X2993192Y-15758139D01*
X2993192Y-15758139D02*
X2983668Y-15739091D01*
X2983668Y-15739091D02*
X2974145Y-15700996D01*
X2974145Y-15700996D02*
X2974145Y-15653377D01*
X2974145Y-15653377D02*
X2983668Y-15615282D01*
X2983668Y-15615282D02*
X2993192Y-15596234D01*
X2993192Y-15596234D02*
X3002716Y-15586710D01*
X3002716Y-15586710D02*
X3021764Y-15577186D01*
X3174145Y-15777186D02*
X3174145Y-15643853D01*
X3174145Y-15662901D02*
X3183668Y-15653377D01*
X3183668Y-15653377D02*
X3202716Y-15643853D01*
X3202716Y-15643853D02*
X3231288Y-15643853D01*
X3231288Y-15643853D02*
X3250335Y-15653377D01*
X3250335Y-15653377D02*
X3259859Y-15672424D01*
X3259859Y-15672424D02*
X3259859Y-15777186D01*
X3259859Y-15672424D02*
X3269383Y-15653377D01*
X3269383Y-15653377D02*
X3288430Y-15643853D01*
X3288430Y-15643853D02*
X3317002Y-15643853D01*
X3317002Y-15643853D02*
X3336049Y-15653377D01*
X3336049Y-15653377D02*
X3345573Y-15672424D01*
X3345573Y-15672424D02*
X3345573Y-15777186D01*
X3440811Y-15777186D02*
X3440811Y-15643853D01*
X3440811Y-15662901D02*
X3450335Y-15653377D01*
X3450335Y-15653377D02*
X3469383Y-15643853D01*
X3469383Y-15643853D02*
X3497954Y-15643853D01*
X3497954Y-15643853D02*
X3517002Y-15653377D01*
X3517002Y-15653377D02*
X3526526Y-15672424D01*
X3526526Y-15672424D02*
X3526526Y-15777186D01*
X3526526Y-15672424D02*
X3536049Y-15653377D01*
X3536049Y-15653377D02*
X3555097Y-15643853D01*
X3555097Y-15643853D02*
X3583668Y-15643853D01*
X3583668Y-15643853D02*
X3602716Y-15653377D01*
X3602716Y-15653377D02*
X3612240Y-15672424D01*
X3612240Y-15672424D02*
X3612240Y-15777186D01*
X4002716Y-15567663D02*
X3831288Y-15824805D01*
X4259859Y-15577186D02*
X4278907Y-15577186D01*
X4278907Y-15577186D02*
X4297954Y-15586710D01*
X4297954Y-15586710D02*
X4307478Y-15596234D01*
X4307478Y-15596234D02*
X4317002Y-15615282D01*
X4317002Y-15615282D02*
X4326526Y-15653377D01*
X4326526Y-15653377D02*
X4326526Y-15700996D01*
X4326526Y-15700996D02*
X4317002Y-15739091D01*
X4317002Y-15739091D02*
X4307478Y-15758139D01*
X4307478Y-15758139D02*
X4297954Y-15767663D01*
X4297954Y-15767663D02*
X4278907Y-15777186D01*
X4278907Y-15777186D02*
X4259859Y-15777186D01*
X4259859Y-15777186D02*
X4240812Y-15767663D01*
X4240812Y-15767663D02*
X4231288Y-15758139D01*
X4231288Y-15758139D02*
X4221764Y-15739091D01*
X4221764Y-15739091D02*
X4212240Y-15700996D01*
X4212240Y-15700996D02*
X4212240Y-15653377D01*
X4212240Y-15653377D02*
X4221764Y-15615282D01*
X4221764Y-15615282D02*
X4231288Y-15596234D01*
X4231288Y-15596234D02*
X4240812Y-15586710D01*
X4240812Y-15586710D02*
X4259859Y-15577186D01*
X4412240Y-15758139D02*
X4421764Y-15767663D01*
X4421764Y-15767663D02*
X4412240Y-15777186D01*
X4412240Y-15777186D02*
X4402716Y-15767663D01*
X4402716Y-15767663D02*
X4412240Y-15758139D01*
X4412240Y-15758139D02*
X4412240Y-15777186D01*
X4545573Y-15577186D02*
X4564621Y-15577186D01*
X4564621Y-15577186D02*
X4583669Y-15586710D01*
X4583669Y-15586710D02*
X4593193Y-15596234D01*
X4593193Y-15596234D02*
X4602716Y-15615282D01*
X4602716Y-15615282D02*
X4612240Y-15653377D01*
X4612240Y-15653377D02*
X4612240Y-15700996D01*
X4612240Y-15700996D02*
X4602716Y-15739091D01*
X4602716Y-15739091D02*
X4593193Y-15758139D01*
X4593193Y-15758139D02*
X4583669Y-15767663D01*
X4583669Y-15767663D02*
X4564621Y-15777186D01*
X4564621Y-15777186D02*
X4545573Y-15777186D01*
X4545573Y-15777186D02*
X4526526Y-15767663D01*
X4526526Y-15767663D02*
X4517002Y-15758139D01*
X4517002Y-15758139D02*
X4507478Y-15739091D01*
X4507478Y-15739091D02*
X4497954Y-15700996D01*
X4497954Y-15700996D02*
X4497954Y-15653377D01*
X4497954Y-15653377D02*
X4507478Y-15615282D01*
X4507478Y-15615282D02*
X4517002Y-15596234D01*
X4517002Y-15596234D02*
X4526526Y-15586710D01*
X4526526Y-15586710D02*
X4545573Y-15577186D01*
X4783669Y-15643853D02*
X4783669Y-15777186D01*
X4736050Y-15567663D02*
X4688431Y-15710520D01*
X4688431Y-15710520D02*
X4812240Y-15710520D01*
X4897954Y-15777186D02*
X4936050Y-15777186D01*
X4936050Y-15777186D02*
X4955097Y-15767663D01*
X4955097Y-15767663D02*
X4964621Y-15758139D01*
X4964621Y-15758139D02*
X4983669Y-15729567D01*
X4983669Y-15729567D02*
X4993193Y-15691472D01*
X4993193Y-15691472D02*
X4993193Y-15615282D01*
X4993193Y-15615282D02*
X4983669Y-15596234D01*
X4983669Y-15596234D02*
X4974145Y-15586710D01*
X4974145Y-15586710D02*
X4955097Y-15577186D01*
X4955097Y-15577186D02*
X4917002Y-15577186D01*
X4917002Y-15577186D02*
X4897954Y-15586710D01*
X4897954Y-15586710D02*
X4888431Y-15596234D01*
X4888431Y-15596234D02*
X4878907Y-15615282D01*
X4878907Y-15615282D02*
X4878907Y-15662901D01*
X4878907Y-15662901D02*
X4888431Y-15681948D01*
X4888431Y-15681948D02*
X4897954Y-15691472D01*
X4897954Y-15691472D02*
X4917002Y-15700996D01*
X4917002Y-15700996D02*
X4955097Y-15700996D01*
X4955097Y-15700996D02*
X4974145Y-15691472D01*
X4974145Y-15691472D02*
X4983669Y-15681948D01*
X4983669Y-15681948D02*
X4993193Y-15662901D01*
X5069383Y-15596234D02*
X5078907Y-15586710D01*
X5078907Y-15586710D02*
X5097954Y-15577186D01*
X5097954Y-15577186D02*
X5145574Y-15577186D01*
X5145574Y-15577186D02*
X5164621Y-15586710D01*
X5164621Y-15586710D02*
X5174145Y-15596234D01*
X5174145Y-15596234D02*
X5183669Y-15615282D01*
X5183669Y-15615282D02*
X5183669Y-15634329D01*
X5183669Y-15634329D02*
X5174145Y-15662901D01*
X5174145Y-15662901D02*
X5059859Y-15777186D01*
X5059859Y-15777186D02*
X5183669Y-15777186D01*
X5259859Y-15577186D02*
X5259859Y-15615282D01*
X5336050Y-15577186D02*
X5336050Y-15615282D01*
X5631288Y-15853377D02*
X5621764Y-15843853D01*
X5621764Y-15843853D02*
X5602716Y-15815282D01*
X5602716Y-15815282D02*
X5593193Y-15796234D01*
X5593193Y-15796234D02*
X5583669Y-15767663D01*
X5583669Y-15767663D02*
X5574145Y-15720043D01*
X5574145Y-15720043D02*
X5574145Y-15681948D01*
X5574145Y-15681948D02*
X5583669Y-15634329D01*
X5583669Y-15634329D02*
X5593193Y-15605758D01*
X5593193Y-15605758D02*
X5602716Y-15586710D01*
X5602716Y-15586710D02*
X5621764Y-15558139D01*
X5621764Y-15558139D02*
X5631288Y-15548615D01*
X5793193Y-15643853D02*
X5793193Y-15777186D01*
X5745573Y-15567663D02*
X5697954Y-15710520D01*
X5697954Y-15710520D02*
X5821764Y-15710520D01*
X6050335Y-15777186D02*
X6050335Y-15577186D01*
X6136050Y-15777186D02*
X6136050Y-15672424D01*
X6136050Y-15672424D02*
X6126526Y-15653377D01*
X6126526Y-15653377D02*
X6107478Y-15643853D01*
X6107478Y-15643853D02*
X6078907Y-15643853D01*
X6078907Y-15643853D02*
X6059859Y-15653377D01*
X6059859Y-15653377D02*
X6050335Y-15662901D01*
X6259859Y-15777186D02*
X6240812Y-15767663D01*
X6240812Y-15767663D02*
X6231288Y-15758139D01*
X6231288Y-15758139D02*
X6221764Y-15739091D01*
X6221764Y-15739091D02*
X6221764Y-15681948D01*
X6221764Y-15681948D02*
X6231288Y-15662901D01*
X6231288Y-15662901D02*
X6240812Y-15653377D01*
X6240812Y-15653377D02*
X6259859Y-15643853D01*
X6259859Y-15643853D02*
X6288431Y-15643853D01*
X6288431Y-15643853D02*
X6307478Y-15653377D01*
X6307478Y-15653377D02*
X6317002Y-15662901D01*
X6317002Y-15662901D02*
X6326526Y-15681948D01*
X6326526Y-15681948D02*
X6326526Y-15739091D01*
X6326526Y-15739091D02*
X6317002Y-15758139D01*
X6317002Y-15758139D02*
X6307478Y-15767663D01*
X6307478Y-15767663D02*
X6288431Y-15777186D01*
X6288431Y-15777186D02*
X6259859Y-15777186D01*
X6440812Y-15777186D02*
X6421764Y-15767663D01*
X6421764Y-15767663D02*
X6412240Y-15748615D01*
X6412240Y-15748615D02*
X6412240Y-15577186D01*
X6593193Y-15767663D02*
X6574145Y-15777186D01*
X6574145Y-15777186D02*
X6536050Y-15777186D01*
X6536050Y-15777186D02*
X6517002Y-15767663D01*
X6517002Y-15767663D02*
X6507478Y-15748615D01*
X6507478Y-15748615D02*
X6507478Y-15672424D01*
X6507478Y-15672424D02*
X6517002Y-15653377D01*
X6517002Y-15653377D02*
X6536050Y-15643853D01*
X6536050Y-15643853D02*
X6574145Y-15643853D01*
X6574145Y-15643853D02*
X6593193Y-15653377D01*
X6593193Y-15653377D02*
X6602716Y-15672424D01*
X6602716Y-15672424D02*
X6602716Y-15691472D01*
X6602716Y-15691472D02*
X6507478Y-15710520D01*
X6678907Y-15767663D02*
X6697955Y-15777186D01*
X6697955Y-15777186D02*
X6736050Y-15777186D01*
X6736050Y-15777186D02*
X6755097Y-15767663D01*
X6755097Y-15767663D02*
X6764621Y-15748615D01*
X6764621Y-15748615D02*
X6764621Y-15739091D01*
X6764621Y-15739091D02*
X6755097Y-15720043D01*
X6755097Y-15720043D02*
X6736050Y-15710520D01*
X6736050Y-15710520D02*
X6707478Y-15710520D01*
X6707478Y-15710520D02*
X6688431Y-15700996D01*
X6688431Y-15700996D02*
X6678907Y-15681948D01*
X6678907Y-15681948D02*
X6678907Y-15672424D01*
X6678907Y-15672424D02*
X6688431Y-15653377D01*
X6688431Y-15653377D02*
X6707478Y-15643853D01*
X6707478Y-15643853D02*
X6736050Y-15643853D01*
X6736050Y-15643853D02*
X6755097Y-15653377D01*
X6831288Y-15853377D02*
X6840812Y-15843853D01*
X6840812Y-15843853D02*
X6859859Y-15815282D01*
X6859859Y-15815282D02*
X6869383Y-15796234D01*
X6869383Y-15796234D02*
X6878907Y-15767663D01*
X6878907Y-15767663D02*
X6888431Y-15720043D01*
X6888431Y-15720043D02*
X6888431Y-15681948D01*
X6888431Y-15681948D02*
X6878907Y-15634329D01*
X6878907Y-15634329D02*
X6869383Y-15605758D01*
X6869383Y-15605758D02*
X6859859Y-15586710D01*
X6859859Y-15586710D02*
X6840812Y-15558139D01*
X6840812Y-15558139D02*
X6831288Y-15548615D01*
D17*
X1929225Y-15886203D02*
X2056225Y-16013203D01*
X2056225Y-15886203D02*
X1929225Y-16013203D01*
X2056225Y-15949703D02*
G75*
G02*
X1929225Y-15949703I-63500J0D01*
G01*
X1929225Y-15949703D02*
G75*
G02*
X2056225Y-15949703I63500J0D01*
G01*
D14*
X2421764Y-16041186D02*
X2307478Y-16041186D01*
X2364621Y-16041186D02*
X2364621Y-15841186D01*
X2364621Y-15841186D02*
X2345573Y-15869758D01*
X2345573Y-15869758D02*
X2326526Y-15888805D01*
X2326526Y-15888805D02*
X2307478Y-15898329D01*
X2507478Y-16022139D02*
X2517002Y-16031663D01*
X2517002Y-16031663D02*
X2507478Y-16041186D01*
X2507478Y-16041186D02*
X2497954Y-16031663D01*
X2497954Y-16031663D02*
X2507478Y-16022139D01*
X2507478Y-16022139D02*
X2507478Y-16041186D01*
X2593192Y-15860234D02*
X2602716Y-15850710D01*
X2602716Y-15850710D02*
X2621764Y-15841186D01*
X2621764Y-15841186D02*
X2669383Y-15841186D01*
X2669383Y-15841186D02*
X2688430Y-15850710D01*
X2688430Y-15850710D02*
X2697954Y-15860234D01*
X2697954Y-15860234D02*
X2707478Y-15879282D01*
X2707478Y-15879282D02*
X2707478Y-15898329D01*
X2707478Y-15898329D02*
X2697954Y-15926901D01*
X2697954Y-15926901D02*
X2583669Y-16041186D01*
X2583669Y-16041186D02*
X2707478Y-16041186D01*
X2774145Y-15841186D02*
X2907478Y-15841186D01*
X2907478Y-15841186D02*
X2821764Y-16041186D01*
X3021764Y-15841186D02*
X3040811Y-15841186D01*
X3040811Y-15841186D02*
X3059859Y-15850710D01*
X3059859Y-15850710D02*
X3069383Y-15860234D01*
X3069383Y-15860234D02*
X3078907Y-15879282D01*
X3078907Y-15879282D02*
X3088430Y-15917377D01*
X3088430Y-15917377D02*
X3088430Y-15964996D01*
X3088430Y-15964996D02*
X3078907Y-16003091D01*
X3078907Y-16003091D02*
X3069383Y-16022139D01*
X3069383Y-16022139D02*
X3059859Y-16031663D01*
X3059859Y-16031663D02*
X3040811Y-16041186D01*
X3040811Y-16041186D02*
X3021764Y-16041186D01*
X3021764Y-16041186D02*
X3002716Y-16031663D01*
X3002716Y-16031663D02*
X2993192Y-16022139D01*
X2993192Y-16022139D02*
X2983668Y-16003091D01*
X2983668Y-16003091D02*
X2974145Y-15964996D01*
X2974145Y-15964996D02*
X2974145Y-15917377D01*
X2974145Y-15917377D02*
X2983668Y-15879282D01*
X2983668Y-15879282D02*
X2993192Y-15860234D01*
X2993192Y-15860234D02*
X3002716Y-15850710D01*
X3002716Y-15850710D02*
X3021764Y-15841186D01*
X3174145Y-16041186D02*
X3174145Y-15907853D01*
X3174145Y-15926901D02*
X3183668Y-15917377D01*
X3183668Y-15917377D02*
X3202716Y-15907853D01*
X3202716Y-15907853D02*
X3231288Y-15907853D01*
X3231288Y-15907853D02*
X3250335Y-15917377D01*
X3250335Y-15917377D02*
X3259859Y-15936424D01*
X3259859Y-15936424D02*
X3259859Y-16041186D01*
X3259859Y-15936424D02*
X3269383Y-15917377D01*
X3269383Y-15917377D02*
X3288430Y-15907853D01*
X3288430Y-15907853D02*
X3317002Y-15907853D01*
X3317002Y-15907853D02*
X3336049Y-15917377D01*
X3336049Y-15917377D02*
X3345573Y-15936424D01*
X3345573Y-15936424D02*
X3345573Y-16041186D01*
X3440811Y-16041186D02*
X3440811Y-15907853D01*
X3440811Y-15926901D02*
X3450335Y-15917377D01*
X3450335Y-15917377D02*
X3469383Y-15907853D01*
X3469383Y-15907853D02*
X3497954Y-15907853D01*
X3497954Y-15907853D02*
X3517002Y-15917377D01*
X3517002Y-15917377D02*
X3526526Y-15936424D01*
X3526526Y-15936424D02*
X3526526Y-16041186D01*
X3526526Y-15936424D02*
X3536049Y-15917377D01*
X3536049Y-15917377D02*
X3555097Y-15907853D01*
X3555097Y-15907853D02*
X3583668Y-15907853D01*
X3583668Y-15907853D02*
X3602716Y-15917377D01*
X3602716Y-15917377D02*
X3612240Y-15936424D01*
X3612240Y-15936424D02*
X3612240Y-16041186D01*
X4002716Y-15831663D02*
X3831288Y-16088805D01*
X4259859Y-15841186D02*
X4278907Y-15841186D01*
X4278907Y-15841186D02*
X4297954Y-15850710D01*
X4297954Y-15850710D02*
X4307478Y-15860234D01*
X4307478Y-15860234D02*
X4317002Y-15879282D01*
X4317002Y-15879282D02*
X4326526Y-15917377D01*
X4326526Y-15917377D02*
X4326526Y-15964996D01*
X4326526Y-15964996D02*
X4317002Y-16003091D01*
X4317002Y-16003091D02*
X4307478Y-16022139D01*
X4307478Y-16022139D02*
X4297954Y-16031663D01*
X4297954Y-16031663D02*
X4278907Y-16041186D01*
X4278907Y-16041186D02*
X4259859Y-16041186D01*
X4259859Y-16041186D02*
X4240812Y-16031663D01*
X4240812Y-16031663D02*
X4231288Y-16022139D01*
X4231288Y-16022139D02*
X4221764Y-16003091D01*
X4221764Y-16003091D02*
X4212240Y-15964996D01*
X4212240Y-15964996D02*
X4212240Y-15917377D01*
X4212240Y-15917377D02*
X4221764Y-15879282D01*
X4221764Y-15879282D02*
X4231288Y-15860234D01*
X4231288Y-15860234D02*
X4240812Y-15850710D01*
X4240812Y-15850710D02*
X4259859Y-15841186D01*
X4412240Y-16022139D02*
X4421764Y-16031663D01*
X4421764Y-16031663D02*
X4412240Y-16041186D01*
X4412240Y-16041186D02*
X4402716Y-16031663D01*
X4402716Y-16031663D02*
X4412240Y-16022139D01*
X4412240Y-16022139D02*
X4412240Y-16041186D01*
X4545573Y-15841186D02*
X4564621Y-15841186D01*
X4564621Y-15841186D02*
X4583669Y-15850710D01*
X4583669Y-15850710D02*
X4593193Y-15860234D01*
X4593193Y-15860234D02*
X4602716Y-15879282D01*
X4602716Y-15879282D02*
X4612240Y-15917377D01*
X4612240Y-15917377D02*
X4612240Y-15964996D01*
X4612240Y-15964996D02*
X4602716Y-16003091D01*
X4602716Y-16003091D02*
X4593193Y-16022139D01*
X4593193Y-16022139D02*
X4583669Y-16031663D01*
X4583669Y-16031663D02*
X4564621Y-16041186D01*
X4564621Y-16041186D02*
X4545573Y-16041186D01*
X4545573Y-16041186D02*
X4526526Y-16031663D01*
X4526526Y-16031663D02*
X4517002Y-16022139D01*
X4517002Y-16022139D02*
X4507478Y-16003091D01*
X4507478Y-16003091D02*
X4497954Y-15964996D01*
X4497954Y-15964996D02*
X4497954Y-15917377D01*
X4497954Y-15917377D02*
X4507478Y-15879282D01*
X4507478Y-15879282D02*
X4517002Y-15860234D01*
X4517002Y-15860234D02*
X4526526Y-15850710D01*
X4526526Y-15850710D02*
X4545573Y-15841186D01*
X4793193Y-15841186D02*
X4697954Y-15841186D01*
X4697954Y-15841186D02*
X4688431Y-15936424D01*
X4688431Y-15936424D02*
X4697954Y-15926901D01*
X4697954Y-15926901D02*
X4717002Y-15917377D01*
X4717002Y-15917377D02*
X4764621Y-15917377D01*
X4764621Y-15917377D02*
X4783669Y-15926901D01*
X4783669Y-15926901D02*
X4793193Y-15936424D01*
X4793193Y-15936424D02*
X4802716Y-15955472D01*
X4802716Y-15955472D02*
X4802716Y-16003091D01*
X4802716Y-16003091D02*
X4793193Y-16022139D01*
X4793193Y-16022139D02*
X4783669Y-16031663D01*
X4783669Y-16031663D02*
X4764621Y-16041186D01*
X4764621Y-16041186D02*
X4717002Y-16041186D01*
X4717002Y-16041186D02*
X4697954Y-16031663D01*
X4697954Y-16031663D02*
X4688431Y-16022139D01*
X4926526Y-15841186D02*
X4945574Y-15841186D01*
X4945574Y-15841186D02*
X4964621Y-15850710D01*
X4964621Y-15850710D02*
X4974145Y-15860234D01*
X4974145Y-15860234D02*
X4983669Y-15879282D01*
X4983669Y-15879282D02*
X4993193Y-15917377D01*
X4993193Y-15917377D02*
X4993193Y-15964996D01*
X4993193Y-15964996D02*
X4983669Y-16003091D01*
X4983669Y-16003091D02*
X4974145Y-16022139D01*
X4974145Y-16022139D02*
X4964621Y-16031663D01*
X4964621Y-16031663D02*
X4945574Y-16041186D01*
X4945574Y-16041186D02*
X4926526Y-16041186D01*
X4926526Y-16041186D02*
X4907478Y-16031663D01*
X4907478Y-16031663D02*
X4897954Y-16022139D01*
X4897954Y-16022139D02*
X4888431Y-16003091D01*
X4888431Y-16003091D02*
X4878907Y-15964996D01*
X4878907Y-15964996D02*
X4878907Y-15917377D01*
X4878907Y-15917377D02*
X4888431Y-15879282D01*
X4888431Y-15879282D02*
X4897954Y-15860234D01*
X4897954Y-15860234D02*
X4907478Y-15850710D01*
X4907478Y-15850710D02*
X4926526Y-15841186D01*
X5117002Y-15841186D02*
X5136050Y-15841186D01*
X5136050Y-15841186D02*
X5155097Y-15850710D01*
X5155097Y-15850710D02*
X5164621Y-15860234D01*
X5164621Y-15860234D02*
X5174145Y-15879282D01*
X5174145Y-15879282D02*
X5183669Y-15917377D01*
X5183669Y-15917377D02*
X5183669Y-15964996D01*
X5183669Y-15964996D02*
X5174145Y-16003091D01*
X5174145Y-16003091D02*
X5164621Y-16022139D01*
X5164621Y-16022139D02*
X5155097Y-16031663D01*
X5155097Y-16031663D02*
X5136050Y-16041186D01*
X5136050Y-16041186D02*
X5117002Y-16041186D01*
X5117002Y-16041186D02*
X5097954Y-16031663D01*
X5097954Y-16031663D02*
X5088431Y-16022139D01*
X5088431Y-16022139D02*
X5078907Y-16003091D01*
X5078907Y-16003091D02*
X5069383Y-15964996D01*
X5069383Y-15964996D02*
X5069383Y-15917377D01*
X5069383Y-15917377D02*
X5078907Y-15879282D01*
X5078907Y-15879282D02*
X5088431Y-15860234D01*
X5088431Y-15860234D02*
X5097954Y-15850710D01*
X5097954Y-15850710D02*
X5117002Y-15841186D01*
X5259859Y-15841186D02*
X5259859Y-15879282D01*
X5336050Y-15841186D02*
X5336050Y-15879282D01*
X5631288Y-16117377D02*
X5621764Y-16107853D01*
X5621764Y-16107853D02*
X5602716Y-16079282D01*
X5602716Y-16079282D02*
X5593193Y-16060234D01*
X5593193Y-16060234D02*
X5583669Y-16031663D01*
X5583669Y-16031663D02*
X5574145Y-15984043D01*
X5574145Y-15984043D02*
X5574145Y-15945948D01*
X5574145Y-15945948D02*
X5583669Y-15898329D01*
X5583669Y-15898329D02*
X5593193Y-15869758D01*
X5593193Y-15869758D02*
X5602716Y-15850710D01*
X5602716Y-15850710D02*
X5621764Y-15822139D01*
X5621764Y-15822139D02*
X5631288Y-15812615D01*
X5688431Y-15841186D02*
X5821764Y-15841186D01*
X5821764Y-15841186D02*
X5736050Y-16041186D01*
X5983669Y-15841186D02*
X5945573Y-15841186D01*
X5945573Y-15841186D02*
X5926526Y-15850710D01*
X5926526Y-15850710D02*
X5917002Y-15860234D01*
X5917002Y-15860234D02*
X5897954Y-15888805D01*
X5897954Y-15888805D02*
X5888431Y-15926901D01*
X5888431Y-15926901D02*
X5888431Y-16003091D01*
X5888431Y-16003091D02*
X5897954Y-16022139D01*
X5897954Y-16022139D02*
X5907478Y-16031663D01*
X5907478Y-16031663D02*
X5926526Y-16041186D01*
X5926526Y-16041186D02*
X5964621Y-16041186D01*
X5964621Y-16041186D02*
X5983669Y-16031663D01*
X5983669Y-16031663D02*
X5993193Y-16022139D01*
X5993193Y-16022139D02*
X6002716Y-16003091D01*
X6002716Y-16003091D02*
X6002716Y-15955472D01*
X6002716Y-15955472D02*
X5993193Y-15936424D01*
X5993193Y-15936424D02*
X5983669Y-15926901D01*
X5983669Y-15926901D02*
X5964621Y-15917377D01*
X5964621Y-15917377D02*
X5926526Y-15917377D01*
X5926526Y-15917377D02*
X5907478Y-15926901D01*
X5907478Y-15926901D02*
X5897954Y-15936424D01*
X5897954Y-15936424D02*
X5888431Y-15955472D01*
X6240812Y-16041186D02*
X6240812Y-15841186D01*
X6326526Y-16041186D02*
X6326526Y-15936424D01*
X6326526Y-15936424D02*
X6317002Y-15917377D01*
X6317002Y-15917377D02*
X6297955Y-15907853D01*
X6297955Y-15907853D02*
X6269383Y-15907853D01*
X6269383Y-15907853D02*
X6250335Y-15917377D01*
X6250335Y-15917377D02*
X6240812Y-15926901D01*
X6450335Y-16041186D02*
X6431288Y-16031663D01*
X6431288Y-16031663D02*
X6421764Y-16022139D01*
X6421764Y-16022139D02*
X6412240Y-16003091D01*
X6412240Y-16003091D02*
X6412240Y-15945948D01*
X6412240Y-15945948D02*
X6421764Y-15926901D01*
X6421764Y-15926901D02*
X6431288Y-15917377D01*
X6431288Y-15917377D02*
X6450335Y-15907853D01*
X6450335Y-15907853D02*
X6478907Y-15907853D01*
X6478907Y-15907853D02*
X6497955Y-15917377D01*
X6497955Y-15917377D02*
X6507478Y-15926901D01*
X6507478Y-15926901D02*
X6517002Y-15945948D01*
X6517002Y-15945948D02*
X6517002Y-16003091D01*
X6517002Y-16003091D02*
X6507478Y-16022139D01*
X6507478Y-16022139D02*
X6497955Y-16031663D01*
X6497955Y-16031663D02*
X6478907Y-16041186D01*
X6478907Y-16041186D02*
X6450335Y-16041186D01*
X6631288Y-16041186D02*
X6612240Y-16031663D01*
X6612240Y-16031663D02*
X6602716Y-16012615D01*
X6602716Y-16012615D02*
X6602716Y-15841186D01*
X6783669Y-16031663D02*
X6764621Y-16041186D01*
X6764621Y-16041186D02*
X6726526Y-16041186D01*
X6726526Y-16041186D02*
X6707478Y-16031663D01*
X6707478Y-16031663D02*
X6697955Y-16012615D01*
X6697955Y-16012615D02*
X6697955Y-15936424D01*
X6697955Y-15936424D02*
X6707478Y-15917377D01*
X6707478Y-15917377D02*
X6726526Y-15907853D01*
X6726526Y-15907853D02*
X6764621Y-15907853D01*
X6764621Y-15907853D02*
X6783669Y-15917377D01*
X6783669Y-15917377D02*
X6793193Y-15936424D01*
X6793193Y-15936424D02*
X6793193Y-15955472D01*
X6793193Y-15955472D02*
X6697955Y-15974520D01*
X6869383Y-16031663D02*
X6888431Y-16041186D01*
X6888431Y-16041186D02*
X6926526Y-16041186D01*
X6926526Y-16041186D02*
X6945574Y-16031663D01*
X6945574Y-16031663D02*
X6955097Y-16012615D01*
X6955097Y-16012615D02*
X6955097Y-16003091D01*
X6955097Y-16003091D02*
X6945574Y-15984043D01*
X6945574Y-15984043D02*
X6926526Y-15974520D01*
X6926526Y-15974520D02*
X6897955Y-15974520D01*
X6897955Y-15974520D02*
X6878907Y-15964996D01*
X6878907Y-15964996D02*
X6869383Y-15945948D01*
X6869383Y-15945948D02*
X6869383Y-15936424D01*
X6869383Y-15936424D02*
X6878907Y-15917377D01*
X6878907Y-15917377D02*
X6897955Y-15907853D01*
X6897955Y-15907853D02*
X6926526Y-15907853D01*
X6926526Y-15907853D02*
X6945574Y-15917377D01*
X7021764Y-16117377D02*
X7031288Y-16107853D01*
X7031288Y-16107853D02*
X7050336Y-16079282D01*
X7050336Y-16079282D02*
X7059859Y-16060234D01*
X7059859Y-16060234D02*
X7069383Y-16031663D01*
X7069383Y-16031663D02*
X7078907Y-15984043D01*
X7078907Y-15984043D02*
X7078907Y-15945948D01*
X7078907Y-15945948D02*
X7069383Y-15898329D01*
X7069383Y-15898329D02*
X7059859Y-15869758D01*
X7059859Y-15869758D02*
X7050336Y-15850710D01*
X7050336Y-15850710D02*
X7031288Y-15822139D01*
X7031288Y-15822139D02*
X7021764Y-15812615D01*
D18*
X1926225Y-16148703D02*
X2056225Y-16278703D01*
X2056225Y-16148703D02*
X1926225Y-16278703D01*
X1991225Y-16148703D02*
X1991225Y-16278703D01*
X1926225Y-16213703D02*
X2056225Y-16213703D01*
D14*
X2421764Y-16305186D02*
X2307478Y-16305186D01*
X2364621Y-16305186D02*
X2364621Y-16105186D01*
X2364621Y-16105186D02*
X2345573Y-16133758D01*
X2345573Y-16133758D02*
X2326526Y-16152805D01*
X2326526Y-16152805D02*
X2307478Y-16162329D01*
X2507478Y-16286139D02*
X2517002Y-16295663D01*
X2517002Y-16295663D02*
X2507478Y-16305186D01*
X2507478Y-16305186D02*
X2497954Y-16295663D01*
X2497954Y-16295663D02*
X2507478Y-16286139D01*
X2507478Y-16286139D02*
X2507478Y-16305186D01*
X2583669Y-16105186D02*
X2707478Y-16105186D01*
X2707478Y-16105186D02*
X2640811Y-16181377D01*
X2640811Y-16181377D02*
X2669383Y-16181377D01*
X2669383Y-16181377D02*
X2688430Y-16190901D01*
X2688430Y-16190901D02*
X2697954Y-16200424D01*
X2697954Y-16200424D02*
X2707478Y-16219472D01*
X2707478Y-16219472D02*
X2707478Y-16267091D01*
X2707478Y-16267091D02*
X2697954Y-16286139D01*
X2697954Y-16286139D02*
X2688430Y-16295663D01*
X2688430Y-16295663D02*
X2669383Y-16305186D01*
X2669383Y-16305186D02*
X2612240Y-16305186D01*
X2612240Y-16305186D02*
X2593192Y-16295663D01*
X2593192Y-16295663D02*
X2583669Y-16286139D01*
X2831287Y-16105186D02*
X2850335Y-16105186D01*
X2850335Y-16105186D02*
X2869383Y-16114710D01*
X2869383Y-16114710D02*
X2878907Y-16124234D01*
X2878907Y-16124234D02*
X2888430Y-16143282D01*
X2888430Y-16143282D02*
X2897954Y-16181377D01*
X2897954Y-16181377D02*
X2897954Y-16228996D01*
X2897954Y-16228996D02*
X2888430Y-16267091D01*
X2888430Y-16267091D02*
X2878907Y-16286139D01*
X2878907Y-16286139D02*
X2869383Y-16295663D01*
X2869383Y-16295663D02*
X2850335Y-16305186D01*
X2850335Y-16305186D02*
X2831287Y-16305186D01*
X2831287Y-16305186D02*
X2812240Y-16295663D01*
X2812240Y-16295663D02*
X2802716Y-16286139D01*
X2802716Y-16286139D02*
X2793192Y-16267091D01*
X2793192Y-16267091D02*
X2783669Y-16228996D01*
X2783669Y-16228996D02*
X2783669Y-16181377D01*
X2783669Y-16181377D02*
X2793192Y-16143282D01*
X2793192Y-16143282D02*
X2802716Y-16124234D01*
X2802716Y-16124234D02*
X2812240Y-16114710D01*
X2812240Y-16114710D02*
X2831287Y-16105186D01*
X3021764Y-16105186D02*
X3040811Y-16105186D01*
X3040811Y-16105186D02*
X3059859Y-16114710D01*
X3059859Y-16114710D02*
X3069383Y-16124234D01*
X3069383Y-16124234D02*
X3078907Y-16143282D01*
X3078907Y-16143282D02*
X3088430Y-16181377D01*
X3088430Y-16181377D02*
X3088430Y-16228996D01*
X3088430Y-16228996D02*
X3078907Y-16267091D01*
X3078907Y-16267091D02*
X3069383Y-16286139D01*
X3069383Y-16286139D02*
X3059859Y-16295663D01*
X3059859Y-16295663D02*
X3040811Y-16305186D01*
X3040811Y-16305186D02*
X3021764Y-16305186D01*
X3021764Y-16305186D02*
X3002716Y-16295663D01*
X3002716Y-16295663D02*
X2993192Y-16286139D01*
X2993192Y-16286139D02*
X2983668Y-16267091D01*
X2983668Y-16267091D02*
X2974145Y-16228996D01*
X2974145Y-16228996D02*
X2974145Y-16181377D01*
X2974145Y-16181377D02*
X2983668Y-16143282D01*
X2983668Y-16143282D02*
X2993192Y-16124234D01*
X2993192Y-16124234D02*
X3002716Y-16114710D01*
X3002716Y-16114710D02*
X3021764Y-16105186D01*
X3174145Y-16305186D02*
X3174145Y-16171853D01*
X3174145Y-16190901D02*
X3183668Y-16181377D01*
X3183668Y-16181377D02*
X3202716Y-16171853D01*
X3202716Y-16171853D02*
X3231288Y-16171853D01*
X3231288Y-16171853D02*
X3250335Y-16181377D01*
X3250335Y-16181377D02*
X3259859Y-16200424D01*
X3259859Y-16200424D02*
X3259859Y-16305186D01*
X3259859Y-16200424D02*
X3269383Y-16181377D01*
X3269383Y-16181377D02*
X3288430Y-16171853D01*
X3288430Y-16171853D02*
X3317002Y-16171853D01*
X3317002Y-16171853D02*
X3336049Y-16181377D01*
X3336049Y-16181377D02*
X3345573Y-16200424D01*
X3345573Y-16200424D02*
X3345573Y-16305186D01*
X3440811Y-16305186D02*
X3440811Y-16171853D01*
X3440811Y-16190901D02*
X3450335Y-16181377D01*
X3450335Y-16181377D02*
X3469383Y-16171853D01*
X3469383Y-16171853D02*
X3497954Y-16171853D01*
X3497954Y-16171853D02*
X3517002Y-16181377D01*
X3517002Y-16181377D02*
X3526526Y-16200424D01*
X3526526Y-16200424D02*
X3526526Y-16305186D01*
X3526526Y-16200424D02*
X3536049Y-16181377D01*
X3536049Y-16181377D02*
X3555097Y-16171853D01*
X3555097Y-16171853D02*
X3583668Y-16171853D01*
X3583668Y-16171853D02*
X3602716Y-16181377D01*
X3602716Y-16181377D02*
X3612240Y-16200424D01*
X3612240Y-16200424D02*
X3612240Y-16305186D01*
X4002716Y-16095663D02*
X3831288Y-16352805D01*
X4259859Y-16105186D02*
X4278907Y-16105186D01*
X4278907Y-16105186D02*
X4297954Y-16114710D01*
X4297954Y-16114710D02*
X4307478Y-16124234D01*
X4307478Y-16124234D02*
X4317002Y-16143282D01*
X4317002Y-16143282D02*
X4326526Y-16181377D01*
X4326526Y-16181377D02*
X4326526Y-16228996D01*
X4326526Y-16228996D02*
X4317002Y-16267091D01*
X4317002Y-16267091D02*
X4307478Y-16286139D01*
X4307478Y-16286139D02*
X4297954Y-16295663D01*
X4297954Y-16295663D02*
X4278907Y-16305186D01*
X4278907Y-16305186D02*
X4259859Y-16305186D01*
X4259859Y-16305186D02*
X4240812Y-16295663D01*
X4240812Y-16295663D02*
X4231288Y-16286139D01*
X4231288Y-16286139D02*
X4221764Y-16267091D01*
X4221764Y-16267091D02*
X4212240Y-16228996D01*
X4212240Y-16228996D02*
X4212240Y-16181377D01*
X4212240Y-16181377D02*
X4221764Y-16143282D01*
X4221764Y-16143282D02*
X4231288Y-16124234D01*
X4231288Y-16124234D02*
X4240812Y-16114710D01*
X4240812Y-16114710D02*
X4259859Y-16105186D01*
X4412240Y-16286139D02*
X4421764Y-16295663D01*
X4421764Y-16295663D02*
X4412240Y-16305186D01*
X4412240Y-16305186D02*
X4402716Y-16295663D01*
X4402716Y-16295663D02*
X4412240Y-16286139D01*
X4412240Y-16286139D02*
X4412240Y-16305186D01*
X4545573Y-16105186D02*
X4564621Y-16105186D01*
X4564621Y-16105186D02*
X4583669Y-16114710D01*
X4583669Y-16114710D02*
X4593193Y-16124234D01*
X4593193Y-16124234D02*
X4602716Y-16143282D01*
X4602716Y-16143282D02*
X4612240Y-16181377D01*
X4612240Y-16181377D02*
X4612240Y-16228996D01*
X4612240Y-16228996D02*
X4602716Y-16267091D01*
X4602716Y-16267091D02*
X4593193Y-16286139D01*
X4593193Y-16286139D02*
X4583669Y-16295663D01*
X4583669Y-16295663D02*
X4564621Y-16305186D01*
X4564621Y-16305186D02*
X4545573Y-16305186D01*
X4545573Y-16305186D02*
X4526526Y-16295663D01*
X4526526Y-16295663D02*
X4517002Y-16286139D01*
X4517002Y-16286139D02*
X4507478Y-16267091D01*
X4507478Y-16267091D02*
X4497954Y-16228996D01*
X4497954Y-16228996D02*
X4497954Y-16181377D01*
X4497954Y-16181377D02*
X4507478Y-16143282D01*
X4507478Y-16143282D02*
X4517002Y-16124234D01*
X4517002Y-16124234D02*
X4526526Y-16114710D01*
X4526526Y-16114710D02*
X4545573Y-16105186D01*
X4793193Y-16105186D02*
X4697954Y-16105186D01*
X4697954Y-16105186D02*
X4688431Y-16200424D01*
X4688431Y-16200424D02*
X4697954Y-16190901D01*
X4697954Y-16190901D02*
X4717002Y-16181377D01*
X4717002Y-16181377D02*
X4764621Y-16181377D01*
X4764621Y-16181377D02*
X4783669Y-16190901D01*
X4783669Y-16190901D02*
X4793193Y-16200424D01*
X4793193Y-16200424D02*
X4802716Y-16219472D01*
X4802716Y-16219472D02*
X4802716Y-16267091D01*
X4802716Y-16267091D02*
X4793193Y-16286139D01*
X4793193Y-16286139D02*
X4783669Y-16295663D01*
X4783669Y-16295663D02*
X4764621Y-16305186D01*
X4764621Y-16305186D02*
X4717002Y-16305186D01*
X4717002Y-16305186D02*
X4697954Y-16295663D01*
X4697954Y-16295663D02*
X4688431Y-16286139D01*
X4993193Y-16305186D02*
X4878907Y-16305186D01*
X4936050Y-16305186D02*
X4936050Y-16105186D01*
X4936050Y-16105186D02*
X4917002Y-16133758D01*
X4917002Y-16133758D02*
X4897954Y-16152805D01*
X4897954Y-16152805D02*
X4878907Y-16162329D01*
X5069383Y-16124234D02*
X5078907Y-16114710D01*
X5078907Y-16114710D02*
X5097954Y-16105186D01*
X5097954Y-16105186D02*
X5145574Y-16105186D01*
X5145574Y-16105186D02*
X5164621Y-16114710D01*
X5164621Y-16114710D02*
X5174145Y-16124234D01*
X5174145Y-16124234D02*
X5183669Y-16143282D01*
X5183669Y-16143282D02*
X5183669Y-16162329D01*
X5183669Y-16162329D02*
X5174145Y-16190901D01*
X5174145Y-16190901D02*
X5059859Y-16305186D01*
X5059859Y-16305186D02*
X5183669Y-16305186D01*
X5259859Y-16105186D02*
X5259859Y-16143282D01*
X5336050Y-16105186D02*
X5336050Y-16143282D01*
X5631288Y-16381377D02*
X5621764Y-16371853D01*
X5621764Y-16371853D02*
X5602716Y-16343282D01*
X5602716Y-16343282D02*
X5593193Y-16324234D01*
X5593193Y-16324234D02*
X5583669Y-16295663D01*
X5583669Y-16295663D02*
X5574145Y-16248043D01*
X5574145Y-16248043D02*
X5574145Y-16209948D01*
X5574145Y-16209948D02*
X5583669Y-16162329D01*
X5583669Y-16162329D02*
X5593193Y-16133758D01*
X5593193Y-16133758D02*
X5602716Y-16114710D01*
X5602716Y-16114710D02*
X5621764Y-16086139D01*
X5621764Y-16086139D02*
X5631288Y-16076615D01*
X5793193Y-16171853D02*
X5793193Y-16305186D01*
X5745573Y-16095663D02*
X5697954Y-16238520D01*
X5697954Y-16238520D02*
X5821764Y-16238520D01*
X6050335Y-16305186D02*
X6050335Y-16105186D01*
X6136050Y-16305186D02*
X6136050Y-16200424D01*
X6136050Y-16200424D02*
X6126526Y-16181377D01*
X6126526Y-16181377D02*
X6107478Y-16171853D01*
X6107478Y-16171853D02*
X6078907Y-16171853D01*
X6078907Y-16171853D02*
X6059859Y-16181377D01*
X6059859Y-16181377D02*
X6050335Y-16190901D01*
X6259859Y-16305186D02*
X6240812Y-16295663D01*
X6240812Y-16295663D02*
X6231288Y-16286139D01*
X6231288Y-16286139D02*
X6221764Y-16267091D01*
X6221764Y-16267091D02*
X6221764Y-16209948D01*
X6221764Y-16209948D02*
X6231288Y-16190901D01*
X6231288Y-16190901D02*
X6240812Y-16181377D01*
X6240812Y-16181377D02*
X6259859Y-16171853D01*
X6259859Y-16171853D02*
X6288431Y-16171853D01*
X6288431Y-16171853D02*
X6307478Y-16181377D01*
X6307478Y-16181377D02*
X6317002Y-16190901D01*
X6317002Y-16190901D02*
X6326526Y-16209948D01*
X6326526Y-16209948D02*
X6326526Y-16267091D01*
X6326526Y-16267091D02*
X6317002Y-16286139D01*
X6317002Y-16286139D02*
X6307478Y-16295663D01*
X6307478Y-16295663D02*
X6288431Y-16305186D01*
X6288431Y-16305186D02*
X6259859Y-16305186D01*
X6440812Y-16305186D02*
X6421764Y-16295663D01*
X6421764Y-16295663D02*
X6412240Y-16276615D01*
X6412240Y-16276615D02*
X6412240Y-16105186D01*
X6593193Y-16295663D02*
X6574145Y-16305186D01*
X6574145Y-16305186D02*
X6536050Y-16305186D01*
X6536050Y-16305186D02*
X6517002Y-16295663D01*
X6517002Y-16295663D02*
X6507478Y-16276615D01*
X6507478Y-16276615D02*
X6507478Y-16200424D01*
X6507478Y-16200424D02*
X6517002Y-16181377D01*
X6517002Y-16181377D02*
X6536050Y-16171853D01*
X6536050Y-16171853D02*
X6574145Y-16171853D01*
X6574145Y-16171853D02*
X6593193Y-16181377D01*
X6593193Y-16181377D02*
X6602716Y-16200424D01*
X6602716Y-16200424D02*
X6602716Y-16219472D01*
X6602716Y-16219472D02*
X6507478Y-16238520D01*
X6678907Y-16295663D02*
X6697955Y-16305186D01*
X6697955Y-16305186D02*
X6736050Y-16305186D01*
X6736050Y-16305186D02*
X6755097Y-16295663D01*
X6755097Y-16295663D02*
X6764621Y-16276615D01*
X6764621Y-16276615D02*
X6764621Y-16267091D01*
X6764621Y-16267091D02*
X6755097Y-16248043D01*
X6755097Y-16248043D02*
X6736050Y-16238520D01*
X6736050Y-16238520D02*
X6707478Y-16238520D01*
X6707478Y-16238520D02*
X6688431Y-16228996D01*
X6688431Y-16228996D02*
X6678907Y-16209948D01*
X6678907Y-16209948D02*
X6678907Y-16200424D01*
X6678907Y-16200424D02*
X6688431Y-16181377D01*
X6688431Y-16181377D02*
X6707478Y-16171853D01*
X6707478Y-16171853D02*
X6736050Y-16171853D01*
X6736050Y-16171853D02*
X6755097Y-16181377D01*
X6831288Y-16381377D02*
X6840812Y-16371853D01*
X6840812Y-16371853D02*
X6859859Y-16343282D01*
X6859859Y-16343282D02*
X6869383Y-16324234D01*
X6869383Y-16324234D02*
X6878907Y-16295663D01*
X6878907Y-16295663D02*
X6888431Y-16248043D01*
X6888431Y-16248043D02*
X6888431Y-16209948D01*
X6888431Y-16209948D02*
X6878907Y-16162329D01*
X6878907Y-16162329D02*
X6869383Y-16133758D01*
X6869383Y-16133758D02*
X6859859Y-16114710D01*
X6859859Y-16114710D02*
X6840812Y-16086139D01*
X6840812Y-16086139D02*
X6831288Y-16076615D01*
X1856225Y-16377703D02*
X2056225Y-16577703D01*
X2056225Y-16377703D02*
X1856225Y-16577703D01*
X2026936Y-16548414D02*
X2026936Y-16406991D01*
X1885514Y-16406991D01*
X1885514Y-16548414D01*
X2026936Y-16548414D01*
X2297954Y-16369186D02*
X2421764Y-16369186D01*
X2421764Y-16369186D02*
X2355097Y-16445377D01*
X2355097Y-16445377D02*
X2383669Y-16445377D01*
X2383669Y-16445377D02*
X2402716Y-16454901D01*
X2402716Y-16454901D02*
X2412240Y-16464424D01*
X2412240Y-16464424D02*
X2421764Y-16483472D01*
X2421764Y-16483472D02*
X2421764Y-16531091D01*
X2421764Y-16531091D02*
X2412240Y-16550139D01*
X2412240Y-16550139D02*
X2402716Y-16559663D01*
X2402716Y-16559663D02*
X2383669Y-16569186D01*
X2383669Y-16569186D02*
X2326526Y-16569186D01*
X2326526Y-16569186D02*
X2307478Y-16559663D01*
X2307478Y-16559663D02*
X2297954Y-16550139D01*
X2507478Y-16550139D02*
X2517002Y-16559663D01*
X2517002Y-16559663D02*
X2507478Y-16569186D01*
X2507478Y-16569186D02*
X2497954Y-16559663D01*
X2497954Y-16559663D02*
X2507478Y-16550139D01*
X2507478Y-16550139D02*
X2507478Y-16569186D01*
X2593192Y-16388234D02*
X2602716Y-16378710D01*
X2602716Y-16378710D02*
X2621764Y-16369186D01*
X2621764Y-16369186D02*
X2669383Y-16369186D01*
X2669383Y-16369186D02*
X2688430Y-16378710D01*
X2688430Y-16378710D02*
X2697954Y-16388234D01*
X2697954Y-16388234D02*
X2707478Y-16407282D01*
X2707478Y-16407282D02*
X2707478Y-16426329D01*
X2707478Y-16426329D02*
X2697954Y-16454901D01*
X2697954Y-16454901D02*
X2583669Y-16569186D01*
X2583669Y-16569186D02*
X2707478Y-16569186D01*
X2831287Y-16369186D02*
X2850335Y-16369186D01*
X2850335Y-16369186D02*
X2869383Y-16378710D01*
X2869383Y-16378710D02*
X2878907Y-16388234D01*
X2878907Y-16388234D02*
X2888430Y-16407282D01*
X2888430Y-16407282D02*
X2897954Y-16445377D01*
X2897954Y-16445377D02*
X2897954Y-16492996D01*
X2897954Y-16492996D02*
X2888430Y-16531091D01*
X2888430Y-16531091D02*
X2878907Y-16550139D01*
X2878907Y-16550139D02*
X2869383Y-16559663D01*
X2869383Y-16559663D02*
X2850335Y-16569186D01*
X2850335Y-16569186D02*
X2831287Y-16569186D01*
X2831287Y-16569186D02*
X2812240Y-16559663D01*
X2812240Y-16559663D02*
X2802716Y-16550139D01*
X2802716Y-16550139D02*
X2793192Y-16531091D01*
X2793192Y-16531091D02*
X2783669Y-16492996D01*
X2783669Y-16492996D02*
X2783669Y-16445377D01*
X2783669Y-16445377D02*
X2793192Y-16407282D01*
X2793192Y-16407282D02*
X2802716Y-16388234D01*
X2802716Y-16388234D02*
X2812240Y-16378710D01*
X2812240Y-16378710D02*
X2831287Y-16369186D01*
X3021764Y-16369186D02*
X3040811Y-16369186D01*
X3040811Y-16369186D02*
X3059859Y-16378710D01*
X3059859Y-16378710D02*
X3069383Y-16388234D01*
X3069383Y-16388234D02*
X3078907Y-16407282D01*
X3078907Y-16407282D02*
X3088430Y-16445377D01*
X3088430Y-16445377D02*
X3088430Y-16492996D01*
X3088430Y-16492996D02*
X3078907Y-16531091D01*
X3078907Y-16531091D02*
X3069383Y-16550139D01*
X3069383Y-16550139D02*
X3059859Y-16559663D01*
X3059859Y-16559663D02*
X3040811Y-16569186D01*
X3040811Y-16569186D02*
X3021764Y-16569186D01*
X3021764Y-16569186D02*
X3002716Y-16559663D01*
X3002716Y-16559663D02*
X2993192Y-16550139D01*
X2993192Y-16550139D02*
X2983668Y-16531091D01*
X2983668Y-16531091D02*
X2974145Y-16492996D01*
X2974145Y-16492996D02*
X2974145Y-16445377D01*
X2974145Y-16445377D02*
X2983668Y-16407282D01*
X2983668Y-16407282D02*
X2993192Y-16388234D01*
X2993192Y-16388234D02*
X3002716Y-16378710D01*
X3002716Y-16378710D02*
X3021764Y-16369186D01*
X3174145Y-16569186D02*
X3174145Y-16435853D01*
X3174145Y-16454901D02*
X3183668Y-16445377D01*
X3183668Y-16445377D02*
X3202716Y-16435853D01*
X3202716Y-16435853D02*
X3231288Y-16435853D01*
X3231288Y-16435853D02*
X3250335Y-16445377D01*
X3250335Y-16445377D02*
X3259859Y-16464424D01*
X3259859Y-16464424D02*
X3259859Y-16569186D01*
X3259859Y-16464424D02*
X3269383Y-16445377D01*
X3269383Y-16445377D02*
X3288430Y-16435853D01*
X3288430Y-16435853D02*
X3317002Y-16435853D01*
X3317002Y-16435853D02*
X3336049Y-16445377D01*
X3336049Y-16445377D02*
X3345573Y-16464424D01*
X3345573Y-16464424D02*
X3345573Y-16569186D01*
X3440811Y-16569186D02*
X3440811Y-16435853D01*
X3440811Y-16454901D02*
X3450335Y-16445377D01*
X3450335Y-16445377D02*
X3469383Y-16435853D01*
X3469383Y-16435853D02*
X3497954Y-16435853D01*
X3497954Y-16435853D02*
X3517002Y-16445377D01*
X3517002Y-16445377D02*
X3526526Y-16464424D01*
X3526526Y-16464424D02*
X3526526Y-16569186D01*
X3526526Y-16464424D02*
X3536049Y-16445377D01*
X3536049Y-16445377D02*
X3555097Y-16435853D01*
X3555097Y-16435853D02*
X3583668Y-16435853D01*
X3583668Y-16435853D02*
X3602716Y-16445377D01*
X3602716Y-16445377D02*
X3612240Y-16464424D01*
X3612240Y-16464424D02*
X3612240Y-16569186D01*
X4002716Y-16359663D02*
X3831288Y-16616805D01*
X4259859Y-16369186D02*
X4278907Y-16369186D01*
X4278907Y-16369186D02*
X4297954Y-16378710D01*
X4297954Y-16378710D02*
X4307478Y-16388234D01*
X4307478Y-16388234D02*
X4317002Y-16407282D01*
X4317002Y-16407282D02*
X4326526Y-16445377D01*
X4326526Y-16445377D02*
X4326526Y-16492996D01*
X4326526Y-16492996D02*
X4317002Y-16531091D01*
X4317002Y-16531091D02*
X4307478Y-16550139D01*
X4307478Y-16550139D02*
X4297954Y-16559663D01*
X4297954Y-16559663D02*
X4278907Y-16569186D01*
X4278907Y-16569186D02*
X4259859Y-16569186D01*
X4259859Y-16569186D02*
X4240812Y-16559663D01*
X4240812Y-16559663D02*
X4231288Y-16550139D01*
X4231288Y-16550139D02*
X4221764Y-16531091D01*
X4221764Y-16531091D02*
X4212240Y-16492996D01*
X4212240Y-16492996D02*
X4212240Y-16445377D01*
X4212240Y-16445377D02*
X4221764Y-16407282D01*
X4221764Y-16407282D02*
X4231288Y-16388234D01*
X4231288Y-16388234D02*
X4240812Y-16378710D01*
X4240812Y-16378710D02*
X4259859Y-16369186D01*
X4412240Y-16550139D02*
X4421764Y-16559663D01*
X4421764Y-16559663D02*
X4412240Y-16569186D01*
X4412240Y-16569186D02*
X4402716Y-16559663D01*
X4402716Y-16559663D02*
X4412240Y-16550139D01*
X4412240Y-16550139D02*
X4412240Y-16569186D01*
X4612240Y-16569186D02*
X4497954Y-16569186D01*
X4555097Y-16569186D02*
X4555097Y-16369186D01*
X4555097Y-16369186D02*
X4536050Y-16397758D01*
X4536050Y-16397758D02*
X4517002Y-16416805D01*
X4517002Y-16416805D02*
X4497954Y-16426329D01*
X4688431Y-16388234D02*
X4697954Y-16378710D01*
X4697954Y-16378710D02*
X4717002Y-16369186D01*
X4717002Y-16369186D02*
X4764621Y-16369186D01*
X4764621Y-16369186D02*
X4783669Y-16378710D01*
X4783669Y-16378710D02*
X4793193Y-16388234D01*
X4793193Y-16388234D02*
X4802716Y-16407282D01*
X4802716Y-16407282D02*
X4802716Y-16426329D01*
X4802716Y-16426329D02*
X4793193Y-16454901D01*
X4793193Y-16454901D02*
X4678907Y-16569186D01*
X4678907Y-16569186D02*
X4802716Y-16569186D01*
X4974145Y-16369186D02*
X4936050Y-16369186D01*
X4936050Y-16369186D02*
X4917002Y-16378710D01*
X4917002Y-16378710D02*
X4907478Y-16388234D01*
X4907478Y-16388234D02*
X4888431Y-16416805D01*
X4888431Y-16416805D02*
X4878907Y-16454901D01*
X4878907Y-16454901D02*
X4878907Y-16531091D01*
X4878907Y-16531091D02*
X4888431Y-16550139D01*
X4888431Y-16550139D02*
X4897954Y-16559663D01*
X4897954Y-16559663D02*
X4917002Y-16569186D01*
X4917002Y-16569186D02*
X4955097Y-16569186D01*
X4955097Y-16569186D02*
X4974145Y-16559663D01*
X4974145Y-16559663D02*
X4983669Y-16550139D01*
X4983669Y-16550139D02*
X4993193Y-16531091D01*
X4993193Y-16531091D02*
X4993193Y-16483472D01*
X4993193Y-16483472D02*
X4983669Y-16464424D01*
X4983669Y-16464424D02*
X4974145Y-16454901D01*
X4974145Y-16454901D02*
X4955097Y-16445377D01*
X4955097Y-16445377D02*
X4917002Y-16445377D01*
X4917002Y-16445377D02*
X4897954Y-16454901D01*
X4897954Y-16454901D02*
X4888431Y-16464424D01*
X4888431Y-16464424D02*
X4878907Y-16483472D01*
X5117002Y-16369186D02*
X5136050Y-16369186D01*
X5136050Y-16369186D02*
X5155097Y-16378710D01*
X5155097Y-16378710D02*
X5164621Y-16388234D01*
X5164621Y-16388234D02*
X5174145Y-16407282D01*
X5174145Y-16407282D02*
X5183669Y-16445377D01*
X5183669Y-16445377D02*
X5183669Y-16492996D01*
X5183669Y-16492996D02*
X5174145Y-16531091D01*
X5174145Y-16531091D02*
X5164621Y-16550139D01*
X5164621Y-16550139D02*
X5155097Y-16559663D01*
X5155097Y-16559663D02*
X5136050Y-16569186D01*
X5136050Y-16569186D02*
X5117002Y-16569186D01*
X5117002Y-16569186D02*
X5097954Y-16559663D01*
X5097954Y-16559663D02*
X5088431Y-16550139D01*
X5088431Y-16550139D02*
X5078907Y-16531091D01*
X5078907Y-16531091D02*
X5069383Y-16492996D01*
X5069383Y-16492996D02*
X5069383Y-16445377D01*
X5069383Y-16445377D02*
X5078907Y-16407282D01*
X5078907Y-16407282D02*
X5088431Y-16388234D01*
X5088431Y-16388234D02*
X5097954Y-16378710D01*
X5097954Y-16378710D02*
X5117002Y-16369186D01*
X5259859Y-16369186D02*
X5259859Y-16407282D01*
X5336050Y-16369186D02*
X5336050Y-16407282D01*
X5631288Y-16645377D02*
X5621764Y-16635853D01*
X5621764Y-16635853D02*
X5602716Y-16607282D01*
X5602716Y-16607282D02*
X5593193Y-16588234D01*
X5593193Y-16588234D02*
X5583669Y-16559663D01*
X5583669Y-16559663D02*
X5574145Y-16512043D01*
X5574145Y-16512043D02*
X5574145Y-16473948D01*
X5574145Y-16473948D02*
X5583669Y-16426329D01*
X5583669Y-16426329D02*
X5593193Y-16397758D01*
X5593193Y-16397758D02*
X5602716Y-16378710D01*
X5602716Y-16378710D02*
X5621764Y-16350139D01*
X5621764Y-16350139D02*
X5631288Y-16340615D01*
X5736050Y-16454901D02*
X5717002Y-16445377D01*
X5717002Y-16445377D02*
X5707478Y-16435853D01*
X5707478Y-16435853D02*
X5697954Y-16416805D01*
X5697954Y-16416805D02*
X5697954Y-16407282D01*
X5697954Y-16407282D02*
X5707478Y-16388234D01*
X5707478Y-16388234D02*
X5717002Y-16378710D01*
X5717002Y-16378710D02*
X5736050Y-16369186D01*
X5736050Y-16369186D02*
X5774145Y-16369186D01*
X5774145Y-16369186D02*
X5793193Y-16378710D01*
X5793193Y-16378710D02*
X5802716Y-16388234D01*
X5802716Y-16388234D02*
X5812240Y-16407282D01*
X5812240Y-16407282D02*
X5812240Y-16416805D01*
X5812240Y-16416805D02*
X5802716Y-16435853D01*
X5802716Y-16435853D02*
X5793193Y-16445377D01*
X5793193Y-16445377D02*
X5774145Y-16454901D01*
X5774145Y-16454901D02*
X5736050Y-16454901D01*
X5736050Y-16454901D02*
X5717002Y-16464424D01*
X5717002Y-16464424D02*
X5707478Y-16473948D01*
X5707478Y-16473948D02*
X5697954Y-16492996D01*
X5697954Y-16492996D02*
X5697954Y-16531091D01*
X5697954Y-16531091D02*
X5707478Y-16550139D01*
X5707478Y-16550139D02*
X5717002Y-16559663D01*
X5717002Y-16559663D02*
X5736050Y-16569186D01*
X5736050Y-16569186D02*
X5774145Y-16569186D01*
X5774145Y-16569186D02*
X5793193Y-16559663D01*
X5793193Y-16559663D02*
X5802716Y-16550139D01*
X5802716Y-16550139D02*
X5812240Y-16531091D01*
X5812240Y-16531091D02*
X5812240Y-16492996D01*
X5812240Y-16492996D02*
X5802716Y-16473948D01*
X5802716Y-16473948D02*
X5793193Y-16464424D01*
X5793193Y-16464424D02*
X5774145Y-16454901D01*
X6050335Y-16569186D02*
X6050335Y-16369186D01*
X6136050Y-16569186D02*
X6136050Y-16464424D01*
X6136050Y-16464424D02*
X6126526Y-16445377D01*
X6126526Y-16445377D02*
X6107478Y-16435853D01*
X6107478Y-16435853D02*
X6078907Y-16435853D01*
X6078907Y-16435853D02*
X6059859Y-16445377D01*
X6059859Y-16445377D02*
X6050335Y-16454901D01*
X6259859Y-16569186D02*
X6240812Y-16559663D01*
X6240812Y-16559663D02*
X6231288Y-16550139D01*
X6231288Y-16550139D02*
X6221764Y-16531091D01*
X6221764Y-16531091D02*
X6221764Y-16473948D01*
X6221764Y-16473948D02*
X6231288Y-16454901D01*
X6231288Y-16454901D02*
X6240812Y-16445377D01*
X6240812Y-16445377D02*
X6259859Y-16435853D01*
X6259859Y-16435853D02*
X6288431Y-16435853D01*
X6288431Y-16435853D02*
X6307478Y-16445377D01*
X6307478Y-16445377D02*
X6317002Y-16454901D01*
X6317002Y-16454901D02*
X6326526Y-16473948D01*
X6326526Y-16473948D02*
X6326526Y-16531091D01*
X6326526Y-16531091D02*
X6317002Y-16550139D01*
X6317002Y-16550139D02*
X6307478Y-16559663D01*
X6307478Y-16559663D02*
X6288431Y-16569186D01*
X6288431Y-16569186D02*
X6259859Y-16569186D01*
X6440812Y-16569186D02*
X6421764Y-16559663D01*
X6421764Y-16559663D02*
X6412240Y-16540615D01*
X6412240Y-16540615D02*
X6412240Y-16369186D01*
X6593193Y-16559663D02*
X6574145Y-16569186D01*
X6574145Y-16569186D02*
X6536050Y-16569186D01*
X6536050Y-16569186D02*
X6517002Y-16559663D01*
X6517002Y-16559663D02*
X6507478Y-16540615D01*
X6507478Y-16540615D02*
X6507478Y-16464424D01*
X6507478Y-16464424D02*
X6517002Y-16445377D01*
X6517002Y-16445377D02*
X6536050Y-16435853D01*
X6536050Y-16435853D02*
X6574145Y-16435853D01*
X6574145Y-16435853D02*
X6593193Y-16445377D01*
X6593193Y-16445377D02*
X6602716Y-16464424D01*
X6602716Y-16464424D02*
X6602716Y-16483472D01*
X6602716Y-16483472D02*
X6507478Y-16502520D01*
X6678907Y-16559663D02*
X6697955Y-16569186D01*
X6697955Y-16569186D02*
X6736050Y-16569186D01*
X6736050Y-16569186D02*
X6755097Y-16559663D01*
X6755097Y-16559663D02*
X6764621Y-16540615D01*
X6764621Y-16540615D02*
X6764621Y-16531091D01*
X6764621Y-16531091D02*
X6755097Y-16512043D01*
X6755097Y-16512043D02*
X6736050Y-16502520D01*
X6736050Y-16502520D02*
X6707478Y-16502520D01*
X6707478Y-16502520D02*
X6688431Y-16492996D01*
X6688431Y-16492996D02*
X6678907Y-16473948D01*
X6678907Y-16473948D02*
X6678907Y-16464424D01*
X6678907Y-16464424D02*
X6688431Y-16445377D01*
X6688431Y-16445377D02*
X6707478Y-16435853D01*
X6707478Y-16435853D02*
X6736050Y-16435853D01*
X6736050Y-16435853D02*
X6755097Y-16445377D01*
X6831288Y-16645377D02*
X6840812Y-16635853D01*
X6840812Y-16635853D02*
X6859859Y-16607282D01*
X6859859Y-16607282D02*
X6869383Y-16588234D01*
X6869383Y-16588234D02*
X6878907Y-16559663D01*
X6878907Y-16559663D02*
X6888431Y-16512043D01*
X6888431Y-16512043D02*
X6888431Y-16473948D01*
X6888431Y-16473948D02*
X6878907Y-16426329D01*
X6878907Y-16426329D02*
X6869383Y-16397758D01*
X6869383Y-16397758D02*
X6859859Y-16378710D01*
X6859859Y-16378710D02*
X6840812Y-16350139D01*
X6840812Y-16350139D02*
X6831288Y-16340615D01*
M02*
